<svg width="496" height="483" viewBox="0 0 496 483" fill="none" xmlns="http://www.w3.org/2000/svg">
<g clip-path="url(#clip0_5_2)">
<path d="M445.8 120.81C445.513 120.45 445.293 120.27 445.14 120.27C445.011 120.267 444.884 120.23 444.774 120.163C444.663 120.096 444.573 120.001 444.515 119.89C444.456 119.78 444.431 119.657 444.443 119.537C444.454 119.416 444.502 119.303 444.58 119.21L454.39 107.11C454.817 106.577 454.81 106.05 454.37 105.53C421.923 67.3233 382.783 38.8167 336.95 20.01C330.597 17.4033 324.33 15.14 318.15 13.22C263.157 -3.85333 209.163 -1.39 156.17 20.61C111.4 39.19 71.17 70.84 38.43 106.17C38.3904 106.21 38.3595 106.258 38.339 106.31C38.3185 106.363 38.309 106.419 38.3108 106.476C38.3127 106.533 38.326 106.589 38.3499 106.642C38.3738 106.694 38.4079 106.741 38.45 106.78L53.67 121.14C53.9434 121.407 54.02 121.72 53.9 122.08L53.34 123.71L35.69 106.97C35.4567 106.75 35.4467 106.523 35.66 106.29C60.1534 79.31 87.17 56.6833 116.71 38.41C184.66 -3.62999 264.36 -12.19 338.73 18.52C385.297 37.74 424.813 66.8567 457.28 105.87C457.379 105.991 457.433 106.143 457.433 106.3C457.433 106.457 457.379 106.609 457.28 106.73L445.8 120.81Z" fill="#7B7B7B"/>
<path d="M445.8 120.81C445.507 121.023 445.223 121.427 444.95 122.02C444.743 121.113 444.467 120.637 444.12 120.59C443.959 120.565 443.788 120.57 443.616 120.605C443.445 120.64 443.276 120.703 443.119 120.793C442.963 120.882 442.822 120.994 442.704 121.124C442.587 121.254 442.496 121.399 442.435 121.55C442.375 121.701 442.347 121.856 442.352 122.005C442.358 122.154 442.398 122.294 442.469 122.419C442.54 122.543 442.641 122.649 442.766 122.73C442.892 122.811 443.039 122.865 443.2 122.89C443.4 122.93 443.583 122.99 443.75 123.07C444.047 123.231 444.274 123.494 444.39 123.81C445.57 127.13 446.783 130.437 448.03 133.73C450.71 140.83 452.55 148.9 454.87 155.33C469.51 195.89 484.123 236.373 498.71 276.78C498.8 277.025 498.832 277.288 498.802 277.546C498.773 277.805 498.683 278.053 498.54 278.27L386.79 450.8C386.598 451.1 386.346 451.356 386.05 451.554C385.754 451.752 385.42 451.887 385.07 451.95C339.637 460.083 294.113 468.267 248.5 476.5C246.66 476.833 244.82 476.827 242.98 476.48C199.8 468.313 156.713 460.12 113.72 451.9C113.432 451.846 113.158 451.734 112.914 451.571C112.67 451.408 112.461 451.196 112.3 450.95L0.459994 278.26C0.316621 278.036 0.226691 277.782 0.197207 277.519C0.167723 277.255 0.199464 276.989 0.28998 276.74C14.8366 236.48 29.3767 196.217 43.91 155.95C44.27 154.95 44.5067 154.153 44.62 153.56C44.98 151.647 44.62 150.833 43.54 151.12L53.34 123.71L53.9 122.08C54.02 121.72 53.9433 121.407 53.67 121.14L38.45 106.78C38.4078 106.741 38.3738 106.694 38.3498 106.641C38.3259 106.589 38.3126 106.533 38.3108 106.476C38.3089 106.419 38.3185 106.363 38.339 106.31C38.3595 106.258 38.3904 106.21 38.43 106.17C71.17 70.84 111.4 39.19 156.17 20.61C209.163 -1.39001 263.157 -3.85334 318.15 13.22C324.33 15.14 330.597 17.4033 336.95 20.01C382.783 38.8167 421.923 67.3233 454.37 105.53C454.81 106.05 454.817 106.577 454.39 107.11L444.58 119.21C444.502 119.303 444.454 119.416 444.443 119.537C444.431 119.657 444.456 119.78 444.515 119.89C444.573 120.001 444.663 120.095 444.773 120.163C444.884 120.23 445.011 120.267 445.14 120.27C445.293 120.27 445.513 120.45 445.8 120.81ZM269.88 43.62C333.15 49.73 389.13 85.38 430.54 132.67C430.581 132.718 430.632 132.756 430.69 132.782C430.747 132.807 430.809 132.82 430.872 132.819C430.935 132.818 430.997 132.804 431.054 132.776C431.111 132.749 431.16 132.709 431.2 132.66L452.14 106.85C452.407 106.523 452.403 106.2 452.13 105.88C387.12 29.54 284.24 -16.15 184.1 12.84C128.19 29.03 80.49 64.26 41.03 106.11C40.9932 106.149 40.9645 106.196 40.9456 106.246C40.9266 106.297 40.9179 106.35 40.9197 106.404C40.9216 106.458 40.934 106.511 40.9564 106.56C40.9787 106.609 41.0106 106.653 41.05 106.69L63.9 128.19C64.1933 128.463 64.48 128.453 64.76 128.16C116.45 72.96 193.29 36.23 269.88 43.62ZM123.06 84.88L112.05 92.82C94.67 104.353 79.1666 117.903 65.54 133.47C65.392 133.643 65.3184 133.867 65.3352 134.094C65.3521 134.32 65.4581 134.531 65.63 134.68L69.23 137.81C69.43 137.983 69.5933 138.193 69.72 138.44C70.28 139.547 70.9033 139.99 71.59 139.77C47.71 177.82 36.35 221.65 39.46 266.48C44.39 337.42 85.52 401.42 147.26 435.18C262.63 498.26 405.99 441.05 446.89 316.59C448.93 310.377 450.65 303.943 452.05 297.29C463.77 241.51 454.68 189.143 424.78 140.19C425.4 140.117 425.82 139.853 426.04 139.4C426.14 139.187 426.287 139.017 426.48 138.89L428.74 137.48C429.127 137.247 429.17 136.96 428.87 136.62C420.423 126.887 411.207 117.777 401.22 109.29L388.48 97.81C386.4 95.4633 384.143 93.29 381.71 91.29C369.077 80.9166 355.393 72.28 340.66 65.38C334.827 62.6467 328.68 60.0767 322.22 57.67C286.447 44.35 249.467 41.23 211.28 48.31C185.1 53.17 160.8 61.7833 138.38 74.15C133.687 76.7433 128.58 80.32 123.06 84.88ZM437.23 131.49C436.963 131.757 436.787 132.02 436.7 132.28C436.587 132.607 436.693 132.823 437.02 132.93C439.46 133.73 441.29 135.337 442.51 137.75C442.73 138.197 443.067 138.257 443.52 137.93C444.247 139.157 445.173 139.94 446.3 140.28L448.74 143.3C448.832 143.418 448.963 143.5 449.11 143.53C449.257 143.56 449.41 143.537 449.541 143.465C449.672 143.393 449.773 143.276 449.826 143.136C449.879 142.995 449.881 142.841 449.83 142.7L443.71 124.95C443.676 124.85 443.616 124.76 443.536 124.691C443.455 124.622 443.358 124.576 443.253 124.557C443.149 124.539 443.042 124.549 442.943 124.586C442.843 124.624 442.756 124.687 442.69 124.77L437.23 131.49ZM51.62 143.15C55.3667 139.863 58.6433 136.15 61.45 132.01C61.63 131.743 61.6033 131.5 61.37 131.28L56.16 126.24C56.0355 126.119 55.8828 126.032 55.7159 125.985C55.549 125.939 55.373 125.935 55.2041 125.974C55.0352 126.012 54.8787 126.093 54.7487 126.207C54.6188 126.322 54.5195 126.467 54.46 126.63L48.32 143.55C48.2322 143.789 48.2192 144.048 48.2827 144.294C48.3463 144.54 48.4833 144.761 48.6756 144.927C48.8679 145.094 49.1063 145.197 49.359 145.225C49.6117 145.252 49.8667 145.201 50.09 145.08C50.59 144.813 50.9233 144.433 51.09 143.94C51.1967 143.627 51.3733 143.363 51.62 143.15Z" fill="#BFBDB8"/>
<path d="M269.88 43.62C193.29 36.23 116.45 72.96 64.76 128.16C64.48 128.453 64.1933 128.463 63.9 128.19L41.05 106.69C41.0106 106.653 40.9788 106.609 40.9564 106.56C40.9341 106.511 40.9216 106.458 40.9197 106.404C40.9179 106.35 40.9267 106.297 40.9456 106.246C40.9645 106.196 40.9932 106.149 41.03 106.11C80.49 64.26 128.19 29.03 184.1 12.84C284.24 -16.15 387.12 29.54 452.13 105.88C452.403 106.2 452.407 106.523 452.14 106.85L431.2 132.66C431.16 132.709 431.111 132.749 431.054 132.776C430.997 132.804 430.935 132.818 430.872 132.819C430.809 132.82 430.747 132.807 430.69 132.782C430.632 132.756 430.581 132.718 430.54 132.67C389.13 85.38 333.15 49.73 269.88 43.62Z" fill="#594E40"/>
<path d="M388.48 97.81C378.593 90.6167 372.33 86.1333 369.69 84.36C322.94 52.97 267.98 39.81 212.13 50.17C185.73 55.0633 160.733 64.08 137.14 77.22C132.587 79.76 127.893 82.3133 123.06 84.88C128.58 80.32 133.687 76.7433 138.38 74.15C160.8 61.7833 185.1 53.17 211.28 48.31C249.467 41.23 286.447 44.35 322.22 57.67C328.68 60.0767 334.827 62.6467 340.66 65.38C355.393 72.28 369.077 80.9167 381.71 91.29C384.143 93.29 386.4 95.4633 388.48 97.81Z" fill="#7B7B7B"/>
<path d="M388.48 97.81L401.22 109.29C409.847 119.343 417.7 129.643 424.78 140.19C454.68 189.143 463.77 241.51 452.05 297.29C450.65 303.943 448.93 310.377 446.89 316.59C405.99 441.05 262.63 498.26 147.26 435.18C85.52 401.42 44.39 337.42 39.46 266.48C36.35 221.65 47.71 177.82 71.59 139.77C82.77 122.577 96.2567 106.927 112.05 92.82L123.06 84.88C127.893 82.3133 132.587 79.76 137.14 77.22C160.733 64.08 185.73 55.0633 212.13 50.17C267.98 39.81 322.94 52.97 369.69 84.36C372.33 86.1333 378.593 90.6167 388.48 97.81ZM75.85 145.4C61.7967 168.66 52.69 193.133 48.53 218.82C38.55 280.467 52.99 334.627 91.85 381.3C136.23 434.62 206.7 461.81 275.29 452.72C342.77 443.79 401.02 399.51 430.87 338.92C461.23 277.27 456.55 203.1 421.56 144.17L420.51 142.53C404.17 116.303 383.303 95.4033 357.91 79.83C297.67 42.88 218.16 40.07 155.21 71.94C122.197 88.6533 95.7433 113.14 75.85 145.4Z" fill="black"/>
<path d="M420.51 142.53C418.677 143.77 417.72 145.327 417.64 147.2C417.627 147.5 417.487 147.717 417.22 147.85L412.03 150.48C411.818 150.588 411.575 150.621 411.342 150.571C411.109 150.522 410.9 150.395 410.75 150.21C405.843 144.25 400.41 138.857 394.45 134.03C390.363 130.723 387.193 128.063 384.94 126.05C381.88 123.317 378.717 120.643 375.45 118.03C380.583 121.67 385.603 125.44 390.51 129.34C393.59 131.78 397.067 134.927 400.94 138.78C404.347 142.167 407.813 145.5 411.34 148.78C411.687 149.093 412.057 149.127 412.45 148.88L415.17 147.13C415.357 147.017 415.553 146.93 415.76 146.87C416.2 146.75 416.497 146.48 416.65 146.06C416.817 145.62 416.743 145.1 416.43 144.5C415.963 143.607 415.177 142.333 414.07 140.68C388.203 101.96 353.48 75.96 309.9 62.68C267.28 49.68 217.96 50.99 176.31 66.99C135.663 82.5967 103.457 109.143 79.69 146.63C78.9766 147.763 79.27 148.49 80.57 148.81C80.8966 148.897 81.4033 148.5 82.09 147.62C82.7033 146.827 83.4633 146.49 84.37 146.61C84.65 146.643 84.8933 146.563 85.1 146.37L86.05 145.47C86.074 145.452 86.1036 145.443 86.1336 145.444C86.1636 145.445 86.1922 145.457 86.2146 145.477C86.237 145.497 86.2518 145.524 86.2564 145.554C86.261 145.584 86.2552 145.614 86.24 145.64L85.86 146.08C85.3866 146.627 85.44 146.687 86.02 146.26C89.7333 143.507 93.26 140.69 96.6 137.81C97.62 136.923 99.1266 135.733 101.12 134.24C104.12 131.98 106.38 129.34 109.69 127.34C111.92 125.99 114.37 123.38 116.9 122.91L117.54 123.17C114.98 125.36 111.93 127.41 109.54 129.36C103.587 134.233 99.55 137.417 97.43 138.91C92.67 142.263 88.29 146.06 84.29 150.3C83.35 151.293 81.9166 151.613 79.99 151.26C79.7166 151.213 79.56 151.053 79.52 150.78L79.29 149.22C79.281 149.16 79.2584 149.102 79.2238 149.052C79.1893 149.002 79.1438 148.96 79.0907 148.931C79.0377 148.901 78.9785 148.883 78.9177 148.88C78.8569 148.876 78.7962 148.887 78.74 148.91C78.3866 149.063 78.1 149.293 77.88 149.6L75.85 145.4C95.7433 113.14 122.197 88.6533 155.21 71.94C218.16 40.07 297.67 42.88 357.91 79.83C383.303 95.4033 404.17 116.303 420.51 142.53Z" fill="#7B7B7B"/>
<path d="M375.45 118.03C371.69 115.73 368.003 113.227 364.39 110.52C362.06 108.78 359.21 107.63 356.69 105.99C353.31 103.783 351.437 102.573 351.07 102.36C335.47 93.4667 318.73 86.0733 300.85 80.18C298.11 79.28 296.013 78.7067 294.56 78.46C289.42 76.5533 284.153 75.14 278.76 74.22C275.23 73.61 270.9 72.25 266.76 72.03C265.933 71.9833 264.693 71.8167 263.04 71.53C261.953 71.3433 260.687 71.2333 259.24 71.2C245.55 70.88 232.28 70.92 219.98 74.43C192.867 80.37 167.483 90.7433 143.83 105.55C139.697 108.13 135.59 110.683 131.51 113.21L127.38 115.82C127.107 115.993 126.817 116.107 126.51 116.16C124.93 116.453 123.81 117.313 123.15 118.74C120.89 119.547 118.807 120.937 116.9 122.91C114.37 123.38 111.92 125.99 109.69 127.34C106.38 129.34 104.12 131.98 101.12 134.24C99.1267 135.733 97.62 136.923 96.6 137.81C93.26 140.69 89.7334 143.507 86.02 146.26C85.44 146.687 85.3867 146.627 85.86 146.08L86.24 145.64C86.2553 145.614 86.2611 145.584 86.2565 145.554C86.2519 145.524 86.2371 145.497 86.2147 145.477C86.1923 145.457 86.1637 145.445 86.1336 145.444C86.1036 145.443 86.0741 145.452 86.05 145.47L85.1 146.37C84.8934 146.563 84.65 146.643 84.37 146.61C83.4633 146.49 82.7033 146.827 82.09 147.62C81.4033 148.5 80.8967 148.897 80.57 148.81C79.27 148.49 78.9767 147.763 79.69 146.63C103.457 109.143 135.663 82.5967 176.31 66.99C217.96 50.99 267.28 49.68 309.9 62.68C353.48 75.96 388.203 101.96 414.07 140.68C415.177 142.333 415.963 143.607 416.43 144.5C416.743 145.1 416.817 145.62 416.65 146.06C416.497 146.48 416.2 146.75 415.76 146.87C415.553 146.93 415.357 147.017 415.17 147.13L412.45 148.88C412.057 149.127 411.687 149.093 411.34 148.78C407.813 145.5 404.347 142.167 400.94 138.78C397.067 134.927 393.59 131.78 390.51 129.34C385.603 125.44 380.583 121.67 375.45 118.03Z" fill="#54504B"/>
<path d="M294.56 78.46C288.913 77.32 283.293 76.1633 277.7 74.99C274 74.22 270.25 74.39 266.52 73.58C250.94 70.2 237.44 72 219.98 74.43C232.28 70.92 245.55 70.88 259.24 71.2C260.687 71.2333 261.953 71.3433 263.04 71.53C264.693 71.8167 265.933 71.9833 266.76 72.03C270.9 72.25 275.23 73.61 278.76 74.22C284.153 75.14 289.42 76.5533 294.56 78.46Z" fill="#7B7B7B"/>
<path d="M294.56 78.46C296.013 78.7067 298.11 79.28 300.85 80.18C318.73 86.0733 335.47 93.4667 351.07 102.36C351.437 102.573 353.31 103.783 356.69 105.99C359.21 107.63 362.06 108.78 364.39 110.52C368.003 113.227 371.69 115.73 375.45 118.03C378.717 120.643 381.88 123.317 384.94 126.05C387.193 128.063 390.363 130.723 394.45 134.03C400.41 138.857 405.843 144.25 410.75 150.21C410.9 150.395 411.109 150.522 411.342 150.571C411.575 150.621 411.818 150.588 412.03 150.48L417.22 147.85C417.487 147.717 417.627 147.5 417.64 147.2C417.72 145.327 418.677 143.77 420.51 142.53L421.56 144.17C420.767 144.75 420.15 145.027 419.71 145C419.454 144.984 419.198 145.038 418.97 145.156C418.742 145.275 418.551 145.453 418.417 145.673C418.283 145.892 418.212 146.143 418.211 146.4C418.209 146.657 418.278 146.909 418.41 147.13C454.92 208.51 456.92 285.38 421.71 347.74C386.37 410.32 319.57 451.39 246.76 450.49C178.65 449.65 114.58 413.89 78.34 356.06C38.73 292.84 41.17 213.54 77.88 149.6C78.1 149.293 78.3867 149.063 78.74 148.91C78.7962 148.886 78.857 148.876 78.9178 148.88C78.9785 148.883 79.0377 148.901 79.0908 148.931C79.1438 148.96 79.1893 149.002 79.2239 149.052C79.2584 149.102 79.281 149.16 79.29 149.22L79.52 150.78C79.56 151.053 79.7167 151.213 79.99 151.26C81.9167 151.613 83.35 151.293 84.29 150.3C88.29 146.06 92.67 142.263 97.43 138.91C99.55 137.417 103.587 134.233 109.54 129.36C111.93 127.41 114.98 125.36 117.54 123.17C119.133 122.57 119.977 122.027 120.07 121.54C120.123 121.253 120.017 121.167 119.75 121.28C118.723 121.707 117.987 122.337 117.54 123.17L116.9 122.91C118.807 120.937 120.89 119.547 123.15 118.74C126.317 117.347 129.103 115.503 131.51 113.21C135.59 110.683 139.697 108.13 143.83 105.55C167.483 90.7433 192.867 80.37 219.98 74.43C237.44 72 250.94 70.2 266.52 73.58C270.25 74.39 274 74.22 277.7 74.99C283.293 76.1633 288.913 77.32 294.56 78.46ZM328.34 375.86C403.65 328.87 418.7 222.9 360.53 155.97C302.25 88.93 196.04 86.66 136.35 153.11C76.23 220.03 90.15 327.47 166.75 375.49C215.31 405.93 279.56 406.3 328.34 375.86Z" fill="#8C857D"/>
<path d="M112.05 92.82C96.2567 106.927 82.77 122.577 71.59 139.77C70.9034 139.99 70.28 139.547 69.72 138.44C69.5934 138.193 69.43 137.983 69.23 137.81L65.63 134.68C65.4581 134.531 65.3521 134.32 65.3353 134.094C65.3184 133.867 65.392 133.643 65.54 133.47C79.1667 117.903 94.67 104.353 112.05 92.82Z" fill="#7B7B7B"/>
<path d="M360.53 155.97C418.7 222.9 403.65 328.87 328.34 375.86C279.56 406.3 215.31 405.93 166.75 375.49C90.15 327.47 76.23 220.03 136.35 153.11C196.04 86.66 302.25 88.93 360.53 155.97ZM353.09 348.48C403.53 292.81 403.8 209.19 352.27 154.23C290.95 88.83 179.53 95.67 128.79 171.01C81.91 240.63 103.84 336.63 178.32 376.42C234.57 406.48 309.25 396.87 353.09 348.48Z" fill="#54504B"/>
<path d="M352.27 154.23C403.8 209.19 403.53 292.81 353.09 348.48C309.25 396.87 234.57 406.48 178.32 376.42C103.84 336.63 81.91 240.63 128.79 171.01C179.53 95.67 290.95 88.83 352.27 154.23ZM376.02 251.5C376.02 217.414 362.48 184.725 338.377 160.623C314.275 136.52 281.586 122.98 247.5 122.98C213.414 122.98 180.725 136.52 156.623 160.623C132.52 184.725 118.98 217.414 118.98 251.5C118.98 285.586 132.52 318.275 156.623 342.377C180.725 366.48 213.414 380.02 247.5 380.02C281.586 380.02 314.275 366.48 338.377 342.377C362.48 318.275 376.02 285.586 376.02 251.5Z" fill="black"/>
<path d="M401.22 109.29C411.207 117.777 420.423 126.887 428.87 136.62C429.17 136.96 429.127 137.247 428.74 137.48L426.48 138.89C426.287 139.017 426.14 139.187 426.04 139.4C425.82 139.853 425.4 140.117 424.78 140.19C417.7 129.643 409.847 119.343 401.22 109.29Z" fill="#7B7B7B"/>
<path d="M131.51 113.21C129.103 115.503 126.317 117.347 123.15 118.74C123.81 117.313 124.93 116.453 126.51 116.16C126.817 116.107 127.107 115.993 127.38 115.82L131.51 113.21Z" fill="#7B7B7B"/>
<path d="M444.95 122.02L501.03 277.31C501.15 277.65 501.117 277.97 500.93 278.27L499.42 280.69L403.24 429.21L401.11 432.53L387.63 453.22C386.603 453.593 385.227 453.933 383.5 454.24C364.113 457.687 319.037 465.783 248.27 478.53C246.423 478.863 244.577 478.853 242.73 478.5C200.703 470.447 158.59 462.447 116.39 454.5C113.85 454.353 112.003 453.703 110.85 452.55L5.37999 289.74L-0.510013 280.6L-1.90001 278.16C-2.07335 277.853 -2.10001 277.533 -1.98001 277.2L43.54 151.12C44.62 150.833 44.98 151.647 44.62 153.56C44.5066 154.153 44.27 154.95 43.91 155.95C29.3767 196.217 14.8366 236.48 0.289975 276.74C0.199459 276.989 0.167717 277.255 0.197201 277.519C0.226686 277.782 0.316615 278.036 0.459988 278.26L112.3 450.95C112.461 451.196 112.67 451.408 112.914 451.571C113.158 451.734 113.432 451.846 113.72 451.9C156.713 460.12 199.8 468.313 242.98 476.48C244.82 476.827 246.66 476.833 248.5 476.5C294.113 468.267 339.637 460.083 385.07 451.95C385.42 451.887 385.754 451.752 386.05 451.554C386.346 451.356 386.598 451.1 386.79 450.8L498.54 278.27C498.683 278.053 498.773 277.805 498.802 277.546C498.832 277.288 498.8 277.025 498.71 276.78C484.123 236.373 469.51 195.89 454.87 155.33C452.55 148.9 450.71 140.83 448.03 133.73C446.783 130.437 445.57 127.13 444.39 123.81C444.274 123.494 444.047 123.231 443.75 123.07C443.583 122.99 443.4 122.93 443.2 122.89C443.039 122.865 442.892 122.811 442.766 122.73C442.641 122.649 442.54 122.543 442.469 122.419C442.398 122.294 442.358 122.154 442.352 122.005C442.347 121.856 442.375 121.701 442.435 121.55C442.495 121.399 442.587 121.254 442.704 121.124C442.822 120.994 442.963 120.882 443.119 120.793C443.276 120.703 443.445 120.64 443.616 120.605C443.788 120.57 443.959 120.565 444.12 120.59C444.467 120.637 444.743 121.113 444.95 122.02Z" fill="white"/>
<path d="M117.54 123.17C117.987 122.337 118.723 121.707 119.75 121.28C120.017 121.167 120.123 121.253 120.07 121.54C119.977 122.027 119.133 122.57 117.54 123.17Z" fill="#7B7B7B"/>
<path d="M376.02 251.5C376.02 285.586 362.479 318.275 338.377 342.377C314.275 366.48 281.586 380.02 247.5 380.02C213.414 380.02 180.725 366.48 156.623 342.377C132.52 318.275 118.98 285.586 118.98 251.5C118.98 217.414 132.52 184.725 156.623 160.623C180.725 136.52 213.414 122.98 247.5 122.98C281.586 122.98 314.275 136.52 338.377 160.623C362.479 184.725 376.02 217.414 376.02 251.5ZM340.88 251.49C323.32 228.58 296.6 202.34 266.74 197.82C261.787 197.073 256.83 196.31 251.87 195.53C249.83 195.21 247.747 195.213 245.62 195.54C240.17 196.38 234.31 196.88 229.51 198.13C199.48 205.95 172.6 227.97 153.06 251.47C152.827 251.75 152.83 252.03 153.07 252.31C170.15 272.68 193.1 291.69 218.75 301.65C223.923 303.657 229.247 304.99 234.72 305.65C236.987 305.923 238.817 306.2 240.21 306.48C243.64 307.19 246.72 308.28 250.32 307.52C253.647 306.82 257.557 306.247 262.05 305.8C295.14 302.52 320.91 277.31 340.87 252.39C341.11 252.09 341.113 251.79 340.88 251.49ZM205.987 325.17C205.902 319.737 203.609 314.56 199.613 310.78C195.617 307 190.244 304.925 184.678 305.012C181.922 305.056 179.201 305.629 176.671 306.698C174.141 307.768 171.851 309.313 169.932 311.246C168.013 313.179 166.503 315.462 165.487 317.964C164.471 320.467 163.97 323.139 164.013 325.83C164.098 331.263 166.391 336.44 170.387 340.22C174.383 344 179.756 346.075 185.322 345.987C188.078 345.944 190.799 345.371 193.329 344.302C195.859 343.232 198.149 341.687 200.068 339.754C201.987 337.821 203.497 335.538 204.513 333.036C205.529 330.533 206.03 327.861 205.987 325.17Z" fill="#3A78AF"/>
<path d="M446.3 140.28C445.58 138.973 444.653 138.19 443.52 137.93C441.867 135.317 439.77 133.17 437.23 131.49L442.69 124.77C442.756 124.687 442.843 124.624 442.943 124.586C443.042 124.549 443.149 124.539 443.253 124.557C443.358 124.576 443.455 124.622 443.536 124.691C443.616 124.76 443.676 124.85 443.71 124.95L449.83 142.7C449.881 142.841 449.879 142.996 449.826 143.136C449.773 143.276 449.672 143.393 449.541 143.465C449.41 143.537 449.257 143.56 449.11 143.53C448.963 143.5 448.832 143.418 448.74 143.3L446.3 140.28Z" fill="#7B7B7B"/>
<path d="M51.09 143.94C50.9233 144.433 50.59 144.813 50.09 145.08C49.8667 145.201 49.6117 145.252 49.359 145.225C49.1063 145.197 48.8679 145.094 48.6756 144.927C48.4833 144.761 48.3463 144.54 48.2827 144.294C48.2192 144.048 48.2322 143.789 48.32 143.55L54.46 126.63C54.5195 126.467 54.6188 126.322 54.7487 126.207C54.8787 126.093 55.0352 126.012 55.2041 125.974C55.373 125.935 55.5489 125.939 55.7159 125.985C55.8828 126.032 56.0355 126.119 56.16 126.24L61.37 131.28C61.6033 131.5 61.63 131.743 61.45 132.01C58.6433 136.15 55.3666 139.863 51.62 143.15C51.3733 143.363 51.1966 143.627 51.09 143.94Z" fill="#7B7B7B"/>
<path d="M437.23 131.49C439.77 133.17 441.867 135.317 443.52 137.93C443.067 138.257 442.73 138.197 442.51 137.75C441.29 135.337 439.46 133.73 437.02 132.93C436.693 132.823 436.587 132.607 436.7 132.28C436.787 132.02 436.963 131.757 437.23 131.49Z" fill="#8C857D"/>
<path d="M443.52 137.93C444.653 138.19 445.58 138.973 446.3 140.28C445.173 139.94 444.247 139.157 443.52 137.93Z" fill="#8C857D"/>
<path d="M421.56 144.17C456.55 203.1 461.23 277.27 430.87 338.92C401.02 399.51 342.77 443.79 275.29 452.72C206.7 461.81 136.23 434.62 91.85 381.3C52.99 334.627 38.55 280.467 48.53 218.82C52.69 193.133 61.7967 168.66 75.85 145.4L77.88 149.6C41.17 213.54 38.73 292.84 78.34 356.06C114.58 413.89 178.65 449.65 246.76 450.49C319.57 451.39 386.37 410.32 421.71 347.74C456.92 285.38 454.92 208.51 418.41 147.13C418.278 146.909 418.209 146.657 418.211 146.4C418.212 146.143 418.283 145.892 418.417 145.673C418.551 145.453 418.742 145.275 418.97 145.156C419.198 145.038 419.454 144.984 419.71 145C420.15 145.027 420.767 144.75 421.56 144.17Z" fill="#BFBDB8"/>
<path d="M266.74 197.82C296.6 202.34 323.32 228.58 340.88 251.49C341.113 251.79 341.11 252.09 340.87 252.39C320.91 277.31 295.14 302.52 262.05 305.8C257.557 306.247 253.647 306.82 250.32 307.52C246.72 308.28 243.64 307.19 240.21 306.48C238.817 306.2 236.987 305.923 234.72 305.65C229.247 304.99 223.923 303.657 218.75 301.65C193.1 291.69 170.15 272.68 153.07 252.31C152.83 252.03 152.827 251.75 153.06 251.47C172.6 227.97 199.48 205.95 229.51 198.13C234.31 196.88 240.17 196.38 245.62 195.54C247.747 195.213 249.83 195.21 251.87 195.53C256.83 196.31 261.787 197.073 266.74 197.82ZM251.14 305.54C255.273 305.02 259.197 303.87 262.91 302.09C280.04 293.88 296.16 279.86 299.39 260.11C302.98 238.2 290.06 214.72 271.67 203.22C265.5 199.36 258.7 198.22 251.5 197.42C249.44 197.193 246.947 197.277 244.02 197.67C237.18 198.6 231.65 198.86 225.08 202.87C208.64 212.88 196.16 232.42 195.94 251.5C195.74 267.74 203.74 281.66 216.08 291.48C221.267 295.607 226.167 298.803 230.78 301.07C236.113 303.683 241.86 305.203 248.02 305.63C249.047 305.703 250.087 305.673 251.14 305.54ZM301.14 239.45C309.02 268.1 291.54 290.05 267.56 302.66C267.52 302.684 267.49 302.72 267.474 302.764C267.458 302.807 267.458 302.855 267.473 302.898C267.489 302.942 267.519 302.979 267.558 303.003C267.598 303.027 267.644 303.036 267.69 303.03C297.04 297.47 320.21 274.96 338.18 252.5C338.527 252.067 338.527 251.633 338.18 251.2C321.5 230.15 299.83 208.75 273.15 201.21C272.397 201.003 272.35 201.11 273.01 201.53C287.337 210.717 296.713 223.357 301.14 239.45ZM155.67 252.07C173.41 273.64 200.55 295.47 228.13 302.49C228.146 302.497 228.163 302.5 228.18 302.5C228.197 302.5 228.214 302.497 228.229 302.49C228.245 302.484 228.26 302.474 228.272 302.462C228.284 302.45 228.293 302.436 228.3 302.42C228.307 302.404 228.31 302.387 228.31 302.37C228.31 302.353 228.307 302.336 228.3 302.32C228.294 302.305 228.284 302.29 228.272 302.278C228.26 302.266 228.246 302.257 228.23 302.25C210.4 292.27 195.62 278.08 193.74 256.67C191.94 236.17 204.28 215.18 220.52 203.46C221.673 202.627 221.587 202.463 220.26 202.97C195.15 212.59 173.05 231 155.68 251.3C155.46 251.553 155.457 251.81 155.67 252.07Z" fill="black"/>
<path d="M251.14 305.54C250.087 305.673 249.047 305.703 248.02 305.63C241.86 305.203 236.113 303.683 230.78 301.07C226.167 298.803 221.267 295.607 216.08 291.48C203.74 281.66 195.74 267.74 195.94 251.5C196.16 232.42 208.64 212.88 225.08 202.87C231.65 198.86 237.18 198.6 244.02 197.67C246.947 197.277 249.44 197.193 251.5 197.42C258.7 198.22 265.5 199.36 271.67 203.22C290.06 214.72 302.98 238.2 299.39 260.11C296.16 279.86 280.04 293.88 262.91 302.09C259.197 303.87 255.273 305.02 251.14 305.54ZM247.84 262.969C250.757 263.01 253.571 261.839 255.664 259.715C257.757 257.591 258.956 254.688 258.999 251.644C259.041 248.599 257.923 245.663 255.891 243.482C253.858 241.3 251.077 240.052 248.16 240.011C245.243 239.97 242.429 241.141 240.336 243.265C238.243 245.388 237.044 248.292 237.001 251.336C236.959 254.381 238.077 257.317 240.109 259.498C242.142 261.68 244.923 262.928 247.84 262.969Z" fill="#F3C163"/>
<path d="M267.56 302.66C291.54 290.05 309.02 268.1 301.14 239.45C296.713 223.357 287.337 210.717 273.01 201.53C272.35 201.11 272.397 201.003 273.15 201.21C299.83 208.75 321.5 230.15 338.18 251.2C338.527 251.633 338.527 252.067 338.18 252.5C320.21 274.96 297.04 297.47 267.69 303.03C267.644 303.036 267.598 303.027 267.558 303.003C267.519 302.979 267.489 302.942 267.473 302.898C267.458 302.855 267.458 302.807 267.474 302.764C267.49 302.72 267.52 302.684 267.56 302.66Z" fill="white"/>
<path d="M228.13 302.49C200.55 295.47 173.41 273.64 155.67 252.07C155.457 251.81 155.46 251.553 155.68 251.3C173.05 231 195.15 212.59 220.26 202.97C221.587 202.463 221.673 202.627 220.52 203.46C204.28 215.18 191.94 236.17 193.74 256.67C195.62 278.08 210.4 292.27 228.23 302.25C228.246 302.257 228.26 302.266 228.272 302.278C228.284 302.29 228.294 302.305 228.3 302.321C228.307 302.336 228.31 302.353 228.31 302.37C228.31 302.387 228.307 302.404 228.3 302.42C228.293 302.436 228.284 302.45 228.272 302.462C228.26 302.474 228.245 302.484 228.229 302.49C228.214 302.497 228.197 302.5 228.18 302.5C228.163 302.5 228.146 302.497 228.13 302.49Z" fill="white"/>
<path d="M237.001 251.336C236.913 257.676 241.765 262.884 247.84 262.969C253.914 263.054 258.91 257.983 258.999 251.644C259.087 245.304 254.235 240.096 248.16 240.011C242.086 239.926 237.09 244.997 237.001 251.336Z" fill="black"/>
<path d="M-0.510006 280.6L5.37999 289.74C4.27333 289.56 3.13666 288.693 1.96999 287.14C1.81666 286.933 1.71333 286.96 1.65999 287.22C1.63999 287.313 1.63665 287.42 1.64998 287.54C-0.956684 284.387 -1.67667 282.073 -0.510006 280.6Z" fill="#594E40"/>
<path d="M499.42 280.69C499.587 280.89 499.803 281.043 500.07 281.15C500.29 281.237 500.377 281.4 500.33 281.64C499.82 284.14 499.77 286.98 498.32 289.02C497.44 290.26 496.393 291.343 495.18 292.27C493.853 293.283 492.883 294.263 492.27 295.21C476.903 319.023 461.533 342.837 446.16 366.65C440.353 375.65 434.49 384.617 428.57 393.55C427.15 395.697 425.793 397.883 424.5 400.11C423.18 402.37 421.777 404.53 420.29 406.59C416.62 411.67 412.72 418.2 410.03 422.27C405.623 428.963 401.283 435.697 397.01 442.47C395.7 444.54 395.36 446.51 394.78 448.85C394.697 449.158 394.5 449.423 394.23 449.59C392.337 450.763 391.263 451.893 391.01 452.98C390.13 456.813 387.877 459.027 384.25 459.62C372.263 461.58 361.66 463.557 352.44 465.55C344.59 467.25 336.47 468.22 328.48 469.75C319.513 471.47 310.547 473.19 301.58 474.91C297.67 475.65 290.21 476.62 284.6 477.86C281.873 478.46 279.62 478.883 277.84 479.13C273.747 479.703 269.65 480.243 265.55 480.75C265.343 480.777 265.26 480.687 265.3 480.48C265.34 480.287 265.39 480.2 265.45 480.22C265.63 480.293 265.627 480.347 265.44 480.38L251.66 482.54L249.6 482.41C249.568 482.403 249.539 482.385 249.517 482.359C249.496 482.334 249.484 482.302 249.483 482.269C249.482 482.236 249.492 482.203 249.511 482.176C249.53 482.149 249.558 482.13 249.59 482.12C250.83 481.95 251.87 481.23 252.91 481.04C257.877 480.147 262.83 479.177 267.77 478.13C267.857 478.11 267.917 478.13 267.95 478.19C267.963 478.223 267.973 478.26 267.98 478.3C267.982 478.322 267.977 478.345 267.967 478.366C267.956 478.387 267.94 478.406 267.919 478.422C267.899 478.438 267.874 478.451 267.846 478.459C267.819 478.467 267.789 478.471 267.76 478.47C267.633 478.47 267.52 478.48 267.42 478.5C267.053 478.573 267.063 478.617 267.45 478.63C269.39 478.69 271.3 477.56 272.51 477.88C272.543 477.887 272.543 477.883 272.51 477.87L272.18 477.68C272.033 477.607 272.04 477.553 272.2 477.52L297.08 472.61C298.98 471.73 300.91 471.357 302.87 471.49C308.11 471.043 313.183 470.023 318.09 468.43L353.66 462.3L366.06 460.22L383.56 456.99C383.893 456.93 384.163 456.767 384.37 456.5C384.683 456.093 385.157 455.98 385.79 456.16C386.07 456.24 386.32 456.183 386.54 455.99C387.327 455.31 387.69 454.387 387.63 453.22L401.11 432.53C402.657 432.35 403.367 431.243 403.24 429.21L499.42 280.69ZM497.77 287.48C496.697 288.38 495.993 289.537 495.66 290.95C495.527 291.497 495.663 291.573 496.07 291.18C497.043 290.22 497.677 289.027 497.97 287.6C497.973 287.574 497.968 287.548 497.957 287.524C497.945 287.5 497.928 287.481 497.906 287.468C497.884 287.455 497.86 287.449 497.835 287.451C497.811 287.453 497.788 287.463 497.77 287.48ZM393 450.4L394.59 447.1C394.614 447.035 394.614 446.964 394.59 446.899C394.566 446.834 394.52 446.78 394.46 446.746C394.399 446.712 394.329 446.701 394.261 446.715C394.193 446.728 394.133 446.766 394.09 446.82C393.403 447.853 392.843 448.963 392.41 450.15C392.377 450.228 392.376 450.316 392.408 450.395C392.44 450.474 392.502 450.537 392.58 450.57C392.658 450.603 392.746 450.604 392.825 450.572C392.904 450.54 392.967 450.478 393 450.4ZM358.84 462.49L352.75 463.75C352.677 463.763 352.637 463.733 352.63 463.66C352.557 463.047 352.557 463.057 352.63 463.69C352.637 463.75 352.673 463.777 352.74 463.77C357.86 463.23 362.953 462.507 368.02 461.6C368.24 461.56 368.41 461.507 368.53 461.44C369.37 460.947 369.277 460.84 368.25 461.12C366.037 461.713 363.8 462.057 361.54 462.15C360.627 462.19 359.727 462.303 358.84 462.49ZM314.841 471.142C314.834 471.084 314.501 471.065 313.915 471.09C313.329 471.114 312.538 471.179 311.715 471.271C310.893 471.364 310.107 471.475 309.53 471.581C308.953 471.688 308.633 471.78 308.639 471.838C308.646 471.896 308.979 471.915 309.565 471.891C310.151 471.866 310.942 471.801 311.764 471.709C312.587 471.616 313.373 471.505 313.95 471.399C314.527 471.292 314.847 471.2 314.841 471.142ZM260.04 480.75C260.213 480.797 260.373 480.787 260.52 480.72C260.567 480.694 260.604 480.653 260.624 480.603C260.643 480.553 260.645 480.498 260.629 480.447C260.612 480.396 260.578 480.352 260.533 480.323C260.487 480.295 260.433 480.283 260.38 480.29L256.51 481.11C256.203 481.17 256.207 481.19 256.52 481.17C257.593 481.097 258.65 480.953 259.69 480.74C259.809 480.72 259.928 480.724 260.04 480.75Z" fill="#54504B"/>
<path d="M5.37998 289.74L110.85 452.55C110.617 453.217 110.717 453.857 111.15 454.47C111.337 454.77 111.393 455.037 111.32 455.27L113.54 458.21C111.773 457.443 110.493 456.28 109.7 454.72C108.773 452.9 108.29 451.963 108.25 451.91C93.1233 428.643 78.86 406.623 65.46 385.85C63.682 383.11 62.3103 380.995 61.565 379.843C60.8198 378.692 60.744 378.571 61.35 379.5L1.64996 287.54C1.63663 287.42 1.63997 287.313 1.65997 287.22C1.71331 286.96 1.81664 286.933 1.96997 287.14C3.13664 288.693 4.27331 289.56 5.37998 289.74Z" fill="#54504B"/>
<path d="M497.77 287.48C497.788 287.463 497.811 287.453 497.835 287.451C497.86 287.449 497.884 287.455 497.906 287.468C497.928 287.481 497.945 287.5 497.957 287.524C497.968 287.548 497.973 287.574 497.97 287.6C497.677 289.027 497.043 290.22 496.07 291.18C495.663 291.573 495.527 291.497 495.66 290.95C495.993 289.537 496.697 288.38 497.77 287.48Z" fill="black"/>
<path d="M185.322 345.987C196.913 345.805 206.165 336.485 205.987 325.17C205.81 313.855 196.269 304.83 184.678 305.013C173.087 305.195 163.835 314.515 164.013 325.83C164.19 337.145 173.731 346.17 185.322 345.987Z" fill="white"/>
<path d="M403.24 429.21C403.367 431.243 402.657 432.35 401.11 432.53L403.24 429.21Z" fill="#7B7B7B"/>
<path d="M393 450.4C392.967 450.478 392.904 450.54 392.825 450.572C392.746 450.604 392.658 450.603 392.58 450.57C392.502 450.537 392.44 450.474 392.408 450.395C392.376 450.316 392.377 450.228 392.41 450.15C392.843 448.963 393.403 447.853 394.09 446.82C394.133 446.766 394.193 446.728 394.261 446.715C394.329 446.701 394.399 446.712 394.46 446.746C394.52 446.78 394.566 446.834 394.59 446.899C394.614 446.964 394.614 447.035 394.59 447.1L393 450.4Z" fill="black"/>
<path d="M110.85 452.55C112.003 453.703 113.85 454.353 116.39 454.5C120.817 456.407 125.53 457.62 130.53 458.14C131.123 458.207 131.14 458.343 130.58 458.55C130.127 458.71 129.647 458.72 129.14 458.58C129.127 458.58 129.12 458.593 129.12 458.62C129.12 458.633 129.12 458.647 129.12 458.66C129.113 458.72 129.133 458.75 129.18 458.75C130.493 458.863 131.62 459.2 132.56 459.76L123.52 458.04L127 458.15C127.26 458.157 127.26 458.133 127 458.08L118.79 456.45C118.41 456.377 118.337 456.497 118.57 456.81L119.11 457.54L121.7 458.52C123.42 459.433 125.187 459.807 127 459.64L136.75 461C138.977 461.933 141.027 462.21 142.9 461.83C143.787 461.537 144.777 461.673 145.87 462.24C146.177 462.4 146.5 462.457 146.84 462.41C148.313 462.223 149.687 462.5 150.96 463.24C151.233 463.393 151.527 463.48 151.84 463.5C155.713 463.7 159.48 464.417 163.14 465.65L155.93 464.52C155.866 464.509 155.801 464.522 155.748 464.557C155.694 464.591 155.656 464.645 155.64 464.708C155.624 464.771 155.631 464.839 155.661 464.898C155.69 464.958 155.74 465.005 155.8 465.03L157.01 465.49L151.72 464.58L153.74 464.77C154.373 464.83 154.397 464.74 153.81 464.5C151.617 463.593 149.293 463.22 146.84 463.38L129.98 460.68L125.65 460.06C122.07 459.06 118.287 458.56 114.3 458.56C114.193 458.187 113.94 458.07 113.54 458.21L111.32 455.27L111.81 455.48C112.39 455.733 112.57 455.563 112.35 454.97C112.183 454.517 111.907 454.2 111.52 454.02C111.32 453.927 111.193 453.983 111.14 454.19C111.113 454.283 111.117 454.377 111.15 454.47C110.717 453.857 110.617 453.217 110.85 452.55Z" fill="#8C857D"/>
<path d="M387.63 453.22C387.69 454.387 387.327 455.31 386.54 455.99C386.32 456.183 386.07 456.24 385.79 456.16C385.157 455.98 384.683 456.093 384.37 456.5C384.163 456.767 383.893 456.93 383.56 456.99L366.06 460.22L364.09 460.06C361.217 459.733 358.507 460.117 355.96 461.21L353.66 462.3L318.09 468.43C312.883 468.963 307.81 469.983 302.87 471.49C300.91 471.357 298.98 471.73 297.08 472.61C295.627 472.363 293.727 472.453 291.38 472.88C281.313 474.693 271.27 476.48 261.25 478.24C259.67 478.087 258.273 478.39 257.06 479.15C252.267 480.41 247.533 480.93 242.86 480.71L236.98 479.59L233.86 479.87L228.94 478.69C226.333 477.437 223.603 476.777 220.75 476.71C220.41 476.703 220.38 476.793 220.66 476.98C221.013 477.213 221.453 477.363 221.98 477.43L216.55 476.66C216.263 476.04 215.727 475.643 214.94 475.47C213.38 474.657 211.85 474.403 210.35 474.71C208.65 474.01 206.887 473.69 205.06 473.75L197.01 471.66L193.07 471.44C191.77 470.82 190.41 470.563 188.99 470.67C188.59 470.703 188.577 470.79 188.95 470.93C190.263 471.417 191.637 471.587 193.07 471.44C193.043 471.587 193.02 471.73 193 471.87L181.3 469.94C181.593 469.887 181.883 469.83 182.17 469.77C177.85 468.45 174.087 467.75 170.88 467.67L165.55 466.66C166.497 466.927 167.253 466.973 167.82 466.8C168.247 466.673 168.24 466.57 167.8 466.49L163.14 465.65C159.48 464.417 155.713 463.7 151.84 463.5C151.527 463.48 151.233 463.393 150.96 463.24C149.687 462.5 148.313 462.223 146.84 462.41C146.5 462.457 146.177 462.4 145.87 462.24C144.777 461.673 143.787 461.537 142.9 461.83C139.487 460.563 136.04 459.873 132.56 459.76C131.62 459.2 130.493 458.863 129.18 458.75C129.133 458.75 129.113 458.72 129.12 458.66C129.12 458.647 129.12 458.633 129.12 458.62C129.12 458.593 129.127 458.58 129.14 458.58C129.647 458.72 130.127 458.71 130.58 458.55C131.14 458.343 131.123 458.207 130.53 458.14C125.53 457.62 120.817 456.407 116.39 454.5C158.59 462.447 200.703 470.447 242.73 478.5C244.577 478.853 246.423 478.863 248.27 478.53C319.037 465.783 364.113 457.687 383.5 454.24C385.227 453.933 386.603 453.593 387.63 453.22ZM168.75 467.15L172.18 467.59C172.973 467.69 173.013 467.553 172.3 467.18C171.207 466.613 170.02 466.44 168.74 466.66C168.684 466.673 168.633 466.704 168.598 466.75C168.562 466.795 168.543 466.851 168.545 466.909C168.546 466.967 168.567 467.022 168.604 467.066C168.642 467.11 168.693 467.14 168.75 467.15ZM178.58 468.64L181.94 469.05C181.969 469.054 181.998 469.052 182.026 469.045C182.055 469.037 182.081 469.024 182.104 469.007C182.128 468.989 182.147 468.967 182.162 468.942C182.176 468.917 182.186 468.889 182.19 468.86C182.194 468.831 182.192 468.802 182.185 468.773C182.177 468.745 182.164 468.719 182.147 468.696C182.129 468.672 182.107 468.653 182.082 468.638C182.057 468.624 182.029 468.614 182 468.61L177.96 468.02C177.5 467.953 177.457 468.06 177.83 468.34C177.903 468.393 177.977 468.44 178.05 468.48C178.217 468.567 178.393 468.62 178.58 468.64ZM236.43 479.7L236.54 479.17C236.549 479.126 236.54 479.081 236.516 479.043C236.492 479.006 236.454 478.98 236.41 478.97L236.22 478.93C235.266 478.739 234.321 478.558 233.44 478.398C232.558 478.237 231.759 478.1 231.089 477.995C230.42 477.889 229.893 477.818 229.541 477.784C229.189 477.751 229.019 477.756 229.04 477.8L228.98 478.09C228.968 478.127 229.141 478.2 229.49 478.306C229.839 478.412 230.357 478.548 231.014 478.707C231.672 478.866 232.455 479.044 233.319 479.232C234.183 479.419 235.111 479.612 236.05 479.8L236.23 479.83C236.274 479.839 236.319 479.83 236.357 479.806C236.394 479.782 236.42 479.744 236.43 479.7Z" fill="#BFBDB8"/>
<path d="M111.32 455.27C111.393 455.037 111.337 454.77 111.15 454.47C111.117 454.377 111.113 454.283 111.14 454.19C111.193 453.983 111.32 453.927 111.52 454.02C111.907 454.2 112.183 454.517 112.35 454.97C112.57 455.563 112.39 455.733 111.81 455.48L111.32 455.27Z" fill="#7B7B7B"/>
<path d="M123.52 458.04C122.22 457.527 120.75 457.36 119.11 457.54L118.57 456.81C118.337 456.497 118.41 456.377 118.79 456.45L127 458.08C127.26 458.133 127.26 458.157 127 458.15L123.52 458.04Z" fill="#BFBDB8"/>
<path d="M119.11 457.54C120.75 457.36 122.22 457.527 123.52 458.04L132.56 459.76L136.75 461L127 459.64L121.7 458.52L119.11 457.54Z" fill="#7B7B7B"/>
<path d="M114.3 458.56C118.287 458.56 122.07 459.06 125.65 460.06L123.07 460.14C122.877 460.147 122.85 460.187 122.99 460.26C123.057 460.3 123.143 460.3 123.25 460.26C123.39 460.22 123.517 460.21 123.63 460.23C124.103 460.323 124.09 460.397 123.59 460.45C122.91 460.53 122.19 460.437 121.43 460.17C119.27 459.743 117.043 459.393 114.75 459.12C114.45 459.087 114.3 458.9 114.3 458.56Z" fill="#54504B"/>
<path d="M121.7 458.52L127 459.64C125.187 459.807 123.42 459.433 121.7 458.52Z" fill="#54504B"/>
<path d="M132.56 459.76C136.04 459.873 139.487 460.563 142.9 461.83L136.75 461L132.56 459.76Z" fill="#8C857D"/>
<path d="M125.65 460.06L129.98 460.68C137.327 462.513 144.573 463.813 151.72 464.58L157.01 465.49L164.16 466.96C165.767 467.42 167.39 467.773 169.03 468.02C173.17 468.64 176.94 470.01 181.3 469.94L193 471.87L203.06 473.77C203.067 474.11 203.213 474.31 203.5 474.37C204.533 474.57 207.103 475.003 211.21 475.67L209.33 475.65C209.287 475.646 209.243 475.651 209.201 475.664C209.16 475.677 209.121 475.698 209.088 475.725C209.054 475.753 209.027 475.787 209.007 475.826C208.986 475.865 208.974 475.907 208.97 475.95C208.966 475.993 208.971 476.037 208.984 476.079C208.997 476.12 209.018 476.159 209.045 476.192C209.073 476.226 209.107 476.253 209.146 476.273C209.185 476.294 209.227 476.306 209.27 476.31C213.47 476.997 217.57 477.803 221.57 478.73C222.143 478.863 222.293 478.897 222.02 478.83C218.293 477.923 214.503 477.283 210.65 476.91L208.57 476.49C208.57 476.363 208.523 476.257 208.43 476.17C208.357 476.11 208.25 476.08 208.11 476.08C205.743 476.113 203.533 475.553 201.48 474.4C200.3 473.74 199.04 473.307 197.7 473.1C196.013 472.833 194.73 472.58 193.85 472.34C192.083 471.853 190.28 471.607 188.44 471.6C186.76 471.6 185.1 470.79 183.19 471.21C182.683 471.323 182.687 471.43 183.2 471.53L185.42 471.97C183.76 472.13 182.213 471.897 180.78 471.27C179.813 470.59 178.647 470.34 177.28 470.52C177.147 470.54 177.127 470.597 177.22 470.69C177.347 470.817 177.427 470.943 177.46 471.07L157.46 467.12C157.793 467.167 158.047 467.167 158.22 467.12C158.713 466.98 158.653 466.793 158.04 466.56C156.94 466.16 155.89 466.083 154.89 466.33L122.8 461.22C122.513 461.173 122.497 461.077 122.75 460.93C122.903 460.843 123.087 460.813 123.3 460.84C122.527 460.893 121.903 460.67 121.43 460.17C122.19 460.437 122.91 460.53 123.59 460.45C124.09 460.397 124.103 460.323 123.63 460.23C123.517 460.21 123.39 460.22 123.25 460.26C123.143 460.3 123.057 460.3 122.99 460.26C122.85 460.187 122.877 460.147 123.07 460.14L125.65 460.06Z" fill="#594E40"/>
<path d="M364.09 460.06L355.96 461.21C358.507 460.117 361.217 459.733 364.09 460.06Z" fill="#8C857D"/>
<path d="M364.09 460.06L366.06 460.22L353.66 462.3L355.96 461.21L364.09 460.06Z" fill="#7B7B7B"/>
<path d="M146.84 463.38L151.72 464.58C144.573 463.813 137.327 462.513 129.98 460.68L146.84 463.38Z" fill="#54504B"/>
<path d="M136.75 461L142.9 461.83C141.027 462.21 138.977 461.933 136.75 461Z" fill="#7B7B7B"/>
<path d="M358.84 462.49C359.727 462.303 360.627 462.19 361.54 462.15C363.8 462.057 366.037 461.713 368.25 461.12C369.277 460.84 369.37 460.947 368.53 461.44C368.41 461.507 368.24 461.56 368.02 461.6C362.953 462.507 357.86 463.23 352.74 463.77C352.673 463.777 352.637 463.75 352.63 463.69C352.557 463.057 352.557 463.047 352.63 463.66C352.637 463.733 352.677 463.763 352.75 463.75L358.84 462.49Z" fill="#594E40"/>
<path d="M151.72 464.58L146.84 463.38C149.293 463.22 151.617 463.593 153.81 464.5C154.397 464.74 154.373 464.83 153.74 464.77L151.72 464.58Z" fill="#7B7B7B"/>
<path d="M163.14 465.65L167.8 466.49C168.24 466.57 168.247 466.673 167.82 466.8C167.253 466.973 166.497 466.927 165.55 466.66C165.297 466.833 164.833 466.933 164.16 466.96L157.01 465.49L155.8 465.03C155.74 465.005 155.69 464.958 155.661 464.898C155.631 464.839 155.624 464.771 155.64 464.708C155.656 464.645 155.694 464.591 155.748 464.557C155.801 464.522 155.866 464.509 155.93 464.52L163.14 465.65Z" fill="#7B7B7B"/>
<path d="M154.89 466.33C155.89 466.083 156.94 466.16 158.04 466.56C158.653 466.793 158.713 466.98 158.22 467.12C158.047 467.167 157.793 467.167 157.46 467.12C156.233 467.087 155.377 466.823 154.89 466.33Z" fill="#54504B"/>
<path d="M164.16 466.96C164.833 466.933 165.297 466.833 165.55 466.66L170.88 467.67L182.17 469.77C181.883 469.83 181.593 469.887 181.3 469.94C176.94 470.01 173.17 468.64 169.03 468.02C167.39 467.773 165.767 467.42 164.16 466.96Z" fill="#54504B"/>
<path d="M168.75 467.15C168.693 467.14 168.642 467.11 168.604 467.066C168.567 467.022 168.546 466.967 168.544 466.909C168.543 466.851 168.562 466.795 168.598 466.75C168.633 466.704 168.684 466.673 168.74 466.66C170.02 466.44 171.207 466.613 172.3 467.18C173.013 467.553 172.973 467.69 172.18 467.59L168.75 467.15Z" fill="#8C857D"/>
<path d="M170.88 467.67C174.087 467.75 177.85 468.45 182.17 469.77L170.88 467.67Z" fill="#7B7B7B"/>
<path d="M178.05 468.48C177.977 468.44 177.903 468.393 177.83 468.34C177.457 468.06 177.5 467.953 177.96 468.02L182 468.61C182.029 468.614 182.057 468.624 182.082 468.638C182.107 468.653 182.129 468.672 182.147 468.696C182.164 468.719 182.177 468.745 182.185 468.774C182.192 468.802 182.194 468.831 182.19 468.86C182.186 468.889 182.176 468.917 182.162 468.942C182.147 468.967 182.128 468.989 182.104 469.007C182.081 469.024 182.055 469.037 182.026 469.045C181.998 469.052 181.969 469.054 181.94 469.05L178.58 468.64C178.393 468.62 178.217 468.567 178.05 468.48Z" fill="#8C857D"/>
<path d="M318.09 468.43C313.183 470.023 308.11 471.043 302.87 471.49C307.81 469.983 312.883 468.963 318.09 468.43Z" fill="#7B7B7B"/>
<path d="M180.78 471.27L177.46 471.07C177.427 470.943 177.347 470.817 177.22 470.69C177.127 470.597 177.147 470.54 177.28 470.52C178.647 470.34 179.813 470.59 180.78 471.27Z" fill="#54504B"/>
<path d="M193.07 471.44C191.637 471.587 190.263 471.417 188.95 470.93C188.577 470.79 188.59 470.703 188.99 470.67C190.41 470.563 191.77 470.82 193.07 471.44Z" fill="#7B7B7B"/>
<path d="M311.765 471.709C313.477 471.517 314.854 471.263 314.841 471.142C314.827 471.021 313.428 471.079 311.716 471.271C310.003 471.463 308.626 471.717 308.64 471.838C308.653 471.959 310.052 471.901 311.765 471.709Z" fill="#594E40"/>
<path d="M208.57 476.49C207.737 476.683 206.713 476.65 205.5 476.39C202.127 475.67 195.54 474.433 185.74 472.68C185.38 472.62 185.273 472.383 185.42 471.97L183.2 471.53C182.687 471.43 182.683 471.323 183.19 471.21C185.1 470.79 186.76 471.6 188.44 471.6C190.28 471.607 192.083 471.853 193.85 472.34C194.73 472.58 196.013 472.833 197.7 473.1C199.04 473.307 200.3 473.74 201.48 474.4C203.533 475.553 205.743 476.113 208.11 476.08C208.25 476.08 208.357 476.11 208.43 476.17C208.523 476.257 208.57 476.363 208.57 476.49ZM189.28 472.51C192.42 473.217 195.79 473.873 199.39 474.48C199.426 474.488 199.463 474.482 199.494 474.464C199.526 474.447 199.55 474.418 199.562 474.384C199.575 474.35 199.574 474.312 199.561 474.278C199.547 474.244 199.522 474.217 199.49 474.2C198.93 473.887 198.277 473.69 197.53 473.61C194.13 473.237 190.957 472.76 188.01 472.18C188.005 472.182 188.001 472.185 187.998 472.189C187.994 472.193 187.992 472.197 187.991 472.202C187.99 472.207 187.99 472.212 187.992 472.217C187.994 472.222 187.996 472.227 188 472.23C188.22 472.277 188.647 472.37 189.28 472.51Z" fill="#54504B"/>
<path d="M193.07 471.44L197.01 471.66C197.497 472.3 198.16 472.617 199 472.61C200.513 472.583 201.867 472.97 203.06 473.77L193 471.87C193.02 471.73 193.043 471.587 193.07 471.44Z" fill="#7B7B7B"/>
<path d="M197.01 471.66L205.06 473.75C204.333 473.543 203.667 473.55 203.06 473.77C201.867 472.97 200.513 472.583 199 472.61C198.16 472.617 197.497 472.3 197.01 471.66Z" fill="#8C857D"/>
<path d="M189.28 472.51C188.647 472.37 188.22 472.277 188 472.23C187.996 472.226 187.993 472.222 187.992 472.217C187.99 472.212 187.99 472.207 187.991 472.202C187.992 472.197 187.994 472.193 187.998 472.189C188.001 472.185 188.005 472.182 188.01 472.18C190.957 472.76 194.13 473.237 197.53 473.61C198.277 473.69 198.93 473.887 199.49 474.2C199.522 474.217 199.547 474.244 199.561 474.278C199.574 474.312 199.575 474.35 199.562 474.384C199.55 474.418 199.526 474.447 199.494 474.464C199.463 474.482 199.426 474.488 199.39 474.48C195.79 473.873 192.42 473.217 189.28 472.51Z" fill="#594E40"/>
<path d="M297.08 472.61L272.2 477.52C272.04 477.553 272.033 477.607 272.18 477.68L272.51 477.87C272.543 477.883 272.543 477.887 272.51 477.88C271.3 477.56 269.39 478.69 267.45 478.63C267.063 478.617 267.053 478.573 267.42 478.5C267.52 478.48 267.633 478.47 267.76 478.47C267.789 478.471 267.819 478.467 267.846 478.459C267.874 478.451 267.899 478.438 267.919 478.422C267.94 478.406 267.956 478.387 267.967 478.366C267.977 478.345 267.982 478.322 267.98 478.3C267.973 478.26 267.963 478.223 267.95 478.19C267.917 478.13 267.857 478.11 267.77 478.13C262.83 479.177 257.877 480.147 252.91 481.04C251.87 481.23 250.83 481.95 249.59 482.12C249.558 482.129 249.531 482.149 249.511 482.176C249.492 482.203 249.482 482.236 249.483 482.269C249.484 482.302 249.496 482.334 249.518 482.359C249.539 482.385 249.568 482.403 249.6 482.41L251.66 482.54C248.227 483.207 245.143 483.11 242.41 482.25C244.07 482.47 245.933 482.517 248 482.39C248.44 482.363 248.81 482.233 249.11 482C249.49 481.713 249.443 481.61 248.97 481.69C247.077 482.03 245.17 482.08 243.25 481.84C243.238 481.837 243.226 481.83 243.218 481.82C243.209 481.809 243.204 481.797 243.204 481.785C243.204 481.773 243.209 481.763 243.218 481.756C243.226 481.749 243.238 481.747 243.25 481.75C243.51 481.75 243.8 481.737 244.12 481.71C244.127 481.71 244.13 481.693 244.13 481.66C244.13 481.647 244.133 481.63 244.14 481.61C244.147 481.557 244.123 481.527 244.07 481.52L233.86 479.87L236.98 479.59C238.82 480.397 240.78 480.77 242.86 480.71C247.533 480.93 252.267 480.41 257.06 479.15C258.613 479.23 260.01 478.927 261.25 478.24C271.27 476.48 281.313 474.693 291.38 472.88C293.727 472.453 295.627 472.363 297.08 472.61Z" fill="#7B7B7B"/>
<path d="M203.06 473.77C203.667 473.55 204.333 473.543 205.06 473.75L210.35 474.71L214.94 475.47C215.727 475.643 216.263 476.04 216.55 476.66L211.21 475.67C207.103 475.003 204.533 474.57 203.5 474.37C203.213 474.31 203.067 474.11 203.06 473.77Z" fill="#7B7B7B"/>
<path d="M205.06 473.75C206.887 473.69 208.65 474.01 210.35 474.71L205.06 473.75Z" fill="#8C857D"/>
<path d="M210.35 474.71C211.85 474.403 213.38 474.657 214.94 475.47L210.35 474.71Z" fill="#8C857D"/>
<path d="M211.21 475.67L216.55 476.66L221.98 477.43C224.213 478.443 226.533 478.863 228.94 478.69L233.86 479.87L244.07 481.52C244.123 481.527 244.147 481.557 244.14 481.61C244.133 481.63 244.13 481.647 244.13 481.66C244.13 481.693 244.127 481.71 244.12 481.71C243.8 481.737 243.51 481.75 243.25 481.75C243.238 481.747 243.226 481.75 243.218 481.756C243.209 481.763 243.204 481.773 243.204 481.785C243.204 481.797 243.209 481.809 243.218 481.82C243.226 481.83 243.238 481.837 243.25 481.84C245.17 482.08 247.077 482.03 248.97 481.69C249.443 481.61 249.49 481.713 249.11 482C248.81 482.233 248.44 482.363 248 482.39C245.933 482.517 244.07 482.47 242.41 482.25L231.97 480.8C228.903 479.913 225.787 479.36 222.62 479.14C222.62 479.133 222.62 479.137 222.62 479.15C222.613 479.157 222.617 479.16 222.63 479.16C223.883 479.18 224.85 479.453 225.53 479.98L210.65 476.91C214.503 477.283 218.293 477.923 222.02 478.83C222.293 478.897 222.143 478.863 221.57 478.73C217.57 477.803 213.47 476.997 209.27 476.31C209.227 476.306 209.185 476.294 209.146 476.273C209.107 476.253 209.073 476.226 209.045 476.192C209.018 476.159 208.997 476.12 208.984 476.079C208.971 476.037 208.966 475.993 208.97 475.95C208.974 475.907 208.986 475.865 209.007 475.826C209.027 475.787 209.054 475.753 209.088 475.725C209.121 475.698 209.16 475.677 209.201 475.664C209.243 475.651 209.287 475.646 209.33 475.65L211.21 475.67Z" fill="#54504B"/>
<path d="M228.94 478.69C226.533 478.863 224.213 478.443 221.98 477.43C221.453 477.363 221.013 477.213 220.66 476.98C220.38 476.793 220.41 476.703 220.75 476.71C223.603 476.777 226.333 477.437 228.94 478.69Z" fill="#7B7B7B"/>
<path d="M236.43 479.7C236.42 479.744 236.394 479.782 236.357 479.806C236.319 479.83 236.274 479.839 236.23 479.83L236.05 479.8C235.111 479.612 234.183 479.419 233.319 479.232C232.455 479.044 231.671 478.866 231.014 478.707C230.357 478.548 229.839 478.412 229.49 478.306C229.141 478.2 228.968 478.127 228.98 478.09L229.04 477.8C229.019 477.756 229.189 477.751 229.541 477.784C229.893 477.818 230.42 477.889 231.089 477.995C231.759 478.1 232.558 478.237 233.44 478.398C234.321 478.558 235.266 478.739 236.22 478.93L236.41 478.97C236.454 478.98 236.492 479.006 236.516 479.043C236.54 479.081 236.549 479.126 236.54 479.17L236.43 479.7Z" fill="#8C857D"/>
<path d="M261.25 478.24C260.01 478.927 258.613 479.23 257.06 479.15C258.273 478.39 259.67 478.087 261.25 478.24Z" fill="#8C857D"/>
<path d="M231.97 480.8L225.53 479.98C224.85 479.453 223.883 479.18 222.63 479.16C222.617 479.16 222.613 479.157 222.62 479.15C222.62 479.137 222.62 479.133 222.62 479.14C225.787 479.36 228.903 479.913 231.97 480.8Z" fill="#594E40"/>
<path d="M242.86 480.71C240.78 480.77 238.82 480.397 236.98 479.59L242.86 480.71Z" fill="#8C857D"/>
<path d="M259.69 480.74C258.65 480.953 257.593 481.097 256.52 481.17C256.207 481.19 256.203 481.17 256.51 481.11L260.38 480.29C260.433 480.283 260.487 480.295 260.533 480.323C260.578 480.352 260.612 480.396 260.629 480.447C260.645 480.498 260.643 480.553 260.624 480.603C260.604 480.653 260.567 480.694 260.52 480.72C260.373 480.787 260.213 480.797 260.04 480.75C259.928 480.724 259.809 480.72 259.69 480.74Z" fill="#594E40"/>
<path d="M242.27 482.55C242.577 482.61 242.64 482.767 242.46 483.02C242.307 483.227 241.983 483.27 241.49 483.15C239.583 482.697 237.66 482.333 235.72 482.06C235.487 482.027 235.463 481.937 235.65 481.79C235.783 481.69 235.983 481.647 236.25 481.66C237.577 481.72 239.583 482.017 242.27 482.55Z" fill="#54504B"/>
</g>
<defs>
<clipPath id="clip0_5_2">
<rect width="496" height="483" fill="white"/>
</clipPath>
</defs>
</svg>
