<svg width="1226" height="1080" viewBox="0 0 1226 1080" fill="none" xmlns="http://www.w3.org/2000/svg">
<path fill-rule="evenodd" clip-rule="evenodd" d="M213.398 -74.259C305.585 -130.193 411.858 -12.3758 518.011 -1.40179C623.458 9.49912 736.88 -46.5458 834.275 -10.0735C933.493 27.081 990.974 120.115 1054.76 199.596C1123.53 285.297 1237.04 365.998 1224.03 475.607C1210.34 591.013 1048.53 644.805 989.571 748.984C939.433 837.573 1003.35 987.481 908.264 1033.53C796.476 1087.66 676.517 976.783 555.565 959.162C491.335 949.805 422.488 927.664 361.929 953.934C213.558 1018.29 124.354 1211.83 -36.2351 1215.87C-157.682 1218.92 -300.436 1080.95 -268.895 969.792C-220.189 798.144 155.748 772.151 139.037 598.183C121.926 420.051 -311.732 498.046 -331.289 320.246C-346.252 184.211 -18.0308 337.82 100.923 251.665C199.553 180.229 108.903 -10.857 213.398 -74.259Z" fill="#282A5A" stroke="black"/>
</svg>
