<?xml version="1.0" encoding="UTF-8" standalone="no"?>
<!DOCTYPE svg PUBLIC "-//W3C//DTD SVG 1.1//EN" "http://www.w3.org/Graphics/SVG/1.1/DTD/svg11.dtd">
<svg xmlns="http://www.w3.org/2000/svg" version="1.1" viewBox="0.00 0.00 800.00 800.00">
<g stroke-width="2.00" fill="none" stroke-linecap="butt">
<path stroke="#605f5c" vector-effect="non-scaling-stroke" d="
  M 203.34 210.71
  L 193.54 238.12"
/>
<path stroke="#808080" vector-effect="non-scaling-stroke" d="
  M 193.54 238.12
  L 148.02 364.20
  Q 147.84 364.70 148.10 365.16
  L 149.49 367.60"
/>
<path stroke="#2d2720" vector-effect="non-scaling-stroke" d="
  M 149.49 367.60
  Q 147.74 369.81 151.65 374.54"
/>
<path stroke="#2a2826" vector-effect="non-scaling-stroke" d="
  M 151.65 374.54
  L 211.35 466.50
  A 16.95 0.01 57.0 0 0 215.46 472.85
  Q 235.56 504.01 258.25 538.91
  Q 258.31 538.99 259.70 541.72
  Q 260.89 544.06 263.54 545.21"
/>
<path stroke="#46433f" vector-effect="non-scaling-stroke" d="
  M 263.54 545.21
  Q 264.14 545.00 264.30 545.56"
/>
<path stroke="#2a2826" vector-effect="non-scaling-stroke" d="
  M 264.30 545.56
  Q 264.30 546.07 264.75 546.12
  Q 268.19 546.53 271.43 547.17"
/>
<path stroke="#2d2720" vector-effect="non-scaling-stroke" d="
  M 271.43 547.17
  Q 272.14 547.92 273.30 547.84
  Q 272.98 547.80 272.75 547.93
  Q 272.37 548.15 272.80 548.22
  L 304.89 553.33"
/>
<path stroke="#2a2826" vector-effect="non-scaling-stroke" d="
  M 304.89 553.33
  Q 305.62 554.07 307.46 554.12"
/>
<path stroke="#2d2720" vector-effect="non-scaling-stroke" d="
  M 307.46 554.12
  L 327.46 558.07"
/>
<path stroke="#2a2826" vector-effect="non-scaling-stroke" d="
  M 327.46 558.07
  L 330.78 558.27"
/>
<path stroke="#2d2720" vector-effect="non-scaling-stroke" d="
  M 330.78 558.27
  Q 332.93 559.21 335.42 558.97"
/>
<path stroke="#2a2826" vector-effect="non-scaling-stroke" d="
  M 335.42 558.97
  Q 335.20 559.59 335.74 559.68
  Q 350.44 562.31 355.50 563.39
  Q 357.32 563.78 358.57 563.49"
/>
<path stroke="#2d2720" vector-effect="non-scaling-stroke" d="
  M 358.57 563.49
  L 360.65 563.91"
/>
<path stroke="#2a2826" vector-effect="non-scaling-stroke" d="
  M 360.65 563.91
  L 375.53 566.98"
/>
<path stroke="#2d2720" vector-effect="non-scaling-stroke" d="
  M 375.53 566.98
  L 381.97 567.80"
/>
<path stroke="#2a2826" vector-effect="non-scaling-stroke" d="
  M 381.97 567.80
  L 392.41 569.25"
/>
<path stroke="#3e3e3e" vector-effect="non-scaling-stroke" d="
  M 392.41 569.25
  Q 396.51 570.54 401.66 569.54"
/>
<path stroke="#2a2826" vector-effect="non-scaling-stroke" d="
  M 401.66 569.54
  L 415.44 567.38
  Q 415.72 567.33 415.45 567.22
  Q 415.36 567.19 415.30 567.48
  Q 415.24 567.79 415.55 567.75
  Q 421.70 566.99 427.84 566.13
  Q 430.51 565.76 434.60 564.86
  C 440.21 563.62 447.67 562.65 451.58 561.91
  Q 465.03 559.33 478.48 556.75
  C 486.47 555.22 494.59 554.25 502.44 552.55
  Q 516.27 549.56 534.25 546.62
  Q 539.69 545.73 541.01 539.98
  Q 541.39 538.35 544.23 536.59
  A 1.26 1.25 81.9 0 0 544.78 535.85
  C 545.36 533.51 545.70 531.54 547.01 529.47
  Q 553.42 519.31 560.03 509.27
  C 562.72 505.20 566.62 498.67 570.29 493.59
  Q 572.52 490.50 574.50 487.11
  Q 576.44 483.77 578.57 480.55
  Q 587.45 467.15 596.16 453.65
  Q 619.22 417.93 642.27 382.21
  Q 643.19 380.79 645.18 379.27
  Q 647.00 377.88 648.32 376.02
  C 649.77 373.98 649.82 371.14 650.33 368.64
  Q 650.40 368.28 650.07 368.15
  Q 649.67 367.99 649.42 367.69"
/>
<path stroke="#808080" vector-effect="non-scaling-stroke" d="
  M 649.42 367.69
  L 650.93 365.27
  Q 651.21 364.82 651.03 364.31
  L 594.95 209.02"
/>
<path stroke="#605f5c" vector-effect="non-scaling-stroke" d="
  M 594.95 209.02
  Q 595.36 208.13 595.80 207.81"
/>
<path stroke="#3e3e3e" vector-effect="non-scaling-stroke" d="
  M 595.80 207.81
  L 607.28 193.73
  A 0.68 0.68 0.0 0 0 607.28 192.87
  Q 558.58 134.35 488.73 105.52
  C 414.36 74.81 334.66 83.37 266.71 125.41
  Q 222.40 152.82 185.66 193.29
  Q 185.34 193.64 185.69 193.97
  L 203.34 210.71"
/>
<path stroke="#9d9c9a" vector-effect="non-scaling-stroke" d="
  M 595.80 207.81
  Q 595.37 207.27 595.14 207.27
  A 0.69 0.64 19.2 0 1 594.58 206.21
  L 604.39 194.11
  Q 605.03 193.31 604.37 192.53
  Q 555.70 135.22 486.95 107.01
  Q 477.42 103.10 468.15 100.22
  Q 385.66 74.61 306.17 107.61
  C 261.40 126.19 221.17 157.84 188.43 193.17
  A 0.43 0.42 43.6 0 0 188.45 193.78
  L 203.67 208.14
  Q 204.08 208.54 203.90 209.08
  L 203.34 210.71"
/>
<path stroke="#dfdedc" vector-effect="non-scaling-stroke" d="
  M 594.95 209.02
  Q 594.64 207.66 594.12 207.59
  A 1.37 1.09 -29.6 0 0 593.20 209.89
  Q 593.50 209.95 593.75 210.07
  A 1.39 1.38 4.3 0 1 594.39 210.81
  Q 596.16 215.79 598.03 220.73
  C 600.71 227.83 602.55 235.90 604.87 242.33
  Q 626.83 303.17 648.71 363.78
  A 1.67 1.66 51.7 0 1 648.54 365.27
  L 536.79 537.80
  A 2.59 2.59 0.0 0 1 535.07 538.95
  Q 466.92 551.15 398.50 563.50
  Q 395.74 564.00 392.98 563.48
  Q 328.21 551.23 263.72 538.90
  A 2.19 2.17 78.5 0 1 262.30 537.95
  L 150.46 365.26
  A 1.73 1.72 38.8 0 1 150.29 363.74
  Q 172.11 303.35 193.91 242.95
  Q 194.45 241.45 194.62 240.56
  Q 195.16 237.69 193.54 238.12"
/>
<path stroke="#aaa8a5" vector-effect="non-scaling-stroke" d="
  M 649.42 367.69
  L 553.24 516.21"
/>
<path stroke="#bdbdbd" vector-effect="non-scaling-stroke" d="
  M 553.24 516.21
  L 551.11 519.53"
/>
<path stroke="#aaa8a5" vector-effect="non-scaling-stroke" d="
  M 551.11 519.53
  L 537.63 540.22"
/>
<path stroke="#dfdedc" vector-effect="non-scaling-stroke" d="
  M 537.63 540.22
  Q 536.09 540.78 533.50 541.24
  Q 504.42 546.41 398.27 565.53
  Q 395.50 566.03 392.73 565.50
  Q 329.69 553.42 266.39 541.50"
/>
<path stroke="#c6c2be" vector-effect="non-scaling-stroke" d="
  M 266.39 541.50
  Q 262.58 541.28 260.85 539.55"
/>
<path stroke="#aaa8a5" vector-effect="non-scaling-stroke" d="
  M 260.85 539.55
  L 155.38 376.74"
/>
<path stroke="#aca7a0" vector-effect="non-scaling-stroke" d="
  M 155.38 376.74
  L 149.49 367.60"
/>
<path stroke="#706b64" vector-effect="non-scaling-stroke" d="
  M 260.85 539.55
  Q 260.50 540.55 261.15 541.47"
/>
<path stroke="#686663" vector-effect="non-scaling-stroke" d="
  M 261.15 541.47
  Q 261.43 541.92 261.32 542.27"
/>
<path stroke="#706b64" vector-effect="non-scaling-stroke" d="
  M 261.32 542.27
  L 263.54 545.21"
/>
<path stroke="#574f46" vector-effect="non-scaling-stroke" d="
  M 155.38 376.74
  Q 153.72 376.47 151.97 374.14
  Q 151.74 373.83 151.66 374.22
  Q 151.63 374.36 151.65 374.54"
/>
<path stroke="#9d9c9a" vector-effect="non-scaling-stroke" d="
  M 516.06 547.22
  L 514.09 547.06"
/>
<path stroke="#a6a19b" vector-effect="non-scaling-stroke" d="
  M 514.09 547.06
  Q 509.78 546.57 505.96 548.21"
/>
<path stroke="#9d9c9a" vector-effect="non-scaling-stroke" d="
  M 505.96 548.21
  L 503.66 549.30"
/>
<path stroke="#9d9c9a" vector-effect="non-scaling-stroke" d="
  M 468.09 555.43
  Q 460.28 556.23 452.87 558.49"
/>
<path stroke="#9d9c9a" vector-effect="non-scaling-stroke" d="
  M 447.08 559.61
  Q 444.90 559.24 441.38 559.88
  Q 426.28 562.60 411.25 565.24"
/>
<path stroke="#a6a19b" vector-effect="non-scaling-stroke" d="
  M 411.25 565.24
  Q 408.88 565.01 407.06 566.15"
/>
<path stroke="#9d9c9a" vector-effect="non-scaling-stroke" d="
  M 407.06 566.15
  Q 399.87 568.04 392.86 567.71"
/>
<path stroke="#a6a19b" vector-effect="non-scaling-stroke" d="
  M 392.86 567.71
  L 386.98 566.59"
/>
<path stroke="#9d9c9a" vector-effect="non-scaling-stroke" d="
  M 386.98 566.59
  L 383.86 566.87"
/>
<path stroke="#8a8782" vector-effect="non-scaling-stroke" d="
  M 383.86 566.87
  L 378.94 565.69"
/>
<path stroke="#9d9c9a" vector-effect="non-scaling-stroke" d="
  M 378.94 565.69
  Q 375.03 563.81 370.75 563.71
  Q 370.24 563.70 370.66 563.98
  Q 371.19 564.33 371.98 564.43"
/>
<path stroke="#8a8782" vector-effect="non-scaling-stroke" d="
  M 371.98 564.43
  L 366.55 563.66"
/>
<path stroke="#9d9c9a" vector-effect="non-scaling-stroke" d="
  M 366.55 563.66
  Q 366.12 562.73 364.94 562.47"
/>
<path stroke="#a6a19b" vector-effect="non-scaling-stroke" d="
  M 364.94 562.47
  Q 362.60 561.25 360.35 561.71"
/>
<path stroke="#a6a19b" vector-effect="non-scaling-stroke" d="
  M 360.35 561.71
  Q 357.80 560.66 355.06 560.75"
/>
<path stroke="#a6a19b" vector-effect="non-scaling-stroke" d="
  M 355.06 560.75
  L 347.01 558.66"
/>
<path stroke="#9d9c9a" vector-effect="non-scaling-stroke" d="
  M 347.01 558.66
  L 343.07 558.44"
/>
<path stroke="#9d9c9a" vector-effect="non-scaling-stroke" d="
  M 343.07 558.44
  Q 341.12 557.51 338.99 557.67
  Q 338.39 557.72 338.95 557.93
  Q 340.92 558.66 343.07 558.44"
/>
<path stroke="#9d9c9a" vector-effect="non-scaling-stroke" d="
  M 343.07 558.44
  Q 343.03 558.66 343.00 558.87"
/>
<path stroke="#8c867c" vector-effect="non-scaling-stroke" d="
  M 343.00 558.87
  L 331.30 556.94"
/>
<path stroke="#8a8782" vector-effect="non-scaling-stroke" d="
  M 331.30 556.94
  Q 331.74 556.86 332.17 556.77"
/>
<path stroke="#9d9c9a" vector-effect="non-scaling-stroke" d="
  M 332.17 556.77
  Q 325.69 554.79 320.88 554.67"
/>
<path stroke="#8a8782" vector-effect="non-scaling-stroke" d="
  M 320.88 554.67
  L 315.55 553.66"
/>
<path stroke="#9d9c9a" vector-effect="non-scaling-stroke" d="
  M 315.55 553.66
  Q 316.97 554.06 317.82 553.80
  Q 318.46 553.61 317.80 553.49
  L 313.14 552.65"
/>
<path stroke="#a6a19b" vector-effect="non-scaling-stroke" d="
  M 292.90 548.83
  Q 287.78 546.93 282.56 546.76"
/>
<path stroke="#686663" vector-effect="non-scaling-stroke" d="
  M 401.66 569.54
  L 399.60 569.41
  A 0.15 0.15 0.0 0 1 399.59 569.12
  C 400.83 568.95 401.87 568.23 402.91 568.04
  Q 410.36 566.70 417.77 565.13
  Q 417.90 565.10 417.95 565.19
  Q 417.97 565.24 417.98 565.30
  A 0.21 0.16 -0.8 0 1 417.76 565.47
  Q 417.57 565.47 417.42 565.50
  Q 416.87 565.61 417.45 565.63
  C 419.39 565.69 421.30 564.56 422.51 564.88
  Q 422.56 564.89 422.51 564.87
  L 422.18 564.68
  Q 421.96 564.57 422.20 564.52
  L 447.08 559.61"
/>
<path stroke="#8a8782" vector-effect="non-scaling-stroke" d="
  M 447.08 559.61
  Q 449.93 558.29 452.87 558.49"
/>
<path stroke="#686663" vector-effect="non-scaling-stroke" d="
  M 452.87 558.49
  Q 460.73 557.82 468.09 555.43"
/>
<path stroke="#8a8782" vector-effect="non-scaling-stroke" d="
  M 468.09 555.43
  L 503.66 549.30"
/>
<path stroke="#686663" vector-effect="non-scaling-stroke" d="
  M 503.66 549.30
  L 516.06 547.22"
/>
<path stroke="#8a8782" vector-effect="non-scaling-stroke" d="
  M 516.06 547.22
  L 533.56 543.99
  Q 534.06 543.90 534.37 543.50
  Q 534.84 542.89 535.79 543.16
  Q 536.21 543.28 536.54 542.99
  Q 537.72 541.97 537.63 540.22"
/>
<path stroke="#686663" vector-effect="non-scaling-stroke" d="
  M 551.11 519.53
  Q 553.43 519.26 553.24 516.21"
/>
<path stroke="#a6a19b" vector-effect="non-scaling-stroke" d="
  M 266.39 541.50
  Q 273.03 544.36 280.53 545.14
  Q 281.42 545.24 280.58 545.55
  Q 279.90 545.79 279.14 545.58
  Q 279.12 545.58 279.12 545.62
  Q 279.12 545.64 279.12 545.66
  Q 279.11 545.75 279.18 545.75
  Q 281.15 545.92 282.56 546.76"
/>
<path stroke="#84807c" vector-effect="non-scaling-stroke" d="
  M 282.56 546.76
  L 273.52 545.04"
/>
<path stroke="#a6a19b" vector-effect="non-scaling-stroke" d="
  M 273.52 545.04
  L 277.00 545.15
  Q 277.39 545.16 277.00 545.08
  L 268.79 543.45
  Q 268.22 543.34 268.57 543.81
  L 269.11 544.54"
/>
<path stroke="#84807c" vector-effect="non-scaling-stroke" d="
  M 269.11 544.54
  L 271.70 545.52"
/>
<path stroke="#706b64" vector-effect="non-scaling-stroke" d="
  M 271.70 545.52
  Q 274.28 546.89 277.00 546.64"
/>
<path stroke="#84807c" vector-effect="non-scaling-stroke" d="
  M 277.00 546.64
  L 286.75 548.00"
/>
<path stroke="#84807c" vector-effect="non-scaling-stroke" d="
  M 286.75 548.00
  Q 290.09 549.40 292.90 548.83"
/>
<path stroke="#a6a19b" vector-effect="non-scaling-stroke" d="
  M 292.90 548.83
  Q 294.23 548.39 295.87 549.24
  Q 296.33 549.48 296.84 549.41
  Q 299.05 549.13 300.96 550.24
  Q 301.37 550.47 301.84 550.50
  Q 307.65 550.80 313.14 552.65"
/>
<path stroke="#84807c" vector-effect="non-scaling-stroke" d="
  M 313.14 552.65
  L 305.93 551.52
  A 0.27 0.26 59.5 0 0 305.80 552.03
  L 307.01 552.49"
/>
<path stroke="#736a5f" vector-effect="non-scaling-stroke" d="
  M 307.01 552.49
  L 301.72 551.58"
/>
<path stroke="#84807c" vector-effect="non-scaling-stroke" d="
  M 301.72 551.58
  L 303.74 551.77
  Q 304.69 551.86 303.81 551.50
  Q 300.52 550.14 296.84 550.38"
/>
<path stroke="#706b64" vector-effect="non-scaling-stroke" d="
  M 296.84 550.38
  L 279.98 547.68"
/>
<path stroke="#736a5f" vector-effect="non-scaling-stroke" d="
  M 279.98 547.68
  L 275.65 547.06"
/>
<path stroke="#706b64" vector-effect="non-scaling-stroke" d="
  M 275.65 547.06
  Q 270.28 545.56 264.30 545.56"
/>
<path stroke="#84807c" vector-effect="non-scaling-stroke" d="
  M 261.32 542.27
  L 261.81 542.48
  Q 262.68 542.86 262.35 541.97
  Q 262.10 541.29 261.52 541.02
  Q 261.22 540.88 261.14 541.19
  Q 261.10 541.33 261.15 541.47"
/>
<path stroke="#84807c" vector-effect="non-scaling-stroke" d="
  M 514.09 547.06
  L 505.96 548.21"
/>
<path stroke="#84807c" vector-effect="non-scaling-stroke" d="
  M 347.01 558.66
  Q 347.74 559.62 349.00 559.61
  Q 351.27 559.57 353.06 560.77"
/>
<path stroke="#686663" vector-effect="non-scaling-stroke" d="
  M 315.55 553.66
  Q 315.17 553.92 314.16 553.96"
/>
<path stroke="#84807c" vector-effect="non-scaling-stroke" d="
  M 282.56 546.76
  L 286.75 548.00"
/>
<path stroke="#686663" vector-effect="non-scaling-stroke" d="
  M 277.00 546.64
  L 271.70 545.52"
/>
<path stroke="#686663" vector-effect="non-scaling-stroke" d="
  M 371.98 564.43
  Q 375.33 565.95 378.94 565.69"
/>
<path stroke="#574f46" vector-effect="non-scaling-stroke" d="
  M 381.97 567.80
  Q 377.37 566.47 372.62 566.14
  Q 372.62 566.13 372.62 566.15
  Q 372.61 566.16 372.63 566.16
  Q 374.51 566.19 375.53 566.98"
/>
<path stroke="#686663" vector-effect="non-scaling-stroke" d="
  M 320.88 554.67
  L 332.17 556.77"
/>
<path stroke="#84807c" vector-effect="non-scaling-stroke" d="
  M 292.90 548.83
  L 286.75 548.00"
/>
<path stroke="#84807c" vector-effect="non-scaling-stroke" d="
  M 355.06 560.75
  Q 353.97 560.44 353.06 560.77"
/>
<path stroke="#574f46" vector-effect="non-scaling-stroke" d="
  M 279.98 547.68
  Q 291.00 550.43 301.72 551.58"
/>
<path stroke="#6a655e" vector-effect="non-scaling-stroke" d="
  M 307.01 552.49
  L 314.16 553.96"
/>
<path stroke="#574f46" vector-effect="non-scaling-stroke" d="
  M 314.16 553.96
  Q 316.57 554.65 319.03 555.02
  C 323.17 555.64 326.94 557.01 331.30 556.94"
/>
<path stroke="#6a655e" vector-effect="non-scaling-stroke" d="
  M 343.00 558.87
  L 353.06 560.77"
/>
<path stroke="#6a655e" vector-effect="non-scaling-stroke" d="
  M 353.06 560.77
  Q 353.07 561.28 353.50 561.37
  Q 355.05 561.67 361.21 562.67"
/>
<path stroke="#574f46" vector-effect="non-scaling-stroke" d="
  M 361.21 562.67
  L 359.33 562.65
  A 0.33 0.33 0.0 0 0 359.27 563.31
  Q 365.57 564.34 371.57 565.73
  Q 372.43 565.93 372.02 565.83
  Q 366.43 564.47 360.65 563.91"
/>
<path stroke="#574f46" vector-effect="non-scaling-stroke" d="
  M 358.57 563.49
  Q 358.57 563.30 358.43 563.17
  Q 358.32 563.08 358.11 563.08
  Q 354.56 563.13 351.48 561.40
  Q 349.71 560.41 347.70 560.10
  Q 345.17 559.70 343.85 559.34
  Q 341.20 558.61 338.44 558.60
  C 336.76 558.60 335.10 557.79 333.19 558.21
  Q 332.43 558.38 333.20 558.53
  L 335.42 558.97"
/>
<path stroke="#574f46" vector-effect="non-scaling-stroke" d="
  M 330.78 558.27
  Q 329.33 557.25 327.28 557.52
  Q 327.08 557.55 327.22 557.69
  Q 327.41 557.88 327.46 558.07"
/>
<path stroke="#574f46" vector-effect="non-scaling-stroke" d="
  M 307.46 554.12
  Q 307.96 554.19 308.22 554.12
  Q 308.96 553.91 308.04 553.56
  Q 306.39 552.96 304.89 553.33"
/>
<path stroke="#686663" vector-effect="non-scaling-stroke" d="
  M 392.41 569.25
  Q 394.90 569.58 398.00 569.39
  Q 398.66 569.35 399.11 569.00
  Q 399.68 568.57 398.97 568.69
  Q 396.13 569.20 393.25 568.84
  A 0.05 0.04 46.6 0 1 393.25 568.75
  Q 393.64 568.75 394.12 568.71
  Q 394.13 568.71 394.13 568.66
  Q 394.13 568.64 394.14 568.61
  Q 394.15 568.53 394.07 568.52
  L 383.86 566.87"
/>
<path stroke="#84807c" vector-effect="non-scaling-stroke" d="
  M 386.98 566.59
  Q 389.74 567.80 392.86 567.71"
/>
<path stroke="#84807c" vector-effect="non-scaling-stroke" d="
  M 407.06 566.15
  Q 409.39 566.27 411.25 565.24"
/>
<path stroke="#84807c" vector-effect="non-scaling-stroke" d="
  M 355.06 560.75
  L 360.35 561.71"
/>
<path stroke="#84807c" vector-effect="non-scaling-stroke" d="
  M 360.35 561.71
  L 364.94 562.47"
/>
<path stroke="#686663" vector-effect="non-scaling-stroke" d="
  M 366.55 563.66
  L 361.21 562.67"
/>
<path stroke="#574f46" vector-effect="non-scaling-stroke" d="
  M 275.65 547.06
  L 273.07 547.14
  Q 272.78 547.15 272.99 547.26
  Q 273.09 547.32 273.25 547.26
  Q 273.46 547.20 273.63 547.23
  Q 274.34 547.37 273.59 547.45
  Q 272.57 547.57 271.43 547.17"
/>
<path stroke="#9d9c9a" vector-effect="non-scaling-stroke" d="
  M 273.52 545.04
  Q 271.57 544.27 269.11 544.54"
/>
<path stroke="#686663" vector-effect="non-scaling-stroke" d="
  M 296.84 550.38
  L 301.72 551.58"
/>
<path stroke="#2a2826" vector-effect="non-scaling-stroke" d="
  M 392.27 569.55
  Q 388.24 568.75 386.25 568.66
  Q 385.85 568.64 385.65 568.79
  Q 385.37 569.01 385.72 569.06
  Q 388.63 569.47 391.49 570.15
  Q 392.23 570.33 392.46 570.02
  Q 392.73 569.64 392.27 569.55"
/>
<path stroke="#3e3e3e" vector-effect="non-scaling-stroke" d="
  M 486.75 589.40
  C 470.81 587.40 480.76 615.44 490.81 606.34"
/>
<path stroke="#808080" vector-effect="non-scaling-stroke" d="
  M 490.81 606.34
  Q 498.71 603.61 498.54 594.95
  C 498.41 588.44 491.60 587.88 486.75 589.40"
/>
<path stroke="#bdbdbd" vector-effect="non-scaling-stroke" d="
  M 490.81 606.34
  Q 484.67 603.98 483.60 596.98
  Q 482.82 591.91 486.75 589.40"
/>
<path stroke="#3e3e3e" vector-effect="non-scaling-stroke" d="
  M 442.86 590.19
  L 440.56 590.62
  Q 440.06 590.71 439.70 591.08
  C 428.32 602.87 420.14 614.08 416.03 630.25
  C 412.73 643.24 412.62 653.88 412.31 666.17
  C 412.27 668.03 411.87 669.73 411.39 671.50
  Q 411.26 672.00 411.78 672.00
  L 426.48 672.00
  Q 427.03 672.00 426.83 671.49
  L 423.57 663.10"
/>
<path stroke="#808080" vector-effect="non-scaling-stroke" d="
  M 423.57 663.10
  L 430.70 662.98
  Q 431.29 662.98 431.06 662.44
  Q 423.84 645.56 428.30 627.02"
/>
<path stroke="#3e3e3e" vector-effect="non-scaling-stroke" d="
  M 428.30 627.02
  Q 442.03 630.12 447.36 642.71
  Q 452.83 655.60 451.16 671.38
  Q 451.10 672.00 451.72 672.00
  L 468.74 672.00
  Q 469.30 672.00 469.08 671.48
  L 465.60 663.10"
/>
<path stroke="#808080" vector-effect="non-scaling-stroke" d="
  M 465.60 663.10
  L 468.64 662.99
  Q 469.07 662.98 468.91 662.57
  Q 464.66 651.61 462.18 637.38
  Q 457.96 613.10 456.33 599.49
  Q 455.67 594.00 457.60 590.17
  Q 457.78 589.82 457.39 589.83
  L 442.86 590.19"
/>
<path stroke="#bdbdbd" vector-effect="non-scaling-stroke" d="
  M 465.60 663.10
  L 453.67 663.01
  Q 453.20 663.00 453.23 662.54
  Q 453.85 653.97 451.99 644.27
  C 449.98 633.71 441.94 622.02 429.97 622.90
  Q 429.42 622.94 429.28 623.47
  L 428.30 627.02"
/>
<path stroke="#bdbdbd" vector-effect="non-scaling-stroke" d="
  M 423.57 663.10
  L 417.87 662.98
  Q 417.37 662.97 417.45 662.48
  C 417.87 659.84 418.28 657.28 418.24 654.50
  C 417.85 629.50 424.02 607.96 442.86 590.19"
/>
<path stroke="#3e3e3e" vector-effect="non-scaling-stroke" d="
  M 482.66 618.27
  L 475.82 618.32
  Q 475.21 618.33 475.58 618.82
  Q 479.73 624.44 480.30 632.25
  Q 481.81 652.99 478.73 671.61
  Q 478.66 672.00 479.06 672.00
  L 493.47 672.00
  Q 493.94 672.00 493.85 671.53
  L 492.42 664.02"
/>
<path stroke="#808080" vector-effect="non-scaling-stroke" d="
  M 492.42 664.02
  L 496.90 663.98
  Q 497.48 663.97 497.39 663.40
  Q 493.50 639.51 497.37 615.62
  Q 497.45 615.13 496.95 615.13
  L 481.23 615.13
  Q 480.50 615.13 480.91 615.73
  L 482.66 618.27"
/>
<path stroke="#bdbdbd" vector-effect="non-scaling-stroke" d="
  M 492.42 664.02
  L 484.23 663.94
  Q 483.68 663.93 483.78 663.38
  Q 487.21 643.87 484.79 624.35
  C 484.53 622.24 483.58 620.10 482.66 618.27"
/>
<path stroke="#3e3e3e" vector-effect="non-scaling-stroke" d="
  M 301.39 617.73
  Q 299.21 618.56 296.86 618.19
  Q 296.32 618.11 296.59 618.58
  Q 306.82 636.58 313.45 658.76
  Q 315.51 665.66 313.25 671.58
  Q 313.09 672.00 313.54 672.00
  L 331.26 672.00
  Q 331.85 672.00 331.68 671.44
  L 330.38 667.07"
/>
<path stroke="#808080" vector-effect="non-scaling-stroke" d="
  M 330.38 667.07
  L 333.21 666.94
  Q 333.78 666.92 333.63 666.37
  Q 331.86 659.94 334.23 652.76
  C 338.52 639.75 342.54 628.53 349.76 618.17
  Q 350.12 617.65 349.48 617.65
  L 332.58 617.61"
/>
<path stroke="#3e3e3e" vector-effect="non-scaling-stroke" d="
  M 332.58 617.61
  L 330.74 618.50
  Q 330.36 618.68 330.60 619.02
  Q 334.15 624.08 332.98 629.75
  Q 330.92 639.74 326.00 653.66"
/>
<path stroke="#808080" vector-effect="non-scaling-stroke" d="
  M 326.00 653.66
  Q 320.39 636.02 318.27 626.00
  Q 317.59 622.79 318.76 618.20
  Q 318.89 617.67 318.34 617.67
  L 301.39 617.73"
/>
<path stroke="#bdbdbd" vector-effect="non-scaling-stroke" d="
  M 326.00 653.66
  L 326.47 655.28
  Q 326.72 656.15 327.02 655.30
  Q 330.03 646.66 334.30 631.24
  Q 336.39 623.73 332.58 617.61"
/>
<path stroke="#bdbdbd" vector-effect="non-scaling-stroke" d="
  M 330.38 667.07
  L 317.30 666.99
  Q 316.75 666.99 316.93 666.47
  C 319.20 659.98 317.56 656.33 315.16 648.77
  Q 309.98 632.42 301.39 617.73"
/>
<path stroke="#3e3e3e" vector-effect="non-scaling-stroke" d="
  M 358.40 617.78
  L 352.19 618.17
  Q 351.77 618.20 351.98 618.56
  Q 360.50 633.52 367.50 654.53
  C 369.53 660.61 371.14 665.92 368.42 671.45
  Q 368.14 672.00 368.76 672.00
  L 386.54 672.00
  Q 387.13 672.00 386.94 671.44
  L 385.50 667.10"
/>
<path stroke="#808080" vector-effect="non-scaling-stroke" d="
  M 385.50 667.10
  L 390.26 666.98
  Q 390.80 666.97 390.66 666.45
  Q 388.88 659.99 391.12 653.03
  C 395.25 640.26 399.86 628.08 406.70 618.10
  Q 407.01 617.66 406.47 617.66
  L 389.56 617.63"
/>
<path stroke="#3e3e3e" vector-effect="non-scaling-stroke" d="
  M 389.56 617.63
  Q 388.30 618.25 386.31 618.30
  Q 385.67 618.31 386.01 618.86
  Q 389.79 624.90 387.77 632.24
  Q 383.91 646.25 382.30 651.28"
/>
<path stroke="#808080" vector-effect="non-scaling-stroke" d="
  M 382.30 651.28
  Q 378.52 639.35 375.71 627.74
  Q 374.57 623.01 375.69 618.20
  Q 375.82 617.67 375.28 617.68
  L 358.40 617.78"
/>
<path stroke="#bdbdbd" vector-effect="non-scaling-stroke" d="
  M 382.30 651.28
  L 383.43 655.53
  A 0.27 0.27 0.0 0 0 383.94 655.54
  Q 388.39 642.57 391.72 629.74
  Q 393.35 623.50 389.56 617.63"
/>
<path stroke="#bdbdbd" vector-effect="non-scaling-stroke" d="
  M 385.50 667.10
  L 374.27 667.01
  Q 373.76 667.00 373.93 666.53
  C 376.28 659.67 374.45 655.94 371.81 647.73
  Q 366.74 631.96 358.40 617.78"
/>
<path stroke="#8c867c" vector-effect="non-scaling-stroke" d="
  M 419.88 130.62
  C 483.15 136.73 539.13 172.38 580.54 219.67
  A 0.43 0.43 0.0 0 0 581.20 219.66
  L 602.14 193.85
  Q 602.54 193.36 602.13 192.88
  C 537.12 116.54 434.24 70.85 334.10 99.84
  C 278.19 116.03 230.49 151.26 191.03 193.11
  A 0.41 0.41 0.0 0 0 191.05 193.69
  L 213.90 215.19
  Q 214.34 215.60 214.76 215.16
  C 266.45 159.96 343.29 123.23 419.88 130.62"
/>
<path stroke="#605f5c" vector-effect="non-scaling-stroke" d="
  M 273.06 171.88
  L 262.05 179.82"
/>
<path stroke="#9d9c9a" vector-effect="non-scaling-stroke" d="
  M 262.05 179.82
  Q 235.98 197.12 215.54 220.47
  A 0.86 0.86 0.0 0 0 215.63 221.68
  L 219.23 224.81
  Q 219.53 225.07 219.72 225.44
  Q 220.56 227.10 221.59 226.77"
/>
<path stroke="#605f5c" vector-effect="non-scaling-stroke" d="
  M 221.59 226.77
  C 197.71 264.82 186.35 308.65 189.46 353.48
  C 194.39 424.42 235.52 488.42 297.26 522.18
  C 412.63 585.26 555.99 528.05 596.89 403.59
  Q 599.95 394.27 602.05 384.29
  Q 619.63 300.62 574.78 227.19"
/>
<path stroke="#9d9c9a" vector-effect="non-scaling-stroke" d="
  M 574.78 227.19
  Q 575.71 227.08 576.04 226.40
  Q 576.19 226.08 576.48 225.89
  L 578.74 224.48
  Q 579.32 224.13 578.87 223.62
  Q 566.20 209.02 551.22 196.29"
/>
<path stroke="#605f5c" vector-effect="non-scaling-stroke" d="
  M 551.22 196.29
  L 538.48 184.81"
/>
<path stroke="#9d9c9a" vector-effect="non-scaling-stroke" d="
  M 538.48 184.81
  Q 535.36 181.29 531.71 178.29
  Q 512.76 162.73 490.66 152.38
  Q 481.91 148.28 472.22 144.67
  Q 418.56 124.69 361.28 135.31
  Q 322.01 142.60 288.38 161.15
  Q 281.34 165.04 273.06 171.88"
/>
<path stroke="#3e3e3e" vector-effect="non-scaling-stroke" d="
  M 538.48 184.81
  Q 523.65 174.02 519.69 171.36
  C 472.94 139.97 417.98 126.81 362.13 137.17
  Q 322.53 144.51 287.14 164.22
  Q 280.31 168.03 273.06 171.88"
/>
<path stroke="#3e3e3e" vector-effect="non-scaling-stroke" d="
  M 551.22 196.29
  Q 564.16 211.37 574.78 227.19"
/>
<path stroke="#3e3e3e" vector-effect="non-scaling-stroke" d="
  M 221.59 226.77
  Q 238.36 200.98 262.05 179.82"
/>
<path stroke="#a6a19b" vector-effect="non-scaling-stroke" d="
  M 587.23 218.49
  Q 586.83 218.89 586.70 219.28
  Q 586.53 219.77 587.02 219.93
  Q 590.68 221.13 592.51 224.75
  Q 592.84 225.42 593.52 224.93"
/>
<path stroke="#a6a19b" vector-effect="non-scaling-stroke" d="
  M 593.52 224.93
  Q 594.61 226.77 596.30 227.28"
/>
<path stroke="#9d9c9a" vector-effect="non-scaling-stroke" d="
  M 596.30 227.28
  L 598.74 230.30
  A 0.63 0.63 0.0 0 0 599.83 229.70
  L 593.71 211.95
  A 0.59 0.59 0.0 0 0 592.69 211.77
  L 587.23 218.49"
/>
<path stroke="#84807c" vector-effect="non-scaling-stroke" d="
  M 596.30 227.28
  Q 595.22 225.32 593.52 224.93"
/>
<path stroke="#84807c" vector-effect="non-scaling-stroke" d="
  M 593.52 224.93
  Q 591.04 221.01 587.23 218.49"
/>
<path stroke="#9d9c9a" vector-effect="non-scaling-stroke" d="
  M 201.62 230.15
  Q 207.24 225.22 211.45 219.01
  Q 211.72 218.61 211.37 218.28
  L 206.16 213.24
  A 1.04 1.04 0.0 0 0 204.46 213.63
  L 198.32 230.55
  A 1.25 1.25 0.0 0 0 200.09 232.08
  Q 200.84 231.68 201.09 230.94
  Q 201.25 230.47 201.62 230.15"
/>
<path stroke="#605f5c" vector-effect="non-scaling-stroke" d="
  M 225.85 232.40
  Q 204.77 267.29 198.53 305.82
  Q 183.56 398.29 241.85 468.30
  C 286.23 521.62 356.70 548.81 425.29 539.72
  C 492.77 530.79 551.02 486.51 580.87 425.92
  C 611.23 364.27 606.55 290.10 571.56 231.17"
/>
<path stroke="#46433f" vector-effect="non-scaling-stroke" d="
  M 571.56 231.17
  L 570.51 229.53"
/>
<path stroke="#3e3e3e" vector-effect="non-scaling-stroke" d="
  M 570.51 229.53
  Q 546.00 190.19 507.91 166.83
  C 447.67 129.88 368.16 127.07 305.21 158.94
  Q 255.69 184.01 225.85 232.40"
/>
<path stroke="#84807c" vector-effect="non-scaling-stroke" d="
  M 570.51 229.53
  Q 567.76 231.39 567.64 234.20
  Q 567.62 234.65 567.22 234.85
  L 562.03 237.48
  A 1.04 1.04 0.0 0 1 560.75 237.21
  Q 553.39 228.27 544.45 221.03
  Q 538.32 216.07 534.94 213.05
  Q 530.35 208.95 525.45 205.03"
/>
<path stroke="#686663" vector-effect="non-scaling-stroke" d="
  M 525.45 205.03
  Q 533.15 210.49 540.51 216.34
  Q 545.13 220.00 550.94 225.78
  Q 556.05 230.86 561.34 235.78
  Q 561.86 236.25 562.45 235.88
  L 565.17 234.13
  Q 565.45 233.96 565.76 233.87
  Q 566.42 233.69 566.65 233.06
  Q 566.90 232.40 566.43 231.50
  Q 565.73 230.16 564.07 227.68
  Q 525.27 169.60 459.90 149.68
  C 417.28 136.68 367.96 137.99 326.31 153.99
  Q 265.34 177.40 229.69 233.63
  Q 228.62 235.33 230.57 235.81
  Q 231.06 235.94 232.09 234.62
  Q 233.01 233.43 234.37 233.61
  Q 234.79 233.66 235.10 233.37
  L 236.05 232.47
  A 0.13 0.13 0.0 0 1 236.24 232.64
  L 235.86 233.08
  Q 235.15 233.90 236.02 233.26
  Q 241.59 229.13 246.60 224.81
  Q 248.13 223.48 251.12 221.24
  C 254.12 218.98 256.38 216.34 259.69 214.34
  C 261.92 212.99 264.37 210.38 266.90 209.91"
/>
<path stroke="#84807c" vector-effect="non-scaling-stroke" d="
  M 266.90 209.91
  L 267.54 210.17
  C 264.98 212.36 261.93 214.41 259.54 216.36
  Q 250.61 223.67 247.43 225.91
  Q 240.29 230.94 234.29 237.30
  Q 232.88 238.79 229.99 238.26
  Q 229.58 238.19 229.52 237.78
  L 229.29 236.22
  A 0.40 0.40 0.0 0 0 228.74 235.91
  Q 228.21 236.14 227.88 236.60"
/>
<path stroke="#9d9c9a" vector-effect="non-scaling-stroke" d="
  M 227.88 236.60
  L 225.85 232.40"
/>
<path stroke="#706b64" vector-effect="non-scaling-stroke" d="
  M 525.45 205.03
  Q 519.81 201.58 514.39 197.52
  C 512.06 195.78 509.21 194.63 506.69 192.99
  Q 501.62 189.68 501.07 189.36
  Q 477.67 176.02 450.85 167.18
  Q 446.74 165.83 444.56 165.46"
/>
<path stroke="#686663" vector-effect="non-scaling-stroke" d="
  M 444.56 165.46
  Q 436.85 162.60 428.76 161.22
  C 425.23 160.61 420.90 159.25 416.76 159.03
  Q 415.52 158.96 413.04 158.53
  Q 411.41 158.25 409.24 158.20
  C 395.55 157.88 382.28 157.92 369.98 161.43"
/>
<path stroke="#706b64" vector-effect="non-scaling-stroke" d="
  M 369.98 161.43
  Q 329.31 170.34 293.83 192.55
  Q 287.63 196.42 281.51 200.21"
/>
<path stroke="#686663" vector-effect="non-scaling-stroke" d="
  M 281.51 200.21
  L 277.38 202.82
  Q 276.97 203.08 276.51 203.16
  Q 274.14 203.60 273.15 205.74"
/>
<path stroke="#706b64" vector-effect="non-scaling-stroke" d="
  M 273.15 205.74
  Q 269.76 206.95 266.90 209.91"
/>
<path stroke="#a6a19b" vector-effect="non-scaling-stroke" d="
  M 571.56 231.17
  Q 570.37 232.04 569.71 232.00
  A 1.41 1.41 0.0 0 0 568.41 234.13
  C 604.92 295.51 606.92 372.38 571.71 434.74
  C 536.37 497.32 469.57 538.39 396.76 537.49
  C 328.65 536.65 264.58 500.89 228.34 443.06
  C 188.73 379.84 191.17 300.54 227.88 236.60"
/>
<path stroke="#84807c" vector-effect="non-scaling-stroke" d="
  M 267.54 210.17
  Q 269.93 209.27 270.07 208.54
  Q 270.15 208.11 269.75 208.28
  Q 268.21 208.92 267.54 210.17"
/>
<path stroke="#84807c" vector-effect="non-scaling-stroke" d="
  M 273.15 205.74
  Q 277.90 203.65 281.51 200.21"
/>
<path stroke="#84807c" vector-effect="non-scaling-stroke" d="
  M 444.56 165.46
  Q 436.09 163.75 427.70 161.99
  C 424.00 161.22 420.25 161.39 416.52 160.58
  C 400.94 157.20 387.44 159.00 369.98 161.43"
/>
<path stroke="#706b64" vector-effect="non-scaling-stroke" d="
  M 478.34 462.86
  C 553.65 415.87 568.70 309.90 510.53 242.97
  C 452.25 175.93 346.04 173.66 286.35 240.11
  C 226.23 307.03 240.15 414.47 316.75 462.49
  C 365.31 492.93 429.56 493.30 478.34 462.86"
/>
<path stroke="#2a2826" vector-effect="non-scaling-stroke" d="
  M 503.09 435.48
  C 553.53 379.81 553.80 296.19 502.27 241.23
  C 440.95 175.83 329.53 182.67 278.79 258.01
  C 231.91 327.63 253.84 423.63 328.32 463.42
  C 384.57 493.48 459.25 483.87 503.09 435.48"
/>
<path stroke="#1d3c58" vector-effect="non-scaling-stroke" d="
  M 526.02 338.50
  A 128.52 128.52 0.0 0 0 397.50 209.98
  A 128.52 128.52 0.0 0 0 268.98 338.50
  A 128.52 128.52 0.0 0 0 397.50 467.02
  A 128.52 128.52 0.0 0 0 526.02 338.50"
/>
<path stroke="#1d3c58" vector-effect="non-scaling-stroke" d="
  M 490.88 338.49
  C 473.32 315.58 446.60 289.34 416.74 284.82
  Q 409.31 283.70 401.87 282.53
  Q 398.81 282.05 395.62 282.54
  C 390.17 283.38 384.31 283.88 379.51 285.13
  C 349.48 292.95 322.60 314.97 303.06 338.47
  Q 302.71 338.89 303.07 339.31
  C 320.15 359.68 343.10 378.69 368.75 388.65
  Q 376.51 391.66 384.72 392.65
  Q 388.12 393.06 390.21 393.48
  C 393.64 394.19 396.72 395.28 400.32 394.52
  Q 405.31 393.47 412.05 392.80
  C 445.14 389.52 470.91 364.31 490.87 339.39
  Q 491.23 338.94 490.88 338.49"
/>
<path stroke="#9dbcd7" vector-effect="non-scaling-stroke" d="
  M 355.9874 412.1703
  A 20.99 20.49 -0.9 0 0 334.6782 392.0125
  A 20.99 20.49 -0.9 0 0 314.0126 412.8297
  A 20.99 20.49 -0.9 0 0 335.3218 432.9875
  A 20.99 20.49 -0.9 0 0 355.9874 412.1703"
/>
<path stroke="#7a6132" vector-effect="non-scaling-stroke" d="
  M 401.14 392.54
  Q 407.34 391.76 412.91 389.09
  C 430.04 380.88 446.16 366.86 449.39 347.11
  C 452.98 325.20 440.06 301.72 421.67 290.22
  C 415.50 286.36 408.70 285.22 401.50 284.42
  Q 398.41 284.08 394.02 284.67
  C 387.18 285.60 381.65 285.86 375.08 289.87
  C 358.64 299.88 346.16 319.42 345.94 338.50
  C 345.74 354.74 353.74 368.66 366.08 378.48
  Q 373.86 384.67 380.78 388.07
  Q 388.78 391.99 398.02 392.63
  Q 399.56 392.74 401.14 392.54"
/>
<path stroke="#808080" vector-effect="non-scaling-stroke" d="
  M 451.14 326.45
  C 459.02 355.10 441.54 377.05 417.56 389.66
  A 0.20 0.20 0.0 0 0 417.69 390.03
  C 447.04 384.47 470.21 361.96 488.18 339.50
  Q 488.70 338.85 488.18 338.20
  C 471.50 317.15 449.83 295.75 423.15 288.21
  Q 422.02 287.90 423.01 288.53
  Q 444.50 302.31 451.14 326.45"
/>
<path stroke="#808080" vector-effect="non-scaling-stroke" d="
  M 305.67 339.07
  C 323.41 360.64 350.55 382.47 378.13 389.49
  A 0.13 0.13 0.0 0 0 378.23 389.25
  C 360.40 379.27 345.62 365.08 343.74 343.67
  C 341.94 323.17 354.28 302.18 370.52 290.46
  Q 372.25 289.21 370.26 289.97
  C 345.15 299.59 323.05 318.00 305.68 338.30
  Q 305.35 338.68 305.67 339.07"
/>
<path stroke="#7a6132" vector-effect="non-scaling-stroke" d="
  M 397.8397 349.9689
  A 11.48 11.00 90.8 0 0 408.9989 338.6436
  A 11.48 11.00 90.8 0 0 398.1603 327.0111
  A 11.48 11.00 90.8 0 0 387.0011 338.3364
  A 11.48 11.00 90.8 0 0 397.8397 349.9689"
/>
<path stroke="#2a2826" vector-effect="non-scaling-stroke" d="
  M 647.77 374.48
  Q 646.16 375.83 645.66 377.95
  Q 645.46 378.77 646.07 378.18
  Q 647.53 376.74 647.97 374.60
  A 0.13 0.12 75.4 0 0 647.77 374.48"
/>
<path stroke="#2a2826" vector-effect="non-scaling-stroke" d="
  M 543.00 537.40
  L 544.59 534.10
  A 0.29 0.29 0.0 0 0 544.09 533.82
  Q 543.06 535.37 542.41 537.15
  A 0.32 0.32 0.0 0 0 543.00 537.40"
/>
<path stroke="#574f46" vector-effect="non-scaling-stroke" d="
  M 508.84 549.49
  L 502.75 550.75
  Q 502.64 550.77 502.63 550.66
  Q 502.52 549.74 502.63 550.69
  Q 502.64 550.78 502.74 550.77
  Q 510.42 549.96 518.02 548.60
  Q 518.35 548.54 518.53 548.44
  Q 519.79 547.70 518.25 548.12
  Q 514.93 549.01 511.54 549.15
  Q 510.17 549.21 508.84 549.49"
/>
<path stroke="#574f46" vector-effect="non-scaling-stroke" d="
  M 464.8406 558.1422
  A 3.12 0.22 -6.4 0 0 461.7155 558.2714
  A 3.12 0.22 -6.4 0 0 458.6394 558.8378
  A 3.12 0.22 -6.4 0 0 461.7645 558.7086
  A 3.12 0.22 -6.4 0 0 464.8406 558.1422"
/>
<path stroke="#574f46" vector-effect="non-scaling-stroke" d="
  M 410.04 567.75
  Q 410.30 567.82 410.52 567.72
  A 0.23 0.23 0.0 0 0 410.38 567.29
  L 406.51 568.11
  Q 406.05 568.20 406.52 568.17
  Q 408.13 568.06 409.69 567.74
  A 0.93 0.83 -40.1 0 1 410.04 567.75"
/>
<path stroke="#a6a19b" vector-effect="non-scaling-stroke" d="
  M 318.75 554.15
  L 322.18 554.59
  Q 323.37 554.74 322.30 554.18
  Q 320.66 553.33 318.74 553.66
  A 0.25 0.25 0.0 0 0 318.75 554.15"
/>
<path stroke="#a6a19b" vector-effect="non-scaling-stroke" d="
  M 328.58 555.64
  L 331.94 556.05
  A 0.22 0.22 0.0 0 0 332.00 555.61
  L 327.96 555.02
  Q 327.27 554.92 327.83 555.34
  Q 327.94 555.42 328.05 555.48
  Q 328.30 555.61 328.58 555.64"
/>
<path stroke="#a6a19b" vector-effect="non-scaling-stroke" d="
  M 386.43 566.70
  L 386.54 566.17
  A 0.17 0.17 0.0 0 0 386.41 565.97
  L 386.22 565.93
  A 7.26 0.29 11.3 0 0 379.04 564.80
  L 378.98 565.09
  A 7.26 0.29 11.3 0 0 386.05 566.80
  L 386.23 566.83
  A 0.17 0.17 0.0 0 0 386.43 566.70"
/>
<path stroke="#574f46" vector-effect="non-scaling-stroke" d="
  M 339.28 559.51
  Q 343.99 560.57 349.39 561.48
  A 0.15 0.15 0.0 0 0 349.49 561.20
  Q 348.65 560.73 347.53 560.61
  Q 342.43 560.05 338.01 559.18
  A 0.03 0.03 0.0 0 0 338.00 559.23
  Q 338.33 559.30 339.28 559.51"
/>
<path stroke="#808080" vector-effect="non-scaling-stroke" d="
  M 440.94 602.70
  Q 435.07 609.18 431.84 617.26
  Q 431.60 617.84 432.22 617.72
  Q 438.29 616.55 444.14 619.38"
/>
<path stroke="#bdbdbd" vector-effect="non-scaling-stroke" d="
  M 444.14 619.38
  L 447.60 622.18
  Q 448.03 622.53 447.93 621.98
  L 443.72 600.20
  Q 443.56 599.36 443.03 600.03
  L 440.94 602.70"
/>
<path stroke="#3e3e3e" vector-effect="non-scaling-stroke" d="
  M 444.14 619.38
  L 440.94 602.70"
/>
</g>
<path fill="#000000" d="
  M 0.00 0.00
  L 800.00 0.00
  L 800.00 800.00
  L 0.00 800.00
  L 0.00 0.00
  Z
  M 203.34 210.71
  L 193.54 238.12
  L 148.02 364.20
  Q 147.84 364.70 148.10 365.16
  L 149.49 367.60
  Q 147.74 369.81 151.65 374.54
  L 211.35 466.50
  A 16.95 0.01 57.0 0 0 215.46 472.85
  Q 235.56 504.01 258.25 538.91
  Q 258.31 538.99 259.70 541.72
  Q 260.89 544.06 263.54 545.21
  Q 264.14 545.00 264.30 545.56
  Q 264.30 546.07 264.75 546.12
  Q 268.19 546.53 271.43 547.17
  Q 272.14 547.92 273.30 547.84
  Q 272.98 547.80 272.75 547.93
  Q 272.37 548.15 272.80 548.22
  L 304.89 553.33
  Q 305.62 554.07 307.46 554.12
  L 327.46 558.07
  L 330.78 558.27
  Q 332.93 559.21 335.42 558.97
  Q 335.20 559.59 335.74 559.68
  Q 350.44 562.31 355.50 563.39
  Q 357.32 563.78 358.57 563.49
  L 360.65 563.91
  L 375.53 566.98
  L 381.97 567.80
  L 392.41 569.25
  Q 396.51 570.54 401.66 569.54
  L 415.44 567.38
  Q 415.72 567.33 415.45 567.22
  Q 415.36 567.19 415.30 567.48
  Q 415.24 567.79 415.55 567.75
  Q 421.70 566.99 427.84 566.13
  Q 430.51 565.76 434.60 564.86
  C 440.21 563.62 447.67 562.65 451.58 561.91
  Q 465.03 559.33 478.48 556.75
  C 486.47 555.22 494.59 554.25 502.44 552.55
  Q 516.27 549.56 534.25 546.62
  Q 539.69 545.73 541.01 539.98
  Q 541.39 538.35 544.23 536.59
  A 1.26 1.25 81.9 0 0 544.78 535.85
  C 545.36 533.51 545.70 531.54 547.01 529.47
  Q 553.42 519.31 560.03 509.27
  C 562.72 505.20 566.62 498.67 570.29 493.59
  Q 572.52 490.50 574.50 487.11
  Q 576.44 483.77 578.57 480.55
  Q 587.45 467.15 596.16 453.65
  Q 619.22 417.93 642.27 382.21
  Q 643.19 380.79 645.18 379.27
  Q 647.00 377.88 648.32 376.02
  C 649.77 373.98 649.82 371.14 650.33 368.64
  Q 650.40 368.28 650.07 368.15
  Q 649.67 367.99 649.42 367.69
  L 650.93 365.27
  Q 651.21 364.82 651.03 364.31
  L 594.95 209.02
  Q 595.36 208.13 595.80 207.81
  L 607.28 193.73
  A 0.68 0.68 0.0 0 0 607.28 192.87
  Q 558.58 134.35 488.73 105.52
  C 414.36 74.81 334.66 83.37 266.71 125.41
  Q 222.40 152.82 185.66 193.29
  Q 185.34 193.64 185.69 193.97
  L 203.34 210.71
  Z
  M 392.27 569.55
  Q 388.24 568.75 386.25 568.66
  Q 385.85 568.64 385.65 568.79
  Q 385.37 569.01 385.72 569.06
  Q 388.63 569.47 391.49 570.15
  Q 392.23 570.33 392.46 570.02
  Q 392.73 569.64 392.27 569.55
  Z
  M 486.75 589.40
  C 470.81 587.40 480.76 615.44 490.81 606.34
  Q 498.71 603.61 498.54 594.95
  C 498.41 588.44 491.60 587.88 486.75 589.40
  Z
  M 442.86 590.19
  L 440.56 590.62
  Q 440.06 590.71 439.70 591.08
  C 428.32 602.87 420.14 614.08 416.03 630.25
  C 412.73 643.24 412.62 653.88 412.31 666.17
  C 412.27 668.03 411.87 669.73 411.39 671.50
  Q 411.26 672.00 411.78 672.00
  L 426.48 672.00
  Q 427.03 672.00 426.83 671.49
  L 423.57 663.10
  L 430.70 662.98
  Q 431.29 662.98 431.06 662.44
  Q 423.84 645.56 428.30 627.02
  Q 442.03 630.12 447.36 642.71
  Q 452.83 655.60 451.16 671.38
  Q 451.10 672.00 451.72 672.00
  L 468.74 672.00
  Q 469.30 672.00 469.08 671.48
  L 465.60 663.10
  L 468.64 662.99
  Q 469.07 662.98 468.91 662.57
  Q 464.66 651.61 462.18 637.38
  Q 457.96 613.10 456.33 599.49
  Q 455.67 594.00 457.60 590.17
  Q 457.78 589.82 457.39 589.83
  L 442.86 590.19
  Z
  M 482.66 618.27
  L 475.82 618.32
  Q 475.21 618.33 475.58 618.82
  Q 479.73 624.44 480.30 632.25
  Q 481.81 652.99 478.73 671.61
  Q 478.66 672.00 479.06 672.00
  L 493.47 672.00
  Q 493.94 672.00 493.85 671.53
  L 492.42 664.02
  L 496.90 663.98
  Q 497.48 663.97 497.39 663.40
  Q 493.50 639.51 497.37 615.62
  Q 497.45 615.13 496.95 615.13
  L 481.23 615.13
  Q 480.50 615.13 480.91 615.73
  L 482.66 618.27
  Z
  M 301.39 617.73
  Q 299.21 618.56 296.86 618.19
  Q 296.32 618.11 296.59 618.58
  Q 306.82 636.58 313.45 658.76
  Q 315.51 665.66 313.25 671.58
  Q 313.09 672.00 313.54 672.00
  L 331.26 672.00
  Q 331.85 672.00 331.68 671.44
  L 330.38 667.07
  L 333.21 666.94
  Q 333.78 666.92 333.63 666.37
  Q 331.86 659.94 334.23 652.76
  C 338.52 639.75 342.54 628.53 349.76 618.17
  Q 350.12 617.65 349.48 617.65
  L 332.58 617.61
  L 330.74 618.50
  Q 330.36 618.68 330.60 619.02
  Q 334.15 624.08 332.98 629.75
  Q 330.92 639.74 326.00 653.66
  Q 320.39 636.02 318.27 626.00
  Q 317.59 622.79 318.76 618.20
  Q 318.89 617.67 318.34 617.67
  L 301.39 617.73
  Z
  M 358.40 617.78
  L 352.19 618.17
  Q 351.77 618.20 351.98 618.56
  Q 360.50 633.52 367.50 654.53
  C 369.53 660.61 371.14 665.92 368.42 671.45
  Q 368.14 672.00 368.76 672.00
  L 386.54 672.00
  Q 387.13 672.00 386.94 671.44
  L 385.50 667.10
  L 390.26 666.98
  Q 390.80 666.97 390.66 666.45
  Q 388.88 659.99 391.12 653.03
  C 395.25 640.26 399.86 628.08 406.70 618.10
  Q 407.01 617.66 406.47 617.66
  L 389.56 617.63
  Q 388.30 618.25 386.31 618.30
  Q 385.67 618.31 386.01 618.86
  Q 389.79 624.90 387.77 632.24
  Q 383.91 646.25 382.30 651.28
  Q 378.52 639.35 375.71 627.74
  Q 374.57 623.01 375.69 618.20
  Q 375.82 617.67 375.28 617.68
  L 358.40 617.78
  Z"
/>
<path fill="#7b7b7b" d="
  M 595.80 207.81
  Q 595.37 207.27 595.14 207.27
  A 0.69 0.64 19.2 0 1 594.58 206.21
  L 604.39 194.11
  Q 605.03 193.31 604.37 192.53
  Q 555.70 135.22 486.95 107.01
  Q 477.42 103.10 468.15 100.22
  Q 385.66 74.61 306.17 107.61
  C 261.40 126.19 221.17 157.84 188.43 193.17
  A 0.43 0.42 43.6 0 0 188.45 193.78
  L 203.67 208.14
  Q 204.08 208.54 203.90 209.08
  L 203.34 210.71
  L 185.69 193.97
  Q 185.34 193.64 185.66 193.29
  Q 222.40 152.82 266.71 125.41
  C 334.66 83.37 414.36 74.81 488.73 105.52
  Q 558.58 134.35 607.28 192.87
  A 0.68 0.68 0.0 0 1 607.28 193.73
  L 595.80 207.81
  Z"
/>
<path fill="#bfbdb8" d="
  M 595.80 207.81
  Q 595.36 208.13 594.95 209.02
  Q 594.64 207.66 594.12 207.59
  A 1.37 1.09 -29.6 0 0 593.20 209.89
  Q 593.50 209.95 593.75 210.07
  A 1.39 1.38 4.3 0 1 594.39 210.81
  Q 596.16 215.79 598.03 220.73
  C 600.71 227.83 602.55 235.90 604.87 242.33
  Q 626.83 303.17 648.71 363.78
  A 1.67 1.66 51.7 0 1 648.54 365.27
  L 536.79 537.80
  A 2.59 2.59 0.0 0 1 535.07 538.95
  Q 466.92 551.15 398.50 563.50
  Q 395.74 564.00 392.98 563.48
  Q 328.21 551.23 263.72 538.90
  A 2.19 2.17 78.5 0 1 262.30 537.95
  L 150.46 365.26
  A 1.73 1.72 38.8 0 1 150.29 363.74
  Q 172.11 303.35 193.91 242.95
  Q 194.45 241.45 194.62 240.56
  Q 195.16 237.69 193.54 238.12
  L 203.34 210.71
  L 203.90 209.08
  Q 204.08 208.54 203.67 208.14
  L 188.45 193.78
  A 0.43 0.42 43.6 0 1 188.43 193.17
  C 221.17 157.84 261.40 126.19 306.17 107.61
  Q 385.66 74.61 468.15 100.22
  Q 477.42 103.10 486.95 107.01
  Q 555.70 135.22 604.37 192.53
  Q 605.03 193.31 604.39 194.11
  L 594.58 206.21
  A 0.69 0.64 19.2 0 0 595.14 207.27
  Q 595.37 207.27 595.80 207.81
  Z
  M 419.88 130.62
  C 483.15 136.73 539.13 172.38 580.54 219.67
  A 0.43 0.43 0.0 0 0 581.20 219.66
  L 602.14 193.85
  Q 602.54 193.36 602.13 192.88
  C 537.12 116.54 434.24 70.85 334.10 99.84
  C 278.19 116.03 230.49 151.26 191.03 193.11
  A 0.41 0.41 0.0 0 0 191.05 193.69
  L 213.90 215.19
  Q 214.34 215.60 214.76 215.16
  C 266.45 159.96 343.29 123.23 419.88 130.62
  Z
  M 273.06 171.88
  L 262.05 179.82
  Q 235.98 197.12 215.54 220.47
  A 0.86 0.86 0.0 0 0 215.63 221.68
  L 219.23 224.81
  Q 219.53 225.07 219.72 225.44
  Q 220.56 227.10 221.59 226.77
  C 197.71 264.82 186.35 308.65 189.46 353.48
  C 194.39 424.42 235.52 488.42 297.26 522.18
  C 412.63 585.26 555.99 528.05 596.89 403.59
  Q 599.95 394.27 602.05 384.29
  Q 619.63 300.62 574.78 227.19
  Q 575.71 227.08 576.04 226.40
  Q 576.19 226.08 576.48 225.89
  L 578.74 224.48
  Q 579.32 224.13 578.87 223.62
  Q 566.20 209.02 551.22 196.29
  L 538.48 184.81
  Q 535.36 181.29 531.71 178.29
  Q 512.76 162.73 490.66 152.38
  Q 481.91 148.28 472.22 144.67
  Q 418.56 124.69 361.28 135.31
  Q 322.01 142.60 288.38 161.15
  Q 281.34 165.04 273.06 171.88
  Z
  M 587.23 218.49
  Q 586.83 218.89 586.70 219.28
  Q 586.53 219.77 587.02 219.93
  Q 590.68 221.13 592.51 224.75
  Q 592.84 225.42 593.52 224.93
  Q 594.61 226.77 596.30 227.28
  L 598.74 230.30
  A 0.63 0.63 0.0 0 0 599.83 229.70
  L 593.71 211.95
  A 0.59 0.59 0.0 0 0 592.69 211.77
  L 587.23 218.49
  Z
  M 201.62 230.15
  Q 207.24 225.22 211.45 219.01
  Q 211.72 218.61 211.37 218.28
  L 206.16 213.24
  A 1.04 1.04 0.0 0 0 204.46 213.63
  L 198.32 230.55
  A 1.25 1.25 0.0 0 0 200.09 232.08
  Q 200.84 231.68 201.09 230.94
  Q 201.25 230.47 201.62 230.15
  Z"
/>
<path fill="#594e40" d="
  M 419.88 130.62
  C 343.29 123.23 266.45 159.96 214.76 215.16
  Q 214.34 215.60 213.90 215.19
  L 191.05 193.69
  A 0.41 0.41 0.0 0 1 191.03 193.11
  C 230.49 151.26 278.19 116.03 334.10 99.84
  C 434.24 70.85 537.12 116.54 602.13 192.88
  Q 602.54 193.36 602.14 193.85
  L 581.20 219.66
  A 0.43 0.43 0.0 0 1 580.54 219.67
  C 539.13 172.38 483.15 136.73 419.88 130.62
  Z"
/>
<path fill="#7b7b7b" d="
  M 538.48 184.81
  Q 523.65 174.02 519.69 171.36
  C 472.94 139.97 417.98 126.81 362.13 137.17
  Q 322.53 144.51 287.14 164.22
  Q 280.31 168.03 273.06 171.88
  Q 281.34 165.04 288.38 161.15
  Q 322.01 142.60 361.28 135.31
  Q 418.56 124.69 472.22 144.67
  Q 481.91 148.28 490.66 152.38
  Q 512.76 162.73 531.71 178.29
  Q 535.36 181.29 538.48 184.81
  Z"
/>
<path fill="#000000" d="
  M 538.48 184.81
  L 551.22 196.29
  Q 564.16 211.37 574.78 227.19
  Q 619.63 300.62 602.05 384.29
  Q 599.95 394.27 596.89 403.59
  C 555.99 528.05 412.63 585.26 297.26 522.18
  C 235.52 488.42 194.39 424.42 189.46 353.48
  C 186.35 308.65 197.71 264.82 221.59 226.77
  Q 238.36 200.98 262.05 179.82
  L 273.06 171.88
  Q 280.31 168.03 287.14 164.22
  Q 322.53 144.51 362.13 137.17
  C 417.98 126.81 472.94 139.97 519.69 171.36
  Q 523.65 174.02 538.48 184.81
  Z
  M 225.85 232.40
  Q 204.77 267.29 198.53 305.82
  Q 183.56 398.29 241.85 468.30
  C 286.23 521.62 356.70 548.81 425.29 539.72
  C 492.77 530.79 551.02 486.51 580.87 425.92
  C 611.23 364.27 606.55 290.10 571.56 231.17
  L 570.51 229.53
  Q 546.00 190.19 507.91 166.83
  C 447.67 129.88 368.16 127.07 305.21 158.94
  Q 255.69 184.01 225.85 232.40
  Z"
/>
<path fill="#7b7b7b" d="
  M 570.51 229.53
  Q 567.76 231.39 567.64 234.20
  Q 567.62 234.65 567.22 234.85
  L 562.03 237.48
  A 1.04 1.04 0.0 0 1 560.75 237.21
  Q 553.39 228.27 544.45 221.03
  Q 538.32 216.07 534.94 213.05
  Q 530.35 208.95 525.45 205.03
  Q 533.15 210.49 540.51 216.34
  Q 545.13 220.00 550.94 225.78
  Q 556.05 230.86 561.34 235.78
  Q 561.86 236.25 562.45 235.88
  L 565.17 234.13
  Q 565.45 233.96 565.76 233.87
  Q 566.42 233.69 566.65 233.06
  Q 566.90 232.40 566.43 231.50
  Q 565.73 230.16 564.07 227.68
  Q 525.27 169.60 459.90 149.68
  C 417.28 136.68 367.96 137.99 326.31 153.99
  Q 265.34 177.40 229.69 233.63
  Q 228.62 235.33 230.57 235.81
  Q 231.06 235.94 232.09 234.62
  Q 233.01 233.43 234.37 233.61
  Q 234.79 233.66 235.10 233.37
  L 236.05 232.47
  A 0.13 0.13 0.0 0 1 236.24 232.64
  L 235.86 233.08
  Q 235.15 233.90 236.02 233.26
  Q 241.59 229.13 246.60 224.81
  Q 248.13 223.48 251.12 221.24
  C 254.12 218.98 256.38 216.34 259.69 214.34
  C 261.92 212.99 264.37 210.38 266.90 209.91
  L 267.54 210.17
  C 264.98 212.36 261.93 214.41 259.54 216.36
  Q 250.61 223.67 247.43 225.91
  Q 240.29 230.94 234.29 237.30
  Q 232.88 238.79 229.99 238.26
  Q 229.58 238.19 229.52 237.78
  L 229.29 236.22
  A 0.40 0.40 0.0 0 0 228.74 235.91
  Q 228.21 236.14 227.88 236.60
  L 225.85 232.40
  Q 255.69 184.01 305.21 158.94
  C 368.16 127.07 447.67 129.88 507.91 166.83
  Q 546.00 190.19 570.51 229.53
  Z"
/>
<path fill="#54504b" d="
  M 525.45 205.03
  Q 519.81 201.58 514.39 197.52
  C 512.06 195.78 509.21 194.63 506.69 192.99
  Q 501.62 189.68 501.07 189.36
  Q 477.67 176.02 450.85 167.18
  Q 446.74 165.83 444.56 165.46
  Q 436.85 162.60 428.76 161.22
  C 425.23 160.61 420.90 159.25 416.76 159.03
  Q 415.52 158.96 413.04 158.53
  Q 411.41 158.25 409.24 158.20
  C 395.55 157.88 382.28 157.92 369.98 161.43
  Q 329.31 170.34 293.83 192.55
  Q 287.63 196.42 281.51 200.21
  L 277.38 202.82
  Q 276.97 203.08 276.51 203.16
  Q 274.14 203.60 273.15 205.74
  Q 269.76 206.95 266.90 209.91
  C 264.37 210.38 261.92 212.99 259.69 214.34
  C 256.38 216.34 254.12 218.98 251.12 221.24
  Q 248.13 223.48 246.60 224.81
  Q 241.59 229.13 236.02 233.26
  Q 235.15 233.90 235.86 233.08
  L 236.24 232.64
  A 0.13 0.13 0.0 0 0 236.05 232.47
  L 235.10 233.37
  Q 234.79 233.66 234.37 233.61
  Q 233.01 233.43 232.09 234.62
  Q 231.06 235.94 230.57 235.81
  Q 228.62 235.33 229.69 233.63
  Q 265.34 177.40 326.31 153.99
  C 367.96 137.99 417.28 136.68 459.90 149.68
  Q 525.27 169.60 564.07 227.68
  Q 565.73 230.16 566.43 231.50
  Q 566.90 232.40 566.65 233.06
  Q 566.42 233.69 565.76 233.87
  Q 565.45 233.96 565.17 234.13
  L 562.45 235.88
  Q 561.86 236.25 561.34 235.78
  Q 556.05 230.86 550.94 225.78
  Q 545.13 220.00 540.51 216.34
  Q 533.15 210.49 525.45 205.03
  Z"
/>
<path fill="#7b7b7b" d="
  M 444.56 165.46
  Q 436.09 163.75 427.70 161.99
  C 424.00 161.22 420.25 161.39 416.52 160.58
  C 400.94 157.20 387.44 159.00 369.98 161.43
  C 382.28 157.92 395.55 157.88 409.24 158.20
  Q 411.41 158.25 413.04 158.53
  Q 415.52 158.96 416.76 159.03
  C 420.90 159.25 425.23 160.61 428.76 161.22
  Q 436.85 162.60 444.56 165.46
  Z"
/>
<path fill="#8c857d" d="
  M 444.56 165.46
  Q 446.74 165.83 450.85 167.18
  Q 477.67 176.02 501.07 189.36
  Q 501.62 189.68 506.69 192.99
  C 509.21 194.63 512.06 195.78 514.39 197.52
  Q 519.81 201.58 525.45 205.03
  Q 530.35 208.95 534.94 213.05
  Q 538.32 216.07 544.45 221.03
  Q 553.39 228.27 560.75 237.21
  A 1.04 1.04 0.0 0 0 562.03 237.48
  L 567.22 234.85
  Q 567.62 234.65 567.64 234.20
  Q 567.76 231.39 570.51 229.53
  L 571.56 231.17
  Q 570.37 232.04 569.71 232.00
  A 1.41 1.41 0.0 0 0 568.41 234.13
  C 604.92 295.51 606.92 372.38 571.71 434.74
  C 536.37 497.32 469.57 538.39 396.76 537.49
  C 328.65 536.65 264.58 500.89 228.34 443.06
  C 188.73 379.84 191.17 300.54 227.88 236.60
  Q 228.21 236.14 228.74 235.91
  A 0.40 0.40 0.0 0 1 229.29 236.22
  L 229.52 237.78
  Q 229.58 238.19 229.99 238.26
  Q 232.88 238.79 234.29 237.30
  Q 240.29 230.94 247.43 225.91
  Q 250.61 223.67 259.54 216.36
  C 261.93 214.41 264.98 212.36 267.54 210.17
  Q 269.93 209.27 270.07 208.54
  Q 270.15 208.11 269.75 208.28
  Q 268.21 208.92 267.54 210.17
  L 266.90 209.91
  Q 269.76 206.95 273.15 205.74
  Q 277.90 203.65 281.51 200.21
  Q 287.63 196.42 293.83 192.55
  Q 329.31 170.34 369.98 161.43
  C 387.44 159.00 400.94 157.20 416.52 160.58
  C 420.25 161.39 424.00 161.22 427.70 161.99
  Q 436.09 163.75 444.56 165.46
  Z
  M 478.34 462.86
  C 553.65 415.87 568.70 309.90 510.53 242.97
  C 452.25 175.93 346.04 173.66 286.35 240.11
  C 226.23 307.03 240.15 414.47 316.75 462.49
  C 365.31 492.93 429.56 493.30 478.34 462.86
  Z"
/>
<path fill="#7b7b7b" d="
  M 262.05 179.82
  Q 238.36 200.98 221.59 226.77
  Q 220.56 227.10 219.72 225.44
  Q 219.53 225.07 219.23 224.81
  L 215.63 221.68
  A 0.86 0.86 0.0 0 1 215.54 220.47
  Q 235.98 197.12 262.05 179.82
  Z"
/>
<path fill="#54504b" d="
  M 510.53 242.97
  C 568.70 309.90 553.65 415.87 478.34 462.86
  C 429.56 493.30 365.31 492.93 316.75 462.49
  C 240.15 414.47 226.23 307.03 286.35 240.11
  C 346.04 173.66 452.25 175.93 510.53 242.97
  Z
  M 503.09 435.48
  C 553.53 379.81 553.80 296.19 502.27 241.23
  C 440.95 175.83 329.53 182.67 278.79 258.01
  C 231.91 327.63 253.84 423.63 328.32 463.42
  C 384.57 493.48 459.25 483.87 503.09 435.48
  Z"
/>
<path fill="#000000" d="
  M 502.27 241.23
  C 553.80 296.19 553.53 379.81 503.09 435.48
  C 459.25 483.87 384.57 493.48 328.32 463.42
  C 253.84 423.63 231.91 327.63 278.79 258.01
  C 329.53 182.67 440.95 175.83 502.27 241.23
  Z
  M 526.02 338.50
  A 128.52 128.52 0.0 0 0 397.50 209.98
  A 128.52 128.52 0.0 0 0 268.98 338.50
  A 128.52 128.52 0.0 0 0 397.50 467.02
  A 128.52 128.52 0.0 0 0 526.02 338.50
  Z"
/>
<path fill="#7b7b7b" d="
  M 551.22 196.29
  Q 566.20 209.02 578.87 223.62
  Q 579.32 224.13 578.74 224.48
  L 576.48 225.89
  Q 576.19 226.08 576.04 226.40
  Q 575.71 227.08 574.78 227.19
  Q 564.16 211.37 551.22 196.29
  Z"
/>
<path fill="#7b7b7b" d="
  M 281.51 200.21
  Q 277.90 203.65 273.15 205.74
  Q 274.14 203.60 276.51 203.16
  Q 276.97 203.08 277.38 202.82
  L 281.51 200.21
  Z"
/>
<path fill="#ffffff" d="
  M 594.95 209.02
  L 651.03 364.31
  Q 651.21 364.82 650.93 365.27
  L 649.42 367.69
  L 553.24 516.21
  L 551.11 519.53
  L 537.63 540.22
  Q 536.09 540.78 533.50 541.24
  Q 504.42 546.41 398.27 565.53
  Q 395.50 566.03 392.73 565.50
  Q 329.69 553.42 266.39 541.50
  Q 262.58 541.28 260.85 539.55
  L 155.38 376.74
  L 149.49 367.60
  L 148.10 365.16
  Q 147.84 364.70 148.02 364.20
  L 193.54 238.12
  Q 195.16 237.69 194.62 240.56
  Q 194.45 241.45 193.91 242.95
  Q 172.11 303.35 150.29 363.74
  A 1.73 1.72 38.8 0 0 150.46 365.26
  L 262.30 537.95
  A 2.19 2.17 78.5 0 0 263.72 538.90
  Q 328.21 551.23 392.98 563.48
  Q 395.74 564.00 398.50 563.50
  Q 466.92 551.15 535.07 538.95
  A 2.59 2.59 0.0 0 0 536.79 537.80
  L 648.54 365.27
  A 1.67 1.66 51.7 0 0 648.71 363.78
  Q 626.83 303.17 604.87 242.33
  C 602.55 235.90 600.71 227.83 598.03 220.73
  Q 596.16 215.79 594.39 210.81
  A 1.39 1.38 4.3 0 0 593.75 210.07
  Q 593.50 209.95 593.20 209.89
  A 1.37 1.09 -29.6 0 1 594.12 207.59
  Q 594.64 207.66 594.95 209.02
  Z"
/>
<path fill="#7b7b7b" d="
  M 267.54 210.17
  Q 268.21 208.92 269.75 208.28
  Q 270.15 208.11 270.07 208.54
  Q 269.93 209.27 267.54 210.17
  Z"
/>
<path fill="#3a78af" d="
  M 526.02 338.50
  A 128.52 128.52 0.0 0 1 397.50 467.02
  A 128.52 128.52 0.0 0 1 268.98 338.50
  A 128.52 128.52 0.0 0 1 397.50 209.98
  A 128.52 128.52 0.0 0 1 526.02 338.50
  Z
  M 490.88 338.49
  C 473.32 315.58 446.60 289.34 416.74 284.82
  Q 409.31 283.70 401.87 282.53
  Q 398.81 282.05 395.62 282.54
  C 390.17 283.38 384.31 283.88 379.51 285.13
  C 349.48 292.95 322.60 314.97 303.06 338.47
  Q 302.71 338.89 303.07 339.31
  C 320.15 359.68 343.10 378.69 368.75 388.65
  Q 376.51 391.66 384.72 392.65
  Q 388.12 393.06 390.21 393.48
  C 393.64 394.19 396.72 395.28 400.32 394.52
  Q 405.31 393.47 412.05 392.80
  C 445.14 389.52 470.91 364.31 490.87 339.39
  Q 491.23 338.94 490.88 338.49
  Z
  M 355.9874 412.1703
  A 20.99 20.49 -0.9 0 0 334.6782 392.0125
  A 20.99 20.49 -0.9 0 0 314.0126 412.8297
  A 20.99 20.49 -0.9 0 0 335.3218 432.9875
  A 20.99 20.49 -0.9 0 0 355.9874 412.1703
  Z"
/>
<path fill="#7b7b7b" d="
  M 596.30 227.28
  Q 595.22 225.32 593.52 224.93
  Q 591.04 221.01 587.23 218.49
  L 592.69 211.77
  A 0.59 0.59 0.0 0 1 593.71 211.95
  L 599.83 229.70
  A 0.63 0.63 0.0 0 1 598.74 230.30
  L 596.30 227.28
  Z"
/>
<path fill="#7b7b7b" d="
  M 201.09 230.94
  Q 200.84 231.68 200.09 232.08
  A 1.25 1.25 0.0 0 1 198.32 230.55
  L 204.46 213.63
  A 1.04 1.04 0.0 0 1 206.16 213.24
  L 211.37 218.28
  Q 211.72 218.61 211.45 219.01
  Q 207.24 225.22 201.62 230.15
  Q 201.25 230.47 201.09 230.94
  Z"
/>
<path fill="#8c857d" d="
  M 587.23 218.49
  Q 591.04 221.01 593.52 224.93
  Q 592.84 225.42 592.51 224.75
  Q 590.68 221.13 587.02 219.93
  Q 586.53 219.77 586.70 219.28
  Q 586.83 218.89 587.23 218.49
  Z"
/>
<path fill="#8c857d" d="
  M 593.52 224.93
  Q 595.22 225.32 596.30 227.28
  Q 594.61 226.77 593.52 224.93
  Z"
/>
<path fill="#bfbdb8" d="
  M 571.56 231.17
  C 606.55 290.10 611.23 364.27 580.87 425.92
  C 551.02 486.51 492.77 530.79 425.29 539.72
  C 356.70 548.81 286.23 521.62 241.85 468.30
  Q 183.56 398.29 198.53 305.82
  Q 204.77 267.29 225.85 232.40
  L 227.88 236.60
  C 191.17 300.54 188.73 379.84 228.34 443.06
  C 264.58 500.89 328.65 536.65 396.76 537.49
  C 469.57 538.39 536.37 497.32 571.71 434.74
  C 606.92 372.38 604.92 295.51 568.41 234.13
  A 1.41 1.41 0.0 0 1 569.71 232.00
  Q 570.37 232.04 571.56 231.17
  Z"
/>
<path fill="#000000" d="
  M 416.74 284.82
  C 446.60 289.34 473.32 315.58 490.88 338.49
  Q 491.23 338.94 490.87 339.39
  C 470.91 364.31 445.14 389.52 412.05 392.80
  Q 405.31 393.47 400.32 394.52
  C 396.72 395.28 393.64 394.19 390.21 393.48
  Q 388.12 393.06 384.72 392.65
  Q 376.51 391.66 368.75 388.65
  C 343.10 378.69 320.15 359.68 303.07 339.31
  Q 302.71 338.89 303.06 338.47
  C 322.60 314.97 349.48 292.95 379.51 285.13
  C 384.31 283.88 390.17 283.38 395.62 282.54
  Q 398.81 282.05 401.87 282.53
  Q 409.31 283.70 416.74 284.82
  Z
  M 401.14 392.54
  Q 407.34 391.76 412.91 389.09
  C 430.04 380.88 446.16 366.86 449.39 347.11
  C 452.98 325.20 440.06 301.72 421.67 290.22
  C 415.50 286.36 408.70 285.22 401.50 284.42
  Q 398.41 284.08 394.02 284.67
  C 387.18 285.60 381.65 285.86 375.08 289.87
  C 358.64 299.88 346.16 319.42 345.94 338.50
  C 345.74 354.74 353.74 368.66 366.08 378.48
  Q 373.86 384.67 380.78 388.07
  Q 388.78 391.99 398.02 392.63
  Q 399.56 392.74 401.14 392.54
  Z
  M 451.14 326.45
  C 459.02 355.10 441.54 377.05 417.56 389.66
  A 0.20 0.20 0.0 0 0 417.69 390.03
  C 447.04 384.47 470.21 361.96 488.18 339.50
  Q 488.70 338.85 488.18 338.20
  C 471.50 317.15 449.83 295.75 423.15 288.21
  Q 422.02 287.90 423.01 288.53
  Q 444.50 302.31 451.14 326.45
  Z
  M 305.67 339.07
  C 323.41 360.64 350.55 382.47 378.13 389.49
  A 0.13 0.13 0.0 0 0 378.23 389.25
  C 360.40 379.27 345.62 365.08 343.74 343.67
  C 341.94 323.17 354.28 302.18 370.52 290.46
  Q 372.25 289.21 370.26 289.97
  C 345.15 299.59 323.05 318.00 305.68 338.30
  Q 305.35 338.68 305.67 339.07
  Z"
/>
<path fill="#f3c163" d="
  M 401.14 392.54
  Q 399.56 392.74 398.02 392.63
  Q 388.78 391.99 380.78 388.07
  Q 373.86 384.67 366.08 378.48
  C 353.74 368.66 345.74 354.74 345.94 338.50
  C 346.16 319.42 358.64 299.88 375.08 289.87
  C 381.65 285.86 387.18 285.60 394.02 284.67
  Q 398.41 284.08 401.50 284.42
  C 408.70 285.22 415.50 286.36 421.67 290.22
  C 440.06 301.72 452.98 325.20 449.39 347.11
  C 446.16 366.86 430.04 380.88 412.91 389.09
  Q 407.34 391.76 401.14 392.54
  Z
  M 397.8397 349.9689
  A 11.48 11.00 90.8 0 0 408.9989 338.6436
  A 11.48 11.00 90.8 0 0 398.1603 327.0111
  A 11.48 11.00 90.8 0 0 387.0011 338.3364
  A 11.48 11.00 90.8 0 0 397.8397 349.9689
  Z"
/>
<path fill="#ffffff" d="
  M 417.56 389.66
  C 441.54 377.05 459.02 355.10 451.14 326.45
  Q 444.50 302.31 423.01 288.53
  Q 422.02 287.90 423.15 288.21
  C 449.83 295.75 471.50 317.15 488.18 338.20
  Q 488.70 338.85 488.18 339.50
  C 470.21 361.96 447.04 384.47 417.69 390.03
  A 0.20 0.20 0.0 0 1 417.56 389.66
  Z"
/>
<path fill="#ffffff" d="
  M 378.13 389.49
  C 350.55 382.47 323.41 360.64 305.67 339.07
  Q 305.35 338.68 305.68 338.30
  C 323.05 318.00 345.15 299.59 370.26 289.97
  Q 372.25 289.21 370.52 290.46
  C 354.28 302.18 341.94 323.17 343.74 343.67
  C 345.62 365.08 360.40 379.27 378.23 389.25
  A 0.13 0.13 0.0 0 1 378.13 389.49
  Z"
/>
<ellipse fill="#000000" cx="0.00" cy="0.00" transform="translate(398.00,338.49) rotate(90.8)" rx="11.48" ry="11.00"/>
<path fill="#594e40" d="
  M 149.49 367.60
  L 155.38 376.74
  Q 153.72 376.47 151.97 374.14
  Q 151.74 373.83 151.66 374.22
  Q 151.63 374.36 151.65 374.54
  Q 147.74 369.81 149.49 367.60
  Z"
/>
<path fill="#54504b" d="
  M 649.42 367.69
  Q 649.67 367.99 650.07 368.15
  Q 650.40 368.28 650.33 368.64
  C 649.82 371.14 649.77 373.98 648.32 376.02
  Q 647.00 377.88 645.18 379.27
  Q 643.19 380.79 642.27 382.21
  Q 619.22 417.93 596.16 453.65
  Q 587.45 467.15 578.57 480.55
  Q 576.44 483.77 574.50 487.11
  Q 572.52 490.50 570.29 493.59
  C 566.62 498.67 562.72 505.20 560.03 509.27
  Q 553.42 519.31 547.01 529.47
  C 545.70 531.54 545.36 533.51 544.78 535.85
  A 1.26 1.25 81.9 0 1 544.23 536.59
  Q 541.39 538.35 541.01 539.98
  Q 539.69 545.73 534.25 546.62
  Q 516.27 549.56 502.44 552.55
  C 494.59 554.25 486.47 555.22 478.48 556.75
  Q 465.03 559.33 451.58 561.91
  C 447.67 562.65 440.21 563.62 434.60 564.86
  Q 430.51 565.76 427.84 566.13
  Q 421.70 566.99 415.55 567.75
  Q 415.24 567.79 415.30 567.48
  Q 415.36 567.19 415.45 567.22
  Q 415.72 567.33 415.44 567.38
  L 401.66 569.54
  L 399.60 569.41
  A 0.15 0.15 0.0 0 1 399.59 569.12
  C 400.83 568.95 401.87 568.23 402.91 568.04
  Q 410.36 566.70 417.77 565.13
  Q 417.90 565.10 417.95 565.19
  Q 417.97 565.24 417.98 565.30
  A 0.21 0.16 -0.8 0 1 417.76 565.47
  Q 417.57 565.47 417.42 565.50
  Q 416.87 565.61 417.45 565.63
  C 419.39 565.69 421.30 564.56 422.51 564.88
  Q 422.56 564.89 422.51 564.87
  L 422.18 564.68
  Q 421.96 564.57 422.20 564.52
  L 447.08 559.61
  Q 449.93 558.29 452.87 558.49
  Q 460.73 557.82 468.09 555.43
  L 503.66 549.30
  L 516.06 547.22
  L 533.56 543.99
  Q 534.06 543.90 534.37 543.50
  Q 534.84 542.89 535.79 543.16
  Q 536.21 543.28 536.54 542.99
  Q 537.72 541.97 537.63 540.22
  L 551.11 519.53
  Q 553.43 519.26 553.24 516.21
  L 649.42 367.69
  Z
  M 647.77 374.48
  Q 646.16 375.83 645.66 377.95
  Q 645.46 378.77 646.07 378.18
  Q 647.53 376.74 647.97 374.60
  A 0.13 0.12 75.4 0 0 647.77 374.48
  Z
  M 543.00 537.40
  L 544.59 534.10
  A 0.29 0.29 0.0 0 0 544.09 533.82
  Q 543.06 535.37 542.41 537.15
  A 0.32 0.32 0.0 0 0 543.00 537.40
  Z
  M 508.84 549.49
  L 502.75 550.75
  Q 502.64 550.77 502.63 550.66
  Q 502.52 549.74 502.63 550.69
  Q 502.64 550.78 502.74 550.77
  Q 510.42 549.96 518.02 548.60
  Q 518.35 548.54 518.53 548.44
  Q 519.79 547.70 518.25 548.12
  Q 514.93 549.01 511.54 549.15
  Q 510.17 549.21 508.84 549.49
  Z
  M 464.8406 558.1422
  A 3.12 0.22 -6.4 0 0 461.7155 558.2714
  A 3.12 0.22 -6.4 0 0 458.6394 558.8378
  A 3.12 0.22 -6.4 0 0 461.7645 558.7086
  A 3.12 0.22 -6.4 0 0 464.8406 558.1422
  Z
  M 410.04 567.75
  Q 410.30 567.82 410.52 567.72
  A 0.23 0.23 0.0 0 0 410.38 567.29
  L 406.51 568.11
  Q 406.05 568.20 406.52 568.17
  Q 408.13 568.06 409.69 567.74
  A 0.93 0.83 -40.1 0 1 410.04 567.75
  Z"
/>
<path fill="#54504b" d="
  M 155.38 376.74
  L 260.85 539.55
  Q 260.50 540.55 261.15 541.47
  Q 261.43 541.92 261.32 542.27
  L 263.54 545.21
  Q 260.89 544.06 259.70 541.72
  Q 258.31 538.99 258.25 538.91
  Q 235.56 504.01 215.46 472.85
  A 16.95 0.01 57.0 0 1 211.35 466.50
  L 151.65 374.54
  Q 151.63 374.36 151.66 374.22
  Q 151.74 373.83 151.97 374.14
  Q 153.72 376.47 155.38 376.74
  Z"
/>
<path fill="#000000" d="
  M 647.77 374.48
  A 0.13 0.12 75.4 0 1 647.97 374.60
  Q 647.53 376.74 646.07 378.18
  Q 645.46 378.77 645.66 377.95
  Q 646.16 375.83 647.77 374.48
  Z"
/>
<ellipse fill="#ffffff" cx="0.00" cy="0.00" transform="translate(335.00,412.50) rotate(-0.9)" rx="20.99" ry="20.49"/>
<path fill="#7b7b7b" d="
  M 553.24 516.21
  Q 553.43 519.26 551.11 519.53
  L 553.24 516.21
  Z"
/>
<path fill="#000000" d="
  M 543.00 537.40
  A 0.32 0.32 0.0 0 1 542.41 537.15
  Q 543.06 535.37 544.09 533.82
  A 0.29 0.29 0.0 0 1 544.59 534.10
  L 543.00 537.40
  Z"
/>
<path fill="#8c857d" d="
  M 260.85 539.55
  Q 262.58 541.28 266.39 541.50
  Q 273.03 544.36 280.53 545.14
  Q 281.42 545.24 280.58 545.55
  Q 279.90 545.79 279.14 545.58
  Q 279.12 545.58 279.12 545.62
  Q 279.12 545.64 279.12 545.66
  Q 279.11 545.75 279.18 545.75
  Q 281.15 545.92 282.56 546.76
  L 273.52 545.04
  L 277.00 545.15
  Q 277.39 545.16 277.00 545.08
  L 268.79 543.45
  Q 268.22 543.34 268.57 543.81
  L 269.11 544.54
  L 271.70 545.52
  Q 274.28 546.89 277.00 546.64
  L 286.75 548.00
  Q 290.09 549.40 292.90 548.83
  Q 294.23 548.39 295.87 549.24
  Q 296.33 549.48 296.84 549.41
  Q 299.05 549.13 300.96 550.24
  Q 301.37 550.47 301.84 550.50
  Q 307.65 550.80 313.14 552.65
  L 305.93 551.52
  A 0.27 0.26 59.5 0 0 305.80 552.03
  L 307.01 552.49
  L 301.72 551.58
  L 303.74 551.77
  Q 304.69 551.86 303.81 551.50
  Q 300.52 550.14 296.84 550.38
  L 279.98 547.68
  L 275.65 547.06
  Q 270.28 545.56 264.30 545.56
  Q 264.14 545.00 263.54 545.21
  L 261.32 542.27
  L 261.81 542.48
  Q 262.68 542.86 262.35 541.97
  Q 262.10 541.29 261.52 541.02
  Q 261.22 540.88 261.14 541.19
  Q 261.10 541.33 261.15 541.47
  Q 260.50 540.55 260.85 539.55
  Z"
/>
<path fill="#bfbdb8" d="
  M 537.63 540.22
  Q 537.72 541.97 536.54 542.99
  Q 536.21 543.28 535.79 543.16
  Q 534.84 542.89 534.37 543.50
  Q 534.06 543.90 533.56 543.99
  L 516.06 547.22
  L 514.09 547.06
  Q 509.78 546.57 505.96 548.21
  L 503.66 549.30
  L 468.09 555.43
  Q 460.28 556.23 452.87 558.49
  Q 449.93 558.29 447.08 559.61
  Q 444.90 559.24 441.38 559.88
  Q 426.28 562.60 411.25 565.24
  Q 408.88 565.01 407.06 566.15
  Q 399.87 568.04 392.86 567.71
  L 386.98 566.59
  L 383.86 566.87
  L 378.94 565.69
  Q 375.03 563.81 370.75 563.71
  Q 370.24 563.70 370.66 563.98
  Q 371.19 564.33 371.98 564.43
  L 366.55 563.66
  Q 366.12 562.73 364.94 562.47
  Q 362.60 561.25 360.35 561.71
  Q 357.80 560.66 355.06 560.75
  L 347.01 558.66
  L 343.07 558.44
  Q 341.12 557.51 338.99 557.67
  Q 338.39 557.72 338.95 557.93
  Q 340.92 558.66 343.07 558.44
  Q 343.03 558.66 343.00 558.87
  L 331.30 556.94
  Q 331.74 556.86 332.17 556.77
  Q 325.69 554.79 320.88 554.67
  L 315.55 553.66
  Q 316.97 554.06 317.82 553.80
  Q 318.46 553.61 317.80 553.49
  L 313.14 552.65
  Q 307.65 550.80 301.84 550.50
  Q 301.37 550.47 300.96 550.24
  Q 299.05 549.13 296.84 549.41
  Q 296.33 549.48 295.87 549.24
  Q 294.23 548.39 292.90 548.83
  Q 287.78 546.93 282.56 546.76
  Q 281.15 545.92 279.18 545.75
  Q 279.11 545.75 279.12 545.66
  Q 279.12 545.64 279.12 545.62
  Q 279.12 545.58 279.14 545.58
  Q 279.90 545.79 280.58 545.55
  Q 281.42 545.24 280.53 545.14
  Q 273.03 544.36 266.39 541.50
  Q 329.69 553.42 392.73 565.50
  Q 395.50 566.03 398.27 565.53
  Q 504.42 546.41 533.50 541.24
  Q 536.09 540.78 537.63 540.22
  Z
  M 318.75 554.15
  L 322.18 554.59
  Q 323.37 554.74 322.30 554.18
  Q 320.66 553.33 318.74 553.66
  A 0.25 0.25 0.0 0 0 318.75 554.15
  Z
  M 328.58 555.64
  L 331.94 556.05
  A 0.22 0.22 0.0 0 0 332.00 555.61
  L 327.96 555.02
  Q 327.27 554.92 327.83 555.34
  Q 327.94 555.42 328.05 555.48
  Q 328.30 555.61 328.58 555.64
  Z
  M 386.43 566.70
  L 386.54 566.17
  A 0.17 0.17 0.0 0 0 386.41 565.97
  L 386.22 565.93
  A 7.26 0.29 11.3 0 0 379.04 564.80
  L 378.98 565.09
  A 7.26 0.29 11.3 0 0 386.05 566.80
  L 386.23 566.83
  A 0.17 0.17 0.0 0 0 386.43 566.70
  Z"
/>
<path fill="#7b7b7b" d="
  M 261.32 542.27
  Q 261.43 541.92 261.15 541.47
  Q 261.10 541.33 261.14 541.19
  Q 261.22 540.88 261.52 541.02
  Q 262.10 541.29 262.35 541.97
  Q 262.68 542.86 261.81 542.48
  L 261.32 542.27
  Z"
/>
<path fill="#bfbdb8" d="
  M 273.52 545.04
  Q 271.57 544.27 269.11 544.54
  L 268.57 543.81
  Q 268.22 543.34 268.79 543.45
  L 277.00 545.08
  Q 277.39 545.16 277.00 545.15
  L 273.52 545.04
  Z"
/>
<path fill="#7b7b7b" d="
  M 269.11 544.54
  Q 271.57 544.27 273.52 545.04
  L 282.56 546.76
  L 286.75 548.00
  L 277.00 546.64
  L 271.70 545.52
  L 269.11 544.54
  Z"
/>
<path fill="#54504b" d="
  M 264.30 545.56
  Q 270.28 545.56 275.65 547.06
  L 273.07 547.14
  Q 272.78 547.15 272.99 547.26
  Q 273.09 547.32 273.25 547.26
  Q 273.46 547.20 273.63 547.23
  Q 274.34 547.37 273.59 547.45
  Q 272.57 547.57 271.43 547.17
  Q 268.19 546.53 264.75 546.12
  Q 264.30 546.07 264.30 545.56
  Z"
/>
<path fill="#54504b" d="
  M 271.70 545.52
  L 277.00 546.64
  Q 274.28 546.89 271.70 545.52
  Z"
/>
<path fill="#8c857d" d="
  M 282.56 546.76
  Q 287.78 546.93 292.90 548.83
  L 286.75 548.00
  L 282.56 546.76
  Z"
/>
<path fill="#594e40" d="
  M 275.65 547.06
  L 279.98 547.68
  Q 291.00 550.43 301.72 551.58
  L 307.01 552.49
  L 314.16 553.96
  Q 316.57 554.65 319.03 555.02
  C 323.17 555.64 326.94 557.01 331.30 556.94
  L 343.00 558.87
  L 353.06 560.77
  Q 353.07 561.28 353.50 561.37
  Q 355.05 561.67 361.21 562.67
  L 359.33 562.65
  A 0.33 0.33 0.0 0 0 359.27 563.31
  Q 365.57 564.34 371.57 565.73
  Q 372.43 565.93 372.02 565.83
  Q 366.43 564.47 360.65 563.91
  L 358.57 563.49
  Q 358.57 563.30 358.43 563.17
  Q 358.32 563.08 358.11 563.08
  Q 354.56 563.13 351.48 561.40
  Q 349.71 560.41 347.70 560.10
  Q 345.17 559.70 343.85 559.34
  Q 341.20 558.61 338.44 558.60
  C 336.76 558.60 335.10 557.79 333.19 558.21
  Q 332.43 558.38 333.20 558.53
  L 335.42 558.97
  Q 332.93 559.21 330.78 558.27
  Q 329.33 557.25 327.28 557.52
  Q 327.08 557.55 327.22 557.69
  Q 327.41 557.88 327.46 558.07
  L 307.46 554.12
  Q 307.96 554.19 308.22 554.12
  Q 308.96 553.91 308.04 553.56
  Q 306.39 552.96 304.89 553.33
  L 272.80 548.22
  Q 272.37 548.15 272.75 547.93
  Q 272.98 547.80 273.30 547.84
  Q 272.14 547.92 271.43 547.17
  Q 272.57 547.57 273.59 547.45
  Q 274.34 547.37 273.63 547.23
  Q 273.46 547.20 273.25 547.26
  Q 273.09 547.32 272.99 547.26
  Q 272.78 547.15 273.07 547.14
  L 275.65 547.06
  Z"
/>
<path fill="#8c857d" d="
  M 514.09 547.06
  L 505.96 548.21
  Q 509.78 546.57 514.09 547.06
  Z"
/>
<path fill="#7b7b7b" d="
  M 514.09 547.06
  L 516.06 547.22
  L 503.66 549.30
  L 505.96 548.21
  L 514.09 547.06
  Z"
/>
<path fill="#54504b" d="
  M 296.84 550.38
  L 301.72 551.58
  Q 291.00 550.43 279.98 547.68
  L 296.84 550.38
  Z"
/>
<path fill="#7b7b7b" d="
  M 286.75 548.00
  L 292.90 548.83
  Q 290.09 549.40 286.75 548.00
  Z"
/>
<path fill="#594e40" d="
  M 508.84 549.49
  Q 510.17 549.21 511.54 549.15
  Q 514.93 549.01 518.25 548.12
  Q 519.79 547.70 518.53 548.44
  Q 518.35 548.54 518.02 548.60
  Q 510.42 549.96 502.74 550.77
  Q 502.64 550.78 502.63 550.69
  Q 502.52 549.74 502.63 550.66
  Q 502.64 550.77 502.75 550.75
  L 508.84 549.49
  Z"
/>
<path fill="#7b7b7b" d="
  M 301.72 551.58
  L 296.84 550.38
  Q 300.52 550.14 303.81 551.50
  Q 304.69 551.86 303.74 551.77
  L 301.72 551.58
  Z"
/>
<path fill="#7b7b7b" d="
  M 313.14 552.65
  L 317.80 553.49
  Q 318.46 553.61 317.82 553.80
  Q 316.97 554.06 315.55 553.66
  Q 315.17 553.92 314.16 553.96
  L 307.01 552.49
  L 305.80 552.03
  A 0.27 0.26 59.5 0 1 305.93 551.52
  L 313.14 552.65
  Z"
/>
<path fill="#54504b" d="
  M 304.89 553.33
  Q 306.39 552.96 308.04 553.56
  Q 308.96 553.91 308.22 554.12
  Q 307.96 554.19 307.46 554.12
  Q 305.62 554.07 304.89 553.33
  Z"
/>
<path fill="#54504b" d="
  M 314.16 553.96
  Q 315.17 553.92 315.55 553.66
  L 320.88 554.67
  L 332.17 556.77
  Q 331.74 556.86 331.30 556.94
  C 326.94 557.01 323.17 555.64 319.03 555.02
  Q 316.57 554.65 314.16 553.96
  Z"
/>
<path fill="#8c857d" d="
  M 318.75 554.15
  A 0.25 0.25 0.0 0 1 318.74 553.66
  Q 320.66 553.33 322.30 554.18
  Q 323.37 554.74 322.18 554.59
  L 318.75 554.15
  Z"
/>
<path fill="#7b7b7b" d="
  M 320.88 554.67
  Q 325.69 554.79 332.17 556.77
  L 320.88 554.67
  Z"
/>
<path fill="#8c857d" d="
  M 328.05 555.48
  Q 327.94 555.42 327.83 555.34
  Q 327.27 554.92 327.96 555.02
  L 332.00 555.61
  A 0.22 0.22 0.0 0 1 331.94 556.05
  L 328.58 555.64
  Q 328.30 555.61 328.05 555.48
  Z"
/>
<path fill="#7b7b7b" d="
  M 468.09 555.43
  Q 460.73 557.82 452.87 558.49
  Q 460.28 556.23 468.09 555.43
  Z"
/>
<path fill="#54504b" d="
  M 330.78 558.27
  L 327.46 558.07
  Q 327.41 557.88 327.22 557.69
  Q 327.08 557.55 327.28 557.52
  Q 329.33 557.25 330.78 558.27
  Z"
/>
<path fill="#7b7b7b" d="
  M 343.07 558.44
  Q 340.92 558.66 338.95 557.93
  Q 338.39 557.72 338.99 557.67
  Q 341.12 557.51 343.07 558.44
  Z"
/>
<ellipse fill="#594e40" cx="0.00" cy="0.00" transform="translate(461.74,558.49) rotate(-6.4)" rx="3.12" ry="0.22"/>
<path fill="#54504b" d="
  M 358.57 563.49
  Q 357.32 563.78 355.50 563.39
  Q 350.44 562.31 335.74 559.68
  Q 335.20 559.59 335.42 558.97
  L 333.20 558.53
  Q 332.43 558.38 333.19 558.21
  C 335.10 557.79 336.76 558.60 338.44 558.60
  Q 341.20 558.61 343.85 559.34
  Q 345.17 559.70 347.70 560.10
  Q 349.71 560.41 351.48 561.40
  Q 354.56 563.13 358.11 563.08
  Q 358.32 563.08 358.43 563.17
  Q 358.57 563.30 358.57 563.49
  Z
  M 339.28 559.51
  Q 343.99 560.57 349.39 561.48
  A 0.15 0.15 0.0 0 0 349.49 561.20
  Q 348.65 560.73 347.53 560.61
  Q 342.43 560.05 338.01 559.18
  A 0.03 0.03 0.0 0 0 338.00 559.23
  Q 338.33 559.30 339.28 559.51
  Z"
/>
<path fill="#7b7b7b" d="
  M 343.07 558.44
  L 347.01 558.66
  Q 347.74 559.62 349.00 559.61
  Q 351.27 559.57 353.06 560.77
  L 343.00 558.87
  Q 343.03 558.66 343.07 558.44
  Z"
/>
<path fill="#8c857d" d="
  M 347.01 558.66
  L 355.06 560.75
  Q 353.97 560.44 353.06 560.77
  Q 351.27 559.57 349.00 559.61
  Q 347.74 559.62 347.01 558.66
  Z"
/>
<path fill="#594e40" d="
  M 339.28 559.51
  Q 338.33 559.30 338.00 559.23
  A 0.03 0.03 0.0 0 1 338.01 559.18
  Q 342.43 560.05 347.53 560.61
  Q 348.65 560.73 349.49 561.20
  A 0.15 0.15 0.0 0 1 349.39 561.48
  Q 343.99 560.57 339.28 559.51
  Z"
/>
<path fill="#7b7b7b" d="
  M 447.08 559.61
  L 422.20 564.52
  Q 421.96 564.57 422.18 564.68
  L 422.51 564.87
  Q 422.56 564.89 422.51 564.88
  C 421.30 564.56 419.39 565.69 417.45 565.63
  Q 416.87 565.61 417.42 565.50
  Q 417.57 565.47 417.76 565.47
  A 0.21 0.16 -0.8 0 0 417.98 565.30
  Q 417.97 565.24 417.95 565.19
  Q 417.90 565.10 417.77 565.13
  Q 410.36 566.70 402.91 568.04
  C 401.87 568.23 400.83 568.95 399.59 569.12
  A 0.15 0.15 0.0 0 0 399.60 569.41
  L 401.66 569.54
  Q 396.51 570.54 392.41 569.25
  Q 394.90 569.58 398.00 569.39
  Q 398.66 569.35 399.11 569.00
  Q 399.68 568.57 398.97 568.69
  Q 396.13 569.20 393.25 568.84
  A 0.05 0.04 46.6 0 1 393.25 568.75
  Q 393.64 568.75 394.12 568.71
  Q 394.13 568.71 394.13 568.66
  Q 394.13 568.64 394.14 568.61
  Q 394.15 568.53 394.07 568.52
  L 383.86 566.87
  L 386.98 566.59
  Q 389.74 567.80 392.86 567.71
  Q 399.87 568.04 407.06 566.15
  Q 409.39 566.27 411.25 565.24
  Q 426.28 562.60 441.38 559.88
  Q 444.90 559.24 447.08 559.61
  Z"
/>
<path fill="#7b7b7b" d="
  M 353.06 560.77
  Q 353.97 560.44 355.06 560.75
  L 360.35 561.71
  L 364.94 562.47
  Q 366.12 562.73 366.55 563.66
  L 361.21 562.67
  Q 355.05 561.67 353.50 561.37
  Q 353.07 561.28 353.06 560.77
  Z"
/>
<path fill="#8c857d" d="
  M 355.06 560.75
  Q 357.80 560.66 360.35 561.71
  L 355.06 560.75
  Z"
/>
<path fill="#8c857d" d="
  M 360.35 561.71
  Q 362.60 561.25 364.94 562.47
  L 360.35 561.71
  Z"
/>
<path fill="#54504b" d="
  M 361.21 562.67
  L 366.55 563.66
  L 371.98 564.43
  Q 375.33 565.95 378.94 565.69
  L 383.86 566.87
  L 394.07 568.52
  Q 394.15 568.53 394.14 568.61
  Q 394.13 568.64 394.13 568.66
  Q 394.13 568.71 394.12 568.71
  Q 393.64 568.75 393.25 568.75
  A 0.05 0.04 46.6 0 0 393.25 568.84
  Q 396.13 569.20 398.97 568.69
  Q 399.68 568.57 399.11 569.00
  Q 398.66 569.35 398.00 569.39
  Q 394.90 569.58 392.41 569.25
  L 381.97 567.80
  Q 377.37 566.47 372.62 566.14
  Q 372.62 566.13 372.62 566.15
  Q 372.61 566.16 372.63 566.16
  Q 374.51 566.19 375.53 566.98
  L 360.65 563.91
  Q 366.43 564.47 372.02 565.83
  Q 372.43 565.93 371.57 565.73
  Q 365.57 564.34 359.27 563.31
  A 0.33 0.33 0.0 0 1 359.33 562.65
  L 361.21 562.67
  Z"
/>
<path fill="#7b7b7b" d="
  M 378.94 565.69
  Q 375.33 565.95 371.98 564.43
  Q 371.19 564.33 370.66 563.98
  Q 370.24 563.70 370.75 563.71
  Q 375.03 563.81 378.94 565.69
  Z"
/>
<path fill="#8c857d" d="
  M 386.43 566.70
  A 0.17 0.17 0.0 0 1 386.23 566.83
  L 386.05 566.80
  A 7.26 0.29 11.3 0 1 378.98 565.09
  L 379.04 564.80
  A 7.26 0.29 11.3 0 1 386.22 565.93
  L 386.41 565.97
  A 0.17 0.17 0.0 0 1 386.54 566.17
  L 386.43 566.70
  Z"
/>
<path fill="#8c857d" d="
  M 411.25 565.24
  Q 409.39 566.27 407.06 566.15
  Q 408.88 565.01 411.25 565.24
  Z"
/>
<path fill="#594e40" d="
  M 381.97 567.80
  L 375.53 566.98
  Q 374.51 566.19 372.63 566.16
  Q 372.61 566.16 372.62 566.15
  Q 372.62 566.13 372.62 566.14
  Q 377.37 566.47 381.97 567.80
  Z"
/>
<path fill="#8c857d" d="
  M 392.86 567.71
  Q 389.74 567.80 386.98 566.59
  L 392.86 567.71
  Z"
/>
<path fill="#594e40" d="
  M 409.69 567.74
  Q 408.13 568.06 406.52 568.17
  Q 406.05 568.20 406.51 568.11
  L 410.38 567.29
  A 0.23 0.23 0.0 0 1 410.52 567.72
  Q 410.30 567.82 410.04 567.75
  A 0.93 0.83 -40.1 0 0 409.69 567.74
  Z"
/>
<path fill="#54504b" d="
  M 392.27 569.55
  Q 392.73 569.64 392.46 570.02
  Q 392.23 570.33 391.49 570.15
  Q 388.63 569.47 385.72 569.06
  Q 385.37 569.01 385.65 568.79
  Q 385.85 568.64 386.25 568.66
  Q 388.24 568.75 392.27 569.55
  Z"
/>
<path fill="#ffffff" d="
  M 490.81 606.34
  Q 484.67 603.98 483.60 596.98
  Q 482.82 591.91 486.75 589.40
  C 491.60 587.88 498.41 588.44 498.54 594.95
  Q 498.71 603.61 490.81 606.34
  Z"
/>
<path fill="#7b7b7b" d="
  M 486.75 589.40
  Q 482.82 591.91 483.60 596.98
  Q 484.67 603.98 490.81 606.34
  C 480.76 615.44 470.81 587.40 486.75 589.40
  Z"
/>
<path fill="#ffffff" d="
  M 465.60 663.10
  L 453.67 663.01
  Q 453.20 663.00 453.23 662.54
  Q 453.85 653.97 451.99 644.27
  C 449.98 633.71 441.94 622.02 429.97 622.90
  Q 429.42 622.94 429.28 623.47
  L 428.30 627.02
  Q 423.84 645.56 431.06 662.44
  Q 431.29 662.98 430.70 662.98
  L 423.57 663.10
  L 417.87 662.98
  Q 417.37 662.97 417.45 662.48
  C 417.87 659.84 418.28 657.28 418.24 654.50
  C 417.85 629.50 424.02 607.96 442.86 590.19
  L 457.39 589.83
  Q 457.78 589.82 457.60 590.17
  Q 455.67 594.00 456.33 599.49
  Q 457.96 613.10 462.18 637.38
  Q 464.66 651.61 468.91 662.57
  Q 469.07 662.98 468.64 662.99
  L 465.60 663.10
  Z
  M 440.94 602.70
  Q 435.07 609.18 431.84 617.26
  Q 431.60 617.84 432.22 617.72
  Q 438.29 616.55 444.14 619.38
  L 447.60 622.18
  Q 448.03 622.53 447.93 621.98
  L 443.72 600.20
  Q 443.56 599.36 443.03 600.03
  L 440.94 602.70
  Z"
/>
<path fill="#7b7b7b" d="
  M 442.86 590.19
  C 424.02 607.96 417.85 629.50 418.24 654.50
  C 418.28 657.28 417.87 659.84 417.45 662.48
  Q 417.37 662.97 417.87 662.98
  L 423.57 663.10
  L 426.83 671.49
  Q 427.03 672.00 426.48 672.00
  L 411.78 672.00
  Q 411.26 672.00 411.39 671.50
  C 411.87 669.73 412.27 668.03 412.31 666.17
  C 412.62 653.88 412.73 643.24 416.03 630.25
  C 420.14 614.08 428.32 602.87 439.70 591.08
  Q 440.06 590.71 440.56 590.62
  L 442.86 590.19
  Z"
/>
<path fill="#7b7b7b" d="
  M 444.14 619.38
  L 440.94 602.70
  L 443.03 600.03
  Q 443.56 599.36 443.72 600.20
  L 447.93 621.98
  Q 448.03 622.53 447.60 622.18
  L 444.14 619.38
  Z"
/>
<path fill="#000000" d="
  M 440.94 602.70
  L 444.14 619.38
  Q 438.29 616.55 432.22 617.72
  Q 431.60 617.84 431.84 617.26
  Q 435.07 609.18 440.94 602.70
  Z"
/>
<path fill="#ffffff" d="
  M 492.42 664.02
  L 484.23 663.94
  Q 483.68 663.93 483.78 663.38
  Q 487.21 643.87 484.79 624.35
  C 484.53 622.24 483.58 620.10 482.66 618.27
  L 480.91 615.73
  Q 480.50 615.13 481.23 615.13
  L 496.95 615.13
  Q 497.45 615.13 497.37 615.62
  Q 493.50 639.51 497.39 663.40
  Q 497.48 663.97 496.90 663.98
  L 492.42 664.02
  Z"
/>
<path fill="#ffffff" d="
  M 326.00 653.66
  L 326.47 655.28
  Q 326.72 656.15 327.02 655.30
  Q 330.03 646.66 334.30 631.24
  Q 336.39 623.73 332.58 617.61
  L 349.48 617.65
  Q 350.12 617.65 349.76 618.17
  C 342.54 628.53 338.52 639.75 334.23 652.76
  Q 331.86 659.94 333.63 666.37
  Q 333.78 666.92 333.21 666.94
  L 330.38 667.07
  L 317.30 666.99
  Q 316.75 666.99 316.93 666.47
  C 319.20 659.98 317.56 656.33 315.16 648.77
  Q 309.98 632.42 301.39 617.73
  L 318.34 617.67
  Q 318.89 617.67 318.76 618.20
  Q 317.59 622.79 318.27 626.00
  Q 320.39 636.02 326.00 653.66
  Z"
/>
<path fill="#7b7b7b" d="
  M 332.58 617.61
  Q 336.39 623.73 334.30 631.24
  Q 330.03 646.66 327.02 655.30
  Q 326.72 656.15 326.47 655.28
  L 326.00 653.66
  Q 330.92 639.74 332.98 629.75
  Q 334.15 624.08 330.60 619.02
  Q 330.36 618.68 330.74 618.50
  L 332.58 617.61
  Z"
/>
<path fill="#ffffff" d="
  M 382.30 651.28
  L 383.43 655.53
  A 0.27 0.27 0.0 0 0 383.94 655.54
  Q 388.39 642.57 391.72 629.74
  Q 393.35 623.50 389.56 617.63
  L 406.47 617.66
  Q 407.01 617.66 406.70 618.10
  C 399.86 628.08 395.25 640.26 391.12 653.03
  Q 388.88 659.99 390.66 666.45
  Q 390.80 666.97 390.26 666.98
  L 385.50 667.10
  L 374.27 667.01
  Q 373.76 667.00 373.93 666.53
  C 376.28 659.67 374.45 655.94 371.81 647.73
  Q 366.74 631.96 358.40 617.78
  L 375.28 617.68
  Q 375.82 617.67 375.69 618.20
  Q 374.57 623.01 375.71 627.74
  Q 378.52 639.35 382.30 651.28
  Z"
/>
<path fill="#7b7b7b" d="
  M 389.56 617.63
  Q 393.35 623.50 391.72 629.74
  Q 388.39 642.57 383.94 655.54
  A 0.27 0.27 0.0 0 1 383.43 655.53
  L 382.30 651.28
  Q 383.91 646.25 387.77 632.24
  Q 389.79 624.90 386.01 618.86
  Q 385.67 618.31 386.31 618.30
  Q 388.30 618.25 389.56 617.63
  Z"
/>
<path fill="#7b7b7b" d="
  M 301.39 617.73
  Q 309.98 632.42 315.16 648.77
  C 317.56 656.33 319.20 659.98 316.93 666.47
  Q 316.75 666.99 317.30 666.99
  L 330.38 667.07
  L 331.68 671.44
  Q 331.85 672.00 331.26 672.00
  L 313.54 672.00
  Q 313.09 672.00 313.25 671.58
  Q 315.51 665.66 313.45 658.76
  Q 306.82 636.58 296.59 618.58
  Q 296.32 618.11 296.86 618.19
  Q 299.21 618.56 301.39 617.73
  Z"
/>
<path fill="#7b7b7b" d="
  M 358.40 617.78
  Q 366.74 631.96 371.81 647.73
  C 374.45 655.94 376.28 659.67 373.93 666.53
  Q 373.76 667.00 374.27 667.01
  L 385.50 667.10
  L 386.94 671.44
  Q 387.13 672.00 386.54 672.00
  L 368.76 672.00
  Q 368.14 672.00 368.42 671.45
  C 371.14 665.92 369.53 660.61 367.50 654.53
  Q 360.50 633.52 351.98 618.56
  Q 351.77 618.20 352.19 618.17
  L 358.40 617.78
  Z"
/>
<path fill="#7b7b7b" d="
  M 482.66 618.27
  C 483.58 620.10 484.53 622.24 484.79 624.35
  Q 487.21 643.87 483.78 663.38
  Q 483.68 663.93 484.23 663.94
  L 492.42 664.02
  L 493.85 671.53
  Q 493.94 672.00 493.47 672.00
  L 479.06 672.00
  Q 478.66 672.00 478.73 671.61
  Q 481.81 652.99 480.30 632.25
  Q 479.73 624.44 475.58 618.82
  Q 475.21 618.33 475.82 618.32
  L 482.66 618.27
  Z"
/>
<path fill="#7b7b7b" d="
  M 465.60 663.10
  L 469.08 671.48
  Q 469.30 672.00 468.74 672.00
  L 451.72 672.00
  Q 451.10 672.00 451.16 671.38
  Q 452.83 655.60 447.36 642.71
  Q 442.03 630.12 428.30 627.02
  L 429.28 623.47
  Q 429.42 622.94 429.97 622.90
  C 441.94 622.02 449.98 633.71 451.99 644.27
  Q 453.85 653.97 453.23 662.54
  Q 453.20 663.00 453.67 663.01
  L 465.60 663.10
  Z"
/>
</svg>
