<?xml version="1.0" encoding="UTF-8" standalone="no"?>
<!DOCTYPE svg PUBLIC "-//W3C//DTD SVG 1.1//EN" "http://www.w3.org/Graphics/SVG/1.1/DTD/svg11.dtd">
<svg xmlns="http://www.w3.org/2000/svg" version="1.1" viewBox="0.00 0.00 800.00 800.00">
<g stroke-width="2.00" fill="none" stroke-linecap="butt">
<path stroke="#bdbdbd" vector-effect="non-scaling-stroke" d="
  M 280.25 541.33
  Q 279.11 544.51 283.50 545.80
  Q 285.99 546.53 288.09 546.75"
/>
<path stroke="#dfdedc" vector-effect="non-scaling-stroke" d="
  M 288.09 546.75
  Q 299.13 550.03 303.53 550.75
  Q 309.94 551.79 316.24 553.30
  Q 323.14 554.95 328.93 555.86
  Q 335.54 556.91 344.63 558.59
  Q 376.08 564.41 407.50 570.35
  Q 413.03 571.39 418.99 570.35
  C 427.08 568.93 434.99 567.94 443.00 566.60
  Q 444.15 566.41 444.69 566.11
  Q 445.13 565.87 445.62 565.80
  Q 455.13 564.53 464.57 562.81
  Q 465.26 562.68 467.85 561.95
  C 470.58 561.18 473.93 561.42 476.22 560.88
  Q 488.27 558.05 498.24 556.62
  Q 502.70 555.98 506.48 555.01
  Q 511.37 553.75 514.67 553.27
  Q 523.97 551.92 533.05 549.36"
/>
<path stroke="#bdbdbd" vector-effect="non-scaling-stroke" d="
  M 533.05 549.36
  L 555.54 545.03"
/>
<path stroke="#dfdedc" vector-effect="non-scaling-stroke" d="
  M 555.54 545.03
  Q 559.37 540.73 561.34 537.71
  Q 575.43 516.13 589.61 494.61
  Q 590.94 492.60 595.65 485.16
  Q 598.66 480.41 601.86 475.80
  Q 603.22 473.85 604.82 471.01
  Q 606.21 468.54 607.80 466.20
  Q 611.29 461.06 611.34 460.98
  Q 639.73 416.91 668.00 372.75
  Q 668.27 372.33 668.23 371.83
  Q 668.12 370.65 667.42 369.77"
/>
<path stroke="#808080" vector-effect="non-scaling-stroke" d="
  M 667.42 369.77
  C 669.97 367.11 668.98 365.60 667.94 362.73
  Q 640.75 287.45 613.61 212.16
  Q 613.43 211.67 613.76 211.27
  L 626.27 195.80
  A 0.73 0.72 -45.4 0 0 626.27 194.89
  C 589.15 150.18 538.03 114.63 481.99 98.53
  Q 403.40 75.95 327.29 106.68
  C 280.04 125.76 238.84 157.75 204.59 195.28
  Q 204.30 195.61 204.62 195.91
  L 222.46 212.85
  Q 222.98 213.34 222.73 214.02
  L 167.79 366.28
  Q 167.61 366.76 167.89 367.20
  C 169.43 369.66 170.79 372.45 172.24 374.69
  Q 226.20 458.03 280.25 541.33"
/>
<path stroke="#605f5c" vector-effect="non-scaling-stroke" d="
  M 667.42 369.77
  L 556.73 541.00
  Q 556.46 541.42 556.06 541.70
  Q 555.69 541.95 555.46 542.32"
/>
<path stroke="#3e3e3e" vector-effect="non-scaling-stroke" d="
  M 555.46 542.32
  L 415.44 567.24
  A 4.38 4.26 -43.8 0 1 413.87 567.23
  Q 348.05 554.59 281.97 542.14
  C 281.23 542.00 280.90 541.69 280.25 541.33"
/>
<path stroke="#9d9c9a" vector-effect="non-scaling-stroke" d="
  M 533.05 549.36
  Q 531.12 549.28 524.99 550.35
  Q 496.04 555.37 467.11 560.51
  Q 448.58 563.80 430.01 566.88
  Q 429.92 566.89 426.98 567.21
  Q 424.87 567.44 421.76 568.29
  Q 413.82 570.44 405.13 567.97
  Q 403.91 567.62 402.85 567.51
  C 400.86 567.30 399.02 567.13 397.06 566.63
  Q 387.07 564.09 383.49 563.58
  Q 371.39 561.85 362.91 559.99
  Q 355.73 558.41 350.49 557.53
  Q 344.82 556.58 338.02 555.16
  Q 331.25 553.75 321.46 552.32
  Q 320.81 552.22 318.88 551.58
  Q 317.85 551.24 316.24 550.93
  Q 307.56 549.23 302.63 548.47
  Q 302.45 548.45 295.99 547.11
  Q 292.12 546.32 288.09 546.75"
/>
<path stroke="#9d9c9a" vector-effect="non-scaling-stroke" d="
  M 555.54 545.03
  Q 554.81 542.67 555.46 542.32"
/>
<path stroke="#bdbdbd" vector-effect="non-scaling-stroke" d="
  M 505.00 586.39
  C 490.09 585.60 499.87 612.05 509.71 603.29"
/>
<path stroke="#808080" vector-effect="non-scaling-stroke" d="
  M 509.71 603.29
  Q 514.53 602.21 516.51 597.69
  C 518.77 592.56 517.97 585.96 510.99 585.74
  Q 508.49 585.65 505.00 586.39"
/>
<path stroke="#3e3e3e" vector-effect="non-scaling-stroke" d="
  M 509.71 603.29
  Q 503.69 600.92 502.67 593.71
  Q 502.12 589.81 505.00 586.39"
/>
<path stroke="#bdbdbd" vector-effect="non-scaling-stroke" d="
  M 462.08 587.06
  L 459.56 587.64
  Q 459.07 587.76 458.71 588.11
  C 446.82 600.13 438.36 612.38 434.49 629.25
  Q 431.44 642.54 431.49 651.75
  Q 431.55 662.26 430.66 668.55
  Q 430.60 669.00 431.05 669.00
  L 445.47 669.00
  Q 446.07 669.00 445.86 668.43
  L 442.70 660.00"
/>
<path stroke="#808080" vector-effect="non-scaling-stroke" d="
  M 442.70 660.00
  L 449.71 659.92
  Q 450.31 659.91 450.07 659.36
  Q 442.74 642.57 447.29 624.13"
/>
<path stroke="#bdbdbd" vector-effect="non-scaling-stroke" d="
  M 447.29 624.13
  C 467.64 627.61 471.60 651.55 470.27 668.48
  Q 470.23 669.00 470.76 669.00
  L 487.73 669.00
  Q 488.31 669.00 488.09 668.47
  L 484.71 660.06"
/>
<path stroke="#808080" vector-effect="non-scaling-stroke" d="
  M 484.71 660.06
  L 487.65 659.98
  Q 488.12 659.97 487.95 659.54
  Q 484.00 649.74 481.72 637.25
  Q 477.33 613.28 475.32 596.49
  Q 474.67 591.01 476.52 587.19
  Q 476.70 586.83 476.30 586.84
  L 462.08 587.06"
/>
<path stroke="#3e3e3e" vector-effect="non-scaling-stroke" d="
  M 484.71 660.06
  L 472.71 659.98
  Q 472.22 659.98 472.25 659.48
  Q 472.85 650.91 471.02 641.27
  C 469.00 630.66 461.07 619.26 449.14 619.84
  Q 448.59 619.87 448.33 620.36
  Q 447.38 622.18 447.29 624.13"
/>
<path stroke="#3e3e3e" vector-effect="non-scaling-stroke" d="
  M 442.70 660.00
  L 436.87 659.96
  Q 436.36 659.96 436.45 659.45
  C 436.94 656.60 437.34 653.88 437.27 650.84
  C 436.70 626.05 443.47 604.42 462.08 587.06"
/>
<path stroke="#bdbdbd" vector-effect="non-scaling-stroke" d="
  M 501.69 615.24
  L 494.81 615.28
  Q 494.21 615.29 494.56 615.78
  C 499.45 622.75 499.47 628.62 499.77 638.30
  Q 500.25 653.50 497.68 668.57
  Q 497.61 669.00 498.04 669.00
  L 512.47 669.00
  Q 512.95 669.00 512.86 668.52
  L 511.42 661.09"
/>
<path stroke="#808080" vector-effect="non-scaling-stroke" d="
  M 511.42 661.09
  L 515.88 660.96
  Q 516.48 660.95 516.38 660.36
  Q 512.49 636.49 516.37 612.61
  Q 516.44 612.13 515.96 612.13
  L 500.23 612.12
  Q 499.48 612.12 499.91 612.73
  L 501.69 615.24"
/>
<path stroke="#3e3e3e" vector-effect="non-scaling-stroke" d="
  M 511.42 661.09
  L 503.29 660.95
  Q 502.76 660.94 502.85 660.41
  Q 505.70 643.31 504.30 625.26
  Q 503.86 619.51 501.69 615.24"
/>
<path stroke="#bdbdbd" vector-effect="non-scaling-stroke" d="
  M 320.37 614.72
  Q 318.24 615.52 315.86 615.19
  Q 315.23 615.10 315.55 615.65
  Q 327.65 636.66 333.58 660.22
  Q 334.31 663.08 332.15 668.47
  Q 331.94 669.00 332.51 669.00
  L 350.26 669.00
  Q 350.84 669.00 350.68 668.44
  L 349.42 664.02"
/>
<path stroke="#808080" vector-effect="non-scaling-stroke" d="
  M 349.42 664.02
  L 352.34 663.92
  Q 352.97 663.90 352.77 663.30
  Q 351.06 658.33 352.07 654.12
  Q 356.89 634.16 368.59 615.10
  Q 368.88 614.64 368.33 614.64
  L 353.28 614.64"
/>
<path stroke="#bdbdbd" vector-effect="non-scaling-stroke" d="
  M 353.28 614.64
  Q 351.55 614.46 349.73 615.41
  Q 349.31 615.63 349.58 616.02
  Q 353.06 621.07 352.01 626.50
  Q 350.11 636.38 344.94 650.67"
/>
<path stroke="#808080" vector-effect="non-scaling-stroke" d="
  M 344.94 650.67
  Q 342.05 641.24 338.06 626.49
  Q 336.50 620.72 337.64 615.18
  Q 337.75 614.66 337.22 614.66
  L 320.37 614.72"
/>
<path stroke="#3e3e3e" vector-effect="non-scaling-stroke" d="
  M 344.94 650.67
  L 345.55 652.32
  Q 345.79 653.00 346.03 652.32
  Q 349.71 641.92 353.49 627.49
  Q 355.23 620.86 352.00 615.40
  A 0.48 0.47 65.2 0 1 352.25 614.71
  Q 352.66 614.56 353.28 614.64"
/>
<path stroke="#3e3e3e" vector-effect="non-scaling-stroke" d="
  M 349.42 664.02
  L 336.26 663.95
  Q 335.64 663.94 335.87 663.37
  Q 337.71 658.85 337.02 655.76
  Q 332.47 635.35 320.37 614.72"
/>
<path stroke="#bdbdbd" vector-effect="non-scaling-stroke" d="
  M 377.26 614.77
  L 371.24 615.18
  Q 370.80 615.21 371.02 615.60
  Q 380.56 632.46 387.56 654.94
  Q 389.90 662.44 387.63 668.54
  Q 387.46 669.00 387.95 669.00
  L 405.52 669.00
  Q 406.11 669.00 405.97 668.42
  L 404.89 663.96"
/>
<path stroke="#808080" vector-effect="non-scaling-stroke" d="
  M 404.89 663.96
  L 409.23 663.93
  Q 409.81 663.92 409.65 663.36
  Q 407.87 657.11 409.96 650.50
  C 413.87 638.16 418.47 625.52 425.75 615.24
  Q 426.14 614.68 425.46 614.68
  L 408.39 614.73"
/>
<path stroke="#bdbdbd" vector-effect="non-scaling-stroke" d="
  M 408.39 614.73
  Q 406.90 615.32 405.29 615.27
  Q 404.50 615.24 404.93 615.90
  Q 408.29 621.00 407.51 626.01
  Q 406.59 632.01 401.28 648.37"
/>
<path stroke="#808080" vector-effect="non-scaling-stroke" d="
  M 401.28 648.37
  Q 396.54 633.26 394.40 623.51
  Q 393.60 619.88 394.72 615.21
  Q 394.85 614.67 394.28 614.67
  L 377.26 614.77"
/>
<path stroke="#3e3e3e" vector-effect="non-scaling-stroke" d="
  M 401.28 648.37
  L 402.34 652.22
  Q 402.65 653.35 403.04 652.24
  Q 407.76 638.78 411.02 625.27
  Q 412.33 619.86 408.39 614.73"
/>
<path stroke="#3e3e3e" vector-effect="non-scaling-stroke" d="
  M 404.89 663.96
  L 393.29 663.93
  Q 392.70 663.93 392.92 663.38
  Q 394.85 658.52 393.71 653.99
  C 390.55 641.44 384.17 625.31 377.26 614.77"
/>
<path stroke="#2d2720" vector-effect="non-scaling-stroke" d="
  M 621.10 194.93
  C 579.71 146.22 521.22 108.67 457.79 96.90
  Q 400.27 86.22 344.30 104.74
  C 292.29 121.94 246.90 155.41 210.20 195.13
  Q 209.90 195.46 210.23 195.76
  L 232.89 217.17
  Q 233.31 217.57 233.70 217.14
  C 280.75 166.75 347.10 133.12 416.76 131.69
  C 489.69 130.19 552.12 169.14 599.55 221.41
  Q 599.98 221.88 600.37 221.39
  L 621.11 195.83
  Q 621.48 195.38 621.10 194.93"
/>
<path stroke="#605f5c" vector-effect="non-scaling-stroke" d="
  M 244.64 234.77
  C 224.11 268.80 214.01 307.60 214.51 347.50
  C 215.33 413.76 250.92 474.64 306.32 510.41
  C 365.20 548.42 439.80 554.56 503.26 524.02
  C 567.89 492.91 614.14 428.48 619.36 356.22
  Q 624.18 289.49 589.85 231.98"
/>
<path stroke="#3e3e3e" vector-effect="non-scaling-stroke" d="
  M 589.85 231.98
  C 570.11 200.28 542.15 174.72 508.48 158.85
  C 445.52 129.19 367.78 132.53 308.63 169.79
  Q 269.20 194.64 244.64 234.77"
/>
<path stroke="#9d9c9a" vector-effect="non-scaling-stroke" d="
  M 589.85 231.98
  L 587.28 233.85"
/>
<path stroke="#84807c" vector-effect="non-scaling-stroke" d="
  M 587.28 233.85
  Q 587.47 236.94 584.19 237.24"
/>
<path stroke="#686663" vector-effect="non-scaling-stroke" d="
  M 584.19 237.24
  Q 585.53 236.25 585.88 234.63
  A 1.37 1.36 -55.0 0 0 585.71 233.64
  C 567.79 204.44 541.68 180.49 511.97 164.95
  C 481.69 149.12 446.92 142.20 412.50 143.09
  C 344.98 144.84 284.33 178.24 248.78 235.68
  Q 247.68 237.47 249.70 238.06
  Q 250.66 238.34 251.78 236.97
  Q 252.54 236.03 253.24 235.60
  Q 255.52 234.20 257.69 232.97"
/>
<path stroke="#7b7b7b" vector-effect="non-scaling-stroke" d="
  M 257.69 232.97
  L 261.59 230.32
  A 0.13 0.12 5.4 0 1 261.75 230.51
  L 256.50 235.58"
/>
<path stroke="#84807c" vector-effect="non-scaling-stroke" d="
  M 256.50 235.58
  C 254.57 237.73 252.32 240.91 249.06 240.28
  Q 248.57 240.18 248.49 239.69
  L 248.23 238.21
  Q 248.14 237.71 247.73 238.01
  L 246.85 238.64"
/>
<path stroke="#9d9c9a" vector-effect="non-scaling-stroke" d="
  M 246.85 238.64
  Q 246.56 235.33 244.64 234.77"
/>
<path stroke="#a6a19b" vector-effect="non-scaling-stroke" d="
  M 587.28 233.85
  Q 587.33 234.71 587.36 235.37
  Q 587.40 236.13 587.79 236.78
  C 621.74 294.26 625.67 366.11 596.23 426.24
  C 565.19 489.63 501.94 534.46 430.80 539.07
  C 316.97 546.44 215.68 455.06 218.48 340.02
  Q 219.80 285.67 246.85 238.64"
/>
<path stroke="#84807c" vector-effect="non-scaling-stroke" d="
  M 256.50 235.58
  Q 261.89 231.41 267.06 227.04
  C 268.09 226.17 269.77 225.76 270.61 224.84
  C 273.40 221.81 277.66 219.38 279.98 217.63
  Q 288.98 210.81 298.04 204.03"
/>
<path stroke="#706b64" vector-effect="non-scaling-stroke" d="
  M 584.19 237.24
  Q 582.55 238.80 580.48 239.00
  A 1.08 1.07 -24.0 0 1 579.59 238.66
  Q 564.89 223.26 550.87 212.16
  Q 507.60 177.88 452.75 164.88
  Q 429.48 159.37 405.21 161.25
  Q 395.63 161.99 385.45 164.25
  Q 363.73 169.08 343.13 178.63
  Q 319.12 189.77 298.04 204.03"
/>
<path stroke="#686663" vector-effect="non-scaling-stroke" d="
  M 298.04 204.03
  Q 297.38 203.81 296.81 204.43
  Q 296.77 204.46 296.73 204.42
  Q 296.71 204.40 296.70 204.39
  Q 296.56 204.27 296.70 204.18
  L 303.96 199.50
  Q 304.97 198.86 303.80 199.12
  L 302.25 199.46
  A 1.43 1.33 -71.0 0 0 301.61 199.80
  Q 298.49 202.65 294.84 204.68
  Q 291.09 206.77 289.33 208.18
  Q 286.76 210.24 284.27 212.37
  C 283.10 213.37 281.47 213.87 279.97 214.98
  Q 269.55 222.66 265.86 225.86
  Q 262.48 228.79 261.42 229.39
  Q 260.24 230.07 257.69 232.97"
/>
<path stroke="#605f5c" vector-effect="non-scaling-stroke" d="
  M 233.90 223.19
  Q 233.20 223.27 232.03 222.03"
/>
<path stroke="#3e3e3e" vector-effect="non-scaling-stroke" d="
  M 232.03 222.03
  L 224.47 214.77
  Q 224.00 214.31 223.77 214.93
  L 216.54 234.96"
/>
<path stroke="#605f5c" vector-effect="non-scaling-stroke" d="
  M 216.54 234.96
  L 169.17 366.11
  A 1.04 1.01 -52.3 0 0 169.27 366.99
  L 281.32 539.98
  A 2.09 2.06 78.5 0 0 282.69 540.90
  Q 347.22 553.19 411.73 565.47
  Q 414.50 566.00 417.27 565.50
  Q 486.00 553.17 554.31 540.89
  A 2.08 2.08 0.0 0 0 555.69 539.97
  L 667.44 367.44
  Q 668.01 366.57 667.65 365.60
  L 619.94 233.45"
/>
<path stroke="#3e3e3e" vector-effect="non-scaling-stroke" d="
  M 619.94 233.45
  L 612.82 213.68
  Q 612.51 212.82 611.93 213.53
  L 604.86 222.27"
/>
<path stroke="#605f5c" vector-effect="non-scaling-stroke" d="
  M 604.86 222.27
  L 600.60 227.49
  Q 600.25 227.92 599.78 227.64
  Q 599.05 227.20 598.72 226.55"
/>
<path stroke="#3e3e3e" vector-effect="non-scaling-stroke" d="
  M 598.72 226.55
  Q 584.48 210.48 570.13 197.86
  Q 564.40 192.81 569.69 198.32
  Q 582.16 211.30 593.52 229.00"
/>
<path stroke="#605f5c" vector-effect="non-scaling-stroke" d="
  M 593.52 229.00
  C 650.46 319.24 630.87 436.90 547.86 503.85
  C 463.29 572.05 340.67 563.57 265.88 485.36
  C 239.66 457.95 220.40 422.71 212.72 385.27
  Q 195.67 302.08 240.23 229.27"
/>
<path stroke="#3e3e3e" vector-effect="non-scaling-stroke" d="
  M 240.23 229.27
  Q 257.86 201.80 282.06 181.43
  Q 284.63 179.27 281.83 181.12
  Q 255.71 198.38 233.90 223.19"
/>
<path stroke="#9d9c9a" vector-effect="non-scaling-stroke" d="
  M 240.23 229.27
  L 239.63 229.19
  Q 239.07 229.12 238.88 228.58
  Q 238.10 226.35 236.13 224.93
  Q 235.74 224.65 235.27 224.57
  Q 233.98 224.33 233.90 223.19"
/>
<path stroke="#9d9c9a" vector-effect="non-scaling-stroke" d="
  M 619.94 233.45
  Q 618.23 234.06 617.43 232.77
  Q 615.72 229.98 613.68 228.45
  Q 611.78 227.02 610.73 225.83
  Q 608.10 222.87 604.86 222.27"
/>
<path stroke="#9d9c9a" vector-effect="non-scaling-stroke" d="
  M 598.72 226.55
  L 593.52 229.00"
/>
<path stroke="#9d9c9a" vector-effect="non-scaling-stroke" d="
  M 232.03 222.03
  Q 231.05 222.88 230.14 222.56
  Q 229.63 222.38 229.28 222.78
  L 218.80 234.78
  Q 218.48 235.15 217.99 235.10
  L 216.54 234.96"
/>
<path stroke="#706b64" vector-effect="non-scaling-stroke" d="
  M 495.80 465.82
  C 544.90 435.99 570.57 380.57 563.89 323.50
  C 554.40 242.34 481.81 186.86 401.38 194.27
  Q 355.44 198.51 320.75 227.14
  C 269.25 269.64 254.04 342.61 281.40 402.72
  C 318.13 483.43 421.20 511.15 495.80 465.82"
/>
<path stroke="#2a2826" vector-effect="non-scaling-stroke" d="
  M 514.50 445.19
  C 568.91 393.58 575.54 309.84 528.30 251.23
  C 491.80 205.93 430.24 188.46 374.07 204.35
  C 318.61 220.04 278.53 270.54 273.51 327.74
  C 268.62 383.62 297.29 439.12 347.33 465.42
  C 400.36 493.30 470.10 487.31 514.50 445.19"
/>
<path stroke="#1d3c58" vector-effect="non-scaling-stroke" d="
  M 545.01 340.50
  A 128.51 128.51 0.0 0 0 416.50 211.99
  A 128.51 128.51 0.0 0 0 287.99 340.50
  A 128.51 128.51 0.0 0 0 416.50 469.01
  A 128.51 128.51 0.0 0 0 545.01 340.50"
/>
<path stroke="#1d3c58" vector-effect="non-scaling-stroke" d="
  M 509.78 340.31
  C 494.39 320.73 474.89 300.72 451.35 291.23
  C 441.10 287.11 430.69 286.03 420.16 284.45
  Q 417.38 284.04 414.35 284.57
  C 409.39 285.43 403.90 285.79 399.65 286.85
  C 369.11 294.44 341.86 316.66 322.06 340.47
  A 0.66 0.66 0.0 0 0 322.06 341.33
  C 340.08 362.79 365.08 383.28 392.72 392.37
  Q 398.17 394.16 404.53 394.75
  C 407.80 395.06 410.50 395.76 413.58 396.40
  Q 416.51 397.00 419.45 396.50
  Q 424.06 395.72 428.65 394.79
  C 429.53 394.61 430.25 395.02 431.03 394.92
  Q 452.87 392.11 469.78 380.27
  Q 492.11 364.63 509.79 341.06
  Q 510.07 340.68 509.78 340.31"
/>
<path stroke="#9dbcd7" vector-effect="non-scaling-stroke" d="
  M 374.9874 414.1703
  A 20.99 20.49 -0.9 0 0 353.6782 394.0125
  A 20.99 20.49 -0.9 0 0 333.0126 414.8297
  A 20.99 20.49 -0.9 0 0 354.3218 434.9875
  A 20.99 20.49 -0.9 0 0 374.9874 414.1703"
/>
<path stroke="#7a6132" vector-effect="non-scaling-stroke" d="
  M 468.54 334.99
  C 465.97 316.53 452.84 297.03 435.35 289.53
  C 430.90 287.62 425.43 287.22 420.41 286.44
  Q 417.61 286.00 414.59 286.51
  C 407.35 287.72 400.19 287.61 393.97 291.68
  Q 373.70 304.96 367.14 327.35
  C 358.41 357.17 377.31 378.95 402.16 391.25
  C 405.64 392.97 409.40 393.53 413.21 394.31
  Q 416.58 395.00 419.81 394.54
  Q 426.79 393.55 429.73 392.22
  C 452.91 381.76 472.30 361.97 468.54 334.99"
/>
<path stroke="#808080" vector-effect="non-scaling-stroke" d="
  M 470.06 328.13
  C 478.12 357.04 460.74 378.81 436.50 391.70
  A 0.19 0.19 0.0 0 0 436.63 392.06
  C 466.07 386.34 489.11 364.11 507.31 341.34
  Q 507.67 340.89 507.32 340.43
  Q 492.07 320.67 471.91 305.34
  Q 458.44 295.10 442.61 290.27
  Q 440.50 289.62 442.36 290.81
  Q 463.40 304.26 470.06 328.13"
/>
<path stroke="#808080" vector-effect="non-scaling-stroke" d="
  M 324.67 341.06
  C 342.43 362.68 369.52 384.43 397.14 391.50
  A 0.14 0.14 0.0 0 0 397.24 391.25
  C 373.77 378.13 356.73 357.30 364.45 328.63
  Q 370.49 306.21 389.47 292.51
  Q 391.27 291.21 389.20 292.00
  C 364.11 301.62 342.04 320.02 324.67 340.31
  Q 324.36 340.69 324.67 341.06"
/>
<path stroke="#7a6132" vector-effect="non-scaling-stroke" d="
  M 416.8197 351.9686
  A 11.48 10.99 90.9 0 0 427.9886 340.6626
  A 11.48 10.99 90.9 0 0 417.1803 329.0114
  A 11.48 10.99 90.9 0 0 406.0114 340.3174
  A 11.48 10.99 90.9 0 0 416.8197 351.9686"
/>
<path stroke="#808080" vector-effect="non-scaling-stroke" d="
  M 459.76 599.80
  Q 454.01 606.62 450.74 614.27
  Q 450.51 614.80 451.08 614.70
  Q 457.33 613.62 463.02 616.33"
/>
<path stroke="#3e3e3e" vector-effect="non-scaling-stroke" d="
  M 463.02 616.33
  L 466.61 619.20
  Q 467.06 619.55 466.95 618.99
  L 462.73 597.20
  Q 462.57 596.38 462.04 597.02
  L 459.76 599.80"
/>
<path stroke="#bdbdbd" vector-effect="non-scaling-stroke" d="
  M 463.02 616.33
  L 459.76 599.80"
/>
</g>
<path fill="#ffffff" d="
  M 0.00 0.00
  L 800.00 0.00
  L 800.00 800.00
  L 0.00 800.00
  L 0.00 0.00
  Z
  M 280.25 541.33
  Q 279.11 544.51 283.50 545.80
  Q 285.99 546.53 288.09 546.75
  Q 299.13 550.03 303.53 550.75
  Q 309.94 551.79 316.24 553.30
  Q 323.14 554.95 328.93 555.86
  Q 335.54 556.91 344.63 558.59
  Q 376.08 564.41 407.50 570.35
  Q 413.03 571.39 418.99 570.35
  C 427.08 568.93 434.99 567.94 443.00 566.60
  Q 444.15 566.41 444.69 566.11
  Q 445.13 565.87 445.62 565.80
  Q 455.13 564.53 464.57 562.81
  Q 465.26 562.68 467.85 561.95
  C 470.58 561.18 473.93 561.42 476.22 560.88
  Q 488.27 558.05 498.24 556.62
  Q 502.70 555.98 506.48 555.01
  Q 511.37 553.75 514.67 553.27
  Q 523.97 551.92 533.05 549.36
  L 555.54 545.03
  Q 559.37 540.73 561.34 537.71
  Q 575.43 516.13 589.61 494.61
  Q 590.94 492.60 595.65 485.16
  Q 598.66 480.41 601.86 475.80
  Q 603.22 473.85 604.82 471.01
  Q 606.21 468.54 607.80 466.20
  Q 611.29 461.06 611.34 460.98
  Q 639.73 416.91 668.00 372.75
  Q 668.27 372.33 668.23 371.83
  Q 668.12 370.65 667.42 369.77
  C 669.97 367.11 668.98 365.60 667.94 362.73
  Q 640.75 287.45 613.61 212.16
  Q 613.43 211.67 613.76 211.27
  L 626.27 195.80
  A 0.73 0.72 -45.4 0 0 626.27 194.89
  C 589.15 150.18 538.03 114.63 481.99 98.53
  Q 403.40 75.95 327.29 106.68
  C 280.04 125.76 238.84 157.75 204.59 195.28
  Q 204.30 195.61 204.62 195.91
  L 222.46 212.85
  Q 222.98 213.34 222.73 214.02
  L 167.79 366.28
  Q 167.61 366.76 167.89 367.20
  C 169.43 369.66 170.79 372.45 172.24 374.69
  Q 226.20 458.03 280.25 541.33
  Z
  M 505.00 586.39
  C 490.09 585.60 499.87 612.05 509.71 603.29
  Q 514.53 602.21 516.51 597.69
  C 518.77 592.56 517.97 585.96 510.99 585.74
  Q 508.49 585.65 505.00 586.39
  Z
  M 462.08 587.06
  L 459.56 587.64
  Q 459.07 587.76 458.71 588.11
  C 446.82 600.13 438.36 612.38 434.49 629.25
  Q 431.44 642.54 431.49 651.75
  Q 431.55 662.26 430.66 668.55
  Q 430.60 669.00 431.05 669.00
  L 445.47 669.00
  Q 446.07 669.00 445.86 668.43
  L 442.70 660.00
  L 449.71 659.92
  Q 450.31 659.91 450.07 659.36
  Q 442.74 642.57 447.29 624.13
  C 467.64 627.61 471.60 651.55 470.27 668.48
  Q 470.23 669.00 470.76 669.00
  L 487.73 669.00
  Q 488.31 669.00 488.09 668.47
  L 484.71 660.06
  L 487.65 659.98
  Q 488.12 659.97 487.95 659.54
  Q 484.00 649.74 481.72 637.25
  Q 477.33 613.28 475.32 596.49
  Q 474.67 591.01 476.52 587.19
  Q 476.70 586.83 476.30 586.84
  L 462.08 587.06
  Z
  M 501.69 615.24
  L 494.81 615.28
  Q 494.21 615.29 494.56 615.78
  C 499.45 622.75 499.47 628.62 499.77 638.30
  Q 500.25 653.50 497.68 668.57
  Q 497.61 669.00 498.04 669.00
  L 512.47 669.00
  Q 512.95 669.00 512.86 668.52
  L 511.42 661.09
  L 515.88 660.96
  Q 516.48 660.95 516.38 660.36
  Q 512.49 636.49 516.37 612.61
  Q 516.44 612.13 515.96 612.13
  L 500.23 612.12
  Q 499.48 612.12 499.91 612.73
  L 501.69 615.24
  Z
  M 320.37 614.72
  Q 318.24 615.52 315.86 615.19
  Q 315.23 615.10 315.55 615.65
  Q 327.65 636.66 333.58 660.22
  Q 334.31 663.08 332.15 668.47
  Q 331.94 669.00 332.51 669.00
  L 350.26 669.00
  Q 350.84 669.00 350.68 668.44
  L 349.42 664.02
  L 352.34 663.92
  Q 352.97 663.90 352.77 663.30
  Q 351.06 658.33 352.07 654.12
  Q 356.89 634.16 368.59 615.10
  Q 368.88 614.64 368.33 614.64
  L 353.28 614.64
  Q 351.55 614.46 349.73 615.41
  Q 349.31 615.63 349.58 616.02
  Q 353.06 621.07 352.01 626.50
  Q 350.11 636.38 344.94 650.67
  Q 342.05 641.24 338.06 626.49
  Q 336.50 620.72 337.64 615.18
  Q 337.75 614.66 337.22 614.66
  L 320.37 614.72
  Z
  M 377.26 614.77
  L 371.24 615.18
  Q 370.80 615.21 371.02 615.60
  Q 380.56 632.46 387.56 654.94
  Q 389.90 662.44 387.63 668.54
  Q 387.46 669.00 387.95 669.00
  L 405.52 669.00
  Q 406.11 669.00 405.97 668.42
  L 404.89 663.96
  L 409.23 663.93
  Q 409.81 663.92 409.65 663.36
  Q 407.87 657.11 409.96 650.50
  C 413.87 638.16 418.47 625.52 425.75 615.24
  Q 426.14 614.68 425.46 614.68
  L 408.39 614.73
  Q 406.90 615.32 405.29 615.27
  Q 404.50 615.24 404.93 615.90
  Q 408.29 621.00 407.51 626.01
  Q 406.59 632.01 401.28 648.37
  Q 396.54 633.26 394.40 623.51
  Q 393.60 619.88 394.72 615.21
  Q 394.85 614.67 394.28 614.67
  L 377.26 614.77
  Z"
/>
<path fill="#000000" d="
  M 667.42 369.77
  L 556.73 541.00
  Q 556.46 541.42 556.06 541.70
  Q 555.69 541.95 555.46 542.32
  L 415.44 567.24
  A 4.38 4.26 -43.8 0 1 413.87 567.23
  Q 348.05 554.59 281.97 542.14
  C 281.23 542.00 280.90 541.69 280.25 541.33
  Q 226.20 458.03 172.24 374.69
  C 170.79 372.45 169.43 369.66 167.89 367.20
  Q 167.61 366.76 167.79 366.28
  L 222.73 214.02
  Q 222.98 213.34 222.46 212.85
  L 204.62 195.91
  Q 204.30 195.61 204.59 195.28
  C 238.84 157.75 280.04 125.76 327.29 106.68
  Q 403.40 75.95 481.99 98.53
  C 538.03 114.63 589.15 150.18 626.27 194.89
  A 0.73 0.72 -45.4 0 1 626.27 195.80
  L 613.76 211.27
  Q 613.43 211.67 613.61 212.16
  Q 640.75 287.45 667.94 362.73
  C 668.98 365.60 669.97 367.11 667.42 369.77
  Z
  M 621.10 194.93
  C 579.71 146.22 521.22 108.67 457.79 96.90
  Q 400.27 86.22 344.30 104.74
  C 292.29 121.94 246.90 155.41 210.20 195.13
  Q 209.90 195.46 210.23 195.76
  L 232.89 217.17
  Q 233.31 217.57 233.70 217.14
  C 280.75 166.75 347.10 133.12 416.76 131.69
  C 489.69 130.19 552.12 169.14 599.55 221.41
  Q 599.98 221.88 600.37 221.39
  L 621.11 195.83
  Q 621.48 195.38 621.10 194.93
  Z
  M 244.64 234.77
  C 224.11 268.80 214.01 307.60 214.51 347.50
  C 215.33 413.76 250.92 474.64 306.32 510.41
  C 365.20 548.42 439.80 554.56 503.26 524.02
  C 567.89 492.91 614.14 428.48 619.36 356.22
  Q 624.18 289.49 589.85 231.98
  C 570.11 200.28 542.15 174.72 508.48 158.85
  C 445.52 129.19 367.78 132.53 308.63 169.79
  Q 269.20 194.64 244.64 234.77
  Z
  M 233.90 223.19
  Q 233.20 223.27 232.03 222.03
  L 224.47 214.77
  Q 224.00 214.31 223.77 214.93
  L 216.54 234.96
  L 169.17 366.11
  A 1.04 1.01 -52.3 0 0 169.27 366.99
  L 281.32 539.98
  A 2.09 2.06 78.5 0 0 282.69 540.90
  Q 347.22 553.19 411.73 565.47
  Q 414.50 566.00 417.27 565.50
  Q 486.00 553.17 554.31 540.89
  A 2.08 2.08 0.0 0 0 555.69 539.97
  L 667.44 367.44
  Q 668.01 366.57 667.65 365.60
  L 619.94 233.45
  L 612.82 213.68
  Q 612.51 212.82 611.93 213.53
  L 604.86 222.27
  L 600.60 227.49
  Q 600.25 227.92 599.78 227.64
  Q 599.05 227.20 598.72 226.55
  Q 584.48 210.48 570.13 197.86
  Q 564.40 192.81 569.69 198.32
  Q 582.16 211.30 593.52 229.00
  C 650.46 319.24 630.87 436.90 547.86 503.85
  C 463.29 572.05 340.67 563.57 265.88 485.36
  C 239.66 457.95 220.40 422.71 212.72 385.27
  Q 195.67 302.08 240.23 229.27
  Q 257.86 201.80 282.06 181.43
  Q 284.63 179.27 281.83 181.12
  Q 255.71 198.38 233.90 223.19
  Z"
/>
<path fill="#594e40" d="
  M 457.79 96.90
  C 521.22 108.67 579.71 146.22 621.10 194.93
  Q 621.48 195.38 621.11 195.83
  L 600.37 221.39
  Q 599.98 221.88 599.55 221.41
  C 552.12 169.14 489.69 130.19 416.76 131.69
  C 347.10 133.12 280.75 166.75 233.70 217.14
  Q 233.31 217.57 232.89 217.17
  L 210.23 195.76
  Q 209.90 195.46 210.20 195.13
  C 246.90 155.41 292.29 121.94 344.30 104.74
  Q 400.27 86.22 457.79 96.90
  Z"
/>
<path fill="#7b7b7b" d="
  M 589.85 231.98
  L 587.28 233.85
  Q 587.47 236.94 584.19 237.24
  Q 585.53 236.25 585.88 234.63
  A 1.37 1.36 -55.0 0 0 585.71 233.64
  C 567.79 204.44 541.68 180.49 511.97 164.95
  C 481.69 149.12 446.92 142.20 412.50 143.09
  C 344.98 144.84 284.33 178.24 248.78 235.68
  Q 247.68 237.47 249.70 238.06
  Q 250.66 238.34 251.78 236.97
  Q 252.54 236.03 253.24 235.60
  Q 255.52 234.20 257.69 232.97
  L 261.59 230.32
  A 0.13 0.12 5.4 0 1 261.75 230.51
  L 256.50 235.58
  C 254.57 237.73 252.32 240.91 249.06 240.28
  Q 248.57 240.18 248.49 239.69
  L 248.23 238.21
  Q 248.14 237.71 247.73 238.01
  L 246.85 238.64
  Q 246.56 235.33 244.64 234.77
  Q 269.20 194.64 308.63 169.79
  C 367.78 132.53 445.52 129.19 508.48 158.85
  C 542.15 174.72 570.11 200.28 589.85 231.98
  Z"
/>
<path fill="#54504b" d="
  M 584.19 237.24
  Q 582.55 238.80 580.48 239.00
  A 1.08 1.07 -24.0 0 1 579.59 238.66
  Q 564.89 223.26 550.87 212.16
  Q 507.60 177.88 452.75 164.88
  Q 429.48 159.37 405.21 161.25
  Q 395.63 161.99 385.45 164.25
  Q 363.73 169.08 343.13 178.63
  Q 319.12 189.77 298.04 204.03
  Q 297.38 203.81 296.81 204.43
  Q 296.77 204.46 296.73 204.42
  Q 296.71 204.40 296.70 204.39
  Q 296.56 204.27 296.70 204.18
  L 303.96 199.50
  Q 304.97 198.86 303.80 199.12
  L 302.25 199.46
  A 1.43 1.33 -71.0 0 0 301.61 199.80
  Q 298.49 202.65 294.84 204.68
  Q 291.09 206.77 289.33 208.18
  Q 286.76 210.24 284.27 212.37
  C 283.10 213.37 281.47 213.87 279.97 214.98
  Q 269.55 222.66 265.86 225.86
  Q 262.48 228.79 261.42 229.39
  Q 260.24 230.07 257.69 232.97
  Q 255.52 234.20 253.24 235.60
  Q 252.54 236.03 251.78 236.97
  Q 250.66 238.34 249.70 238.06
  Q 247.68 237.47 248.78 235.68
  C 284.33 178.24 344.98 144.84 412.50 143.09
  C 446.92 142.20 481.69 149.12 511.97 164.95
  C 541.68 180.49 567.79 204.44 585.71 233.64
  A 1.37 1.36 -55.0 0 1 585.88 234.63
  Q 585.53 236.25 584.19 237.24
  Z"
/>
<path fill="#8c857d" d="
  M 584.19 237.24
  Q 587.47 236.94 587.28 233.85
  Q 587.33 234.71 587.36 235.37
  Q 587.40 236.13 587.79 236.78
  C 621.74 294.26 625.67 366.11 596.23 426.24
  C 565.19 489.63 501.94 534.46 430.80 539.07
  C 316.97 546.44 215.68 455.06 218.48 340.02
  Q 219.80 285.67 246.85 238.64
  L 247.73 238.01
  Q 248.14 237.71 248.23 238.21
  L 248.49 239.69
  Q 248.57 240.18 249.06 240.28
  C 252.32 240.91 254.57 237.73 256.50 235.58
  Q 261.89 231.41 267.06 227.04
  C 268.09 226.17 269.77 225.76 270.61 224.84
  C 273.40 221.81 277.66 219.38 279.98 217.63
  Q 288.98 210.81 298.04 204.03
  Q 319.12 189.77 343.13 178.63
  Q 363.73 169.08 385.45 164.25
  Q 395.63 161.99 405.21 161.25
  Q 429.48 159.37 452.75 164.88
  Q 507.60 177.88 550.87 212.16
  Q 564.89 223.26 579.59 238.66
  A 1.08 1.07 -24.0 0 0 580.48 239.00
  Q 582.55 238.80 584.19 237.24
  Z
  M 495.80 465.82
  C 544.90 435.99 570.57 380.57 563.89 323.50
  C 554.40 242.34 481.81 186.86 401.38 194.27
  Q 355.44 198.51 320.75 227.14
  C 269.25 269.64 254.04 342.61 281.40 402.72
  C 318.13 483.43 421.20 511.15 495.80 465.82
  Z"
/>
<path fill="#7b7b7b" d="
  M 240.23 229.27
  L 239.63 229.19
  Q 239.07 229.12 238.88 228.58
  Q 238.10 226.35 236.13 224.93
  Q 235.74 224.65 235.27 224.57
  Q 233.98 224.33 233.90 223.19
  Q 255.71 198.38 281.83 181.12
  Q 284.63 179.27 282.06 181.43
  Q 257.86 201.80 240.23 229.27
  Z"
/>
<path fill="#54504b" d="
  M 563.89 323.50
  C 570.57 380.57 544.90 435.99 495.80 465.82
  C 421.20 511.15 318.13 483.43 281.40 402.72
  C 254.04 342.61 269.25 269.64 320.75 227.14
  Q 355.44 198.51 401.38 194.27
  C 481.81 186.86 554.40 242.34 563.89 323.50
  Z
  M 514.50 445.19
  C 568.91 393.58 575.54 309.84 528.30 251.23
  C 491.80 205.93 430.24 188.46 374.07 204.35
  C 318.61 220.04 278.53 270.54 273.51 327.74
  C 268.62 383.62 297.29 439.12 347.33 465.42
  C 400.36 493.30 470.10 487.31 514.50 445.19
  Z"
/>
<path fill="#7b7b7b" d="
  M 598.72 226.55
  L 593.52 229.00
  Q 582.16 211.30 569.69 198.32
  Q 564.40 192.81 570.13 197.86
  Q 584.48 210.48 598.72 226.55
  Z"
/>
<path fill="#000000" d="
  M 528.30 251.23
  C 575.54 309.84 568.91 393.58 514.50 445.19
  C 470.10 487.31 400.36 493.30 347.33 465.42
  C 297.29 439.12 268.62 383.62 273.51 327.74
  C 278.53 270.54 318.61 220.04 374.07 204.35
  C 430.24 188.46 491.80 205.93 528.30 251.23
  Z
  M 545.01 340.50
  A 128.51 128.51 0.0 0 0 416.50 211.99
  A 128.51 128.51 0.0 0 0 287.99 340.50
  A 128.51 128.51 0.0 0 0 416.50 469.01
  A 128.51 128.51 0.0 0 0 545.01 340.50
  Z"
/>
<path fill="#7b7b7b" d="
  M 298.04 204.03
  Q 288.98 210.81 279.98 217.63
  C 277.66 219.38 273.40 221.81 270.61 224.84
  C 269.77 225.76 268.09 226.17 267.06 227.04
  Q 261.89 231.41 256.50 235.58
  L 261.75 230.51
  A 0.13 0.12 5.4 0 0 261.59 230.32
  L 257.69 232.97
  Q 260.24 230.07 261.42 229.39
  Q 262.48 228.79 265.86 225.86
  Q 269.55 222.66 279.97 214.98
  C 281.47 213.87 283.10 213.37 284.27 212.37
  Q 286.76 210.24 289.33 208.18
  Q 291.09 206.77 294.84 204.68
  Q 298.49 202.65 301.61 199.80
  A 1.43 1.33 -71.0 0 1 302.25 199.46
  L 303.80 199.12
  Q 304.97 198.86 303.96 199.50
  L 296.70 204.18
  Q 296.56 204.27 296.70 204.39
  Q 296.71 204.40 296.73 204.42
  Q 296.77 204.46 296.81 204.43
  Q 297.38 203.81 298.04 204.03
  Z"
/>
<path fill="#3a78af" d="
  M 545.01 340.50
  A 128.51 128.51 0.0 0 1 416.50 469.01
  A 128.51 128.51 0.0 0 1 287.99 340.50
  A 128.51 128.51 0.0 0 1 416.50 211.99
  A 128.51 128.51 0.0 0 1 545.01 340.50
  Z
  M 509.78 340.31
  C 494.39 320.73 474.89 300.72 451.35 291.23
  C 441.10 287.11 430.69 286.03 420.16 284.45
  Q 417.38 284.04 414.35 284.57
  C 409.39 285.43 403.90 285.79 399.65 286.85
  C 369.11 294.44 341.86 316.66 322.06 340.47
  A 0.66 0.66 0.0 0 0 322.06 341.33
  C 340.08 362.79 365.08 383.28 392.72 392.37
  Q 398.17 394.16 404.53 394.75
  C 407.80 395.06 410.50 395.76 413.58 396.40
  Q 416.51 397.00 419.45 396.50
  Q 424.06 395.72 428.65 394.79
  C 429.53 394.61 430.25 395.02 431.03 394.92
  Q 452.87 392.11 469.78 380.27
  Q 492.11 364.63 509.79 341.06
  Q 510.07 340.68 509.78 340.31
  Z
  M 374.9874 414.1703
  A 20.99 20.49 -0.9 0 0 353.6782 394.0125
  A 20.99 20.49 -0.9 0 0 333.0126 414.8297
  A 20.99 20.49 -0.9 0 0 354.3218 434.9875
  A 20.99 20.49 -0.9 0 0 374.9874 414.1703
  Z"
/>
<path fill="#7b7b7b" d="
  M 619.94 233.45
  Q 618.23 234.06 617.43 232.77
  Q 615.72 229.98 613.68 228.45
  Q 611.78 227.02 610.73 225.83
  Q 608.10 222.87 604.86 222.27
  L 611.93 213.53
  Q 612.51 212.82 612.82 213.68
  L 619.94 233.45
  Z"
/>
<path fill="#7b7b7b" d="
  M 232.03 222.03
  Q 231.05 222.88 230.14 222.56
  Q 229.63 222.38 229.28 222.78
  L 218.80 234.78
  Q 218.48 235.15 217.99 235.10
  L 216.54 234.96
  L 223.77 214.93
  Q 224.00 214.31 224.47 214.77
  L 232.03 222.03
  Z"
/>
<path fill="#bfbdb8" d="
  M 232.03 222.03
  Q 233.20 223.27 233.90 223.19
  Q 233.98 224.33 235.27 224.57
  Q 235.74 224.65 236.13 224.93
  Q 238.10 226.35 238.88 228.58
  Q 239.07 229.12 239.63 229.19
  L 240.23 229.27
  Q 195.67 302.08 212.72 385.27
  C 220.40 422.71 239.66 457.95 265.88 485.36
  C 340.67 563.57 463.29 572.05 547.86 503.85
  C 630.87 436.90 650.46 319.24 593.52 229.00
  L 598.72 226.55
  Q 599.05 227.20 599.78 227.64
  Q 600.25 227.92 600.60 227.49
  L 604.86 222.27
  Q 608.10 222.87 610.73 225.83
  Q 611.78 227.02 613.68 228.45
  Q 615.72 229.98 617.43 232.77
  Q 618.23 234.06 619.94 233.45
  L 667.65 365.60
  Q 668.01 366.57 667.44 367.44
  L 555.69 539.97
  A 2.08 2.08 0.0 0 1 554.31 540.89
  Q 486.00 553.17 417.27 565.50
  Q 414.50 566.00 411.73 565.47
  Q 347.22 553.19 282.69 540.90
  A 2.09 2.06 78.5 0 1 281.32 539.98
  L 169.27 366.99
  A 1.04 1.01 -52.3 0 1 169.17 366.11
  L 216.54 234.96
  L 217.99 235.10
  Q 218.48 235.15 218.80 234.78
  L 229.28 222.78
  Q 229.63 222.38 230.14 222.56
  Q 231.05 222.88 232.03 222.03
  Z"
/>
<path fill="#bfbdb8" d="
  M 589.85 231.98
  Q 624.18 289.49 619.36 356.22
  C 614.14 428.48 567.89 492.91 503.26 524.02
  C 439.80 554.56 365.20 548.42 306.32 510.41
  C 250.92 474.64 215.33 413.76 214.51 347.50
  C 214.01 307.60 224.11 268.80 244.64 234.77
  Q 246.56 235.33 246.85 238.64
  Q 219.80 285.67 218.48 340.02
  C 215.68 455.06 316.97 546.44 430.80 539.07
  C 501.94 534.46 565.19 489.63 596.23 426.24
  C 625.67 366.11 621.74 294.26 587.79 236.78
  Q 587.40 236.13 587.36 235.37
  Q 587.33 234.71 587.28 233.85
  L 589.85 231.98
  Z"
/>
<path fill="#000000" d="
  M 451.35 291.23
  C 474.89 300.72 494.39 320.73 509.78 340.31
  Q 510.07 340.68 509.79 341.06
  Q 492.11 364.63 469.78 380.27
  Q 452.87 392.11 431.03 394.92
  C 430.25 395.02 429.53 394.61 428.65 394.79
  Q 424.06 395.72 419.45 396.50
  Q 416.51 397.00 413.58 396.40
  C 410.50 395.76 407.80 395.06 404.53 394.75
  Q 398.17 394.16 392.72 392.37
  C 365.08 383.28 340.08 362.79 322.06 341.33
  A 0.66 0.66 0.0 0 1 322.06 340.47
  C 341.86 316.66 369.11 294.44 399.65 286.85
  C 403.90 285.79 409.39 285.43 414.35 284.57
  Q 417.38 284.04 420.16 284.45
  C 430.69 286.03 441.10 287.11 451.35 291.23
  Z
  M 468.54 334.99
  C 465.97 316.53 452.84 297.03 435.35 289.53
  C 430.90 287.62 425.43 287.22 420.41 286.44
  Q 417.61 286.00 414.59 286.51
  C 407.35 287.72 400.19 287.61 393.97 291.68
  Q 373.70 304.96 367.14 327.35
  C 358.41 357.17 377.31 378.95 402.16 391.25
  C 405.64 392.97 409.40 393.53 413.21 394.31
  Q 416.58 395.00 419.81 394.54
  Q 426.79 393.55 429.73 392.22
  C 452.91 381.76 472.30 361.97 468.54 334.99
  Z
  M 470.06 328.13
  C 478.12 357.04 460.74 378.81 436.50 391.70
  A 0.19 0.19 0.0 0 0 436.63 392.06
  C 466.07 386.34 489.11 364.11 507.31 341.34
  Q 507.67 340.89 507.32 340.43
  Q 492.07 320.67 471.91 305.34
  Q 458.44 295.10 442.61 290.27
  Q 440.50 289.62 442.36 290.81
  Q 463.40 304.26 470.06 328.13
  Z
  M 324.67 341.06
  C 342.43 362.68 369.52 384.43 397.14 391.50
  A 0.14 0.14 0.0 0 0 397.24 391.25
  C 373.77 378.13 356.73 357.30 364.45 328.63
  Q 370.49 306.21 389.47 292.51
  Q 391.27 291.21 389.20 292.00
  C 364.11 301.62 342.04 320.02 324.67 340.31
  Q 324.36 340.69 324.67 341.06
  Z"
/>
<path fill="#f3c163" d="
  M 435.35 289.53
  C 452.84 297.03 465.97 316.53 468.54 334.99
  C 472.30 361.97 452.91 381.76 429.73 392.22
  Q 426.79 393.55 419.81 394.54
  Q 416.58 395.00 413.21 394.31
  C 409.40 393.53 405.64 392.97 402.16 391.25
  C 377.31 378.95 358.41 357.17 367.14 327.35
  Q 373.70 304.96 393.97 291.68
  C 400.19 287.61 407.35 287.72 414.59 286.51
  Q 417.61 286.00 420.41 286.44
  C 425.43 287.22 430.90 287.62 435.35 289.53
  Z
  M 416.8197 351.9686
  A 11.48 10.99 90.9 0 0 427.9886 340.6626
  A 11.48 10.99 90.9 0 0 417.1803 329.0114
  A 11.48 10.99 90.9 0 0 406.0114 340.3174
  A 11.48 10.99 90.9 0 0 416.8197 351.9686
  Z"
/>
<path fill="#ffffff" d="
  M 436.50 391.70
  C 460.74 378.81 478.12 357.04 470.06 328.13
  Q 463.40 304.26 442.36 290.81
  Q 440.50 289.62 442.61 290.27
  Q 458.44 295.10 471.91 305.34
  Q 492.07 320.67 507.32 340.43
  Q 507.67 340.89 507.31 341.34
  C 489.11 364.11 466.07 386.34 436.63 392.06
  A 0.19 0.19 0.0 0 1 436.50 391.70
  Z"
/>
<path fill="#ffffff" d="
  M 397.14 391.50
  C 369.52 384.43 342.43 362.68 324.67 341.06
  Q 324.36 340.69 324.67 340.31
  C 342.04 320.02 364.11 301.62 389.20 292.00
  Q 391.27 291.21 389.47 292.51
  Q 370.49 306.21 364.45 328.63
  C 356.73 357.30 373.77 378.13 397.24 391.25
  A 0.14 0.14 0.0 0 1 397.14 391.50
  Z"
/>
<ellipse fill="#000000" cx="0.00" cy="0.00" transform="translate(417.00,340.49) rotate(90.9)" rx="11.48" ry="10.99"/>
<path fill="#bfbdb8" d="
  M 667.42 369.77
  Q 668.12 370.65 668.23 371.83
  Q 668.27 372.33 668.00 372.75
  Q 639.73 416.91 611.34 460.98
  Q 611.29 461.06 607.80 466.20
  Q 606.21 468.54 604.82 471.01
  Q 603.22 473.85 601.86 475.80
  Q 598.66 480.41 595.65 485.16
  Q 590.94 492.60 589.61 494.61
  Q 575.43 516.13 561.34 537.71
  Q 559.37 540.73 555.54 545.03
  Q 554.81 542.67 555.46 542.32
  Q 555.69 541.95 556.06 541.70
  Q 556.46 541.42 556.73 541.00
  L 667.42 369.77
  Z"
/>
<ellipse fill="#ffffff" cx="0.00" cy="0.00" transform="translate(354.00,414.50) rotate(-0.9)" rx="20.99" ry="20.49"/>
<path fill="#7b7b7b" d="
  M 280.25 541.33
  C 280.90 541.69 281.23 542.00 281.97 542.14
  Q 348.05 554.59 413.87 567.23
  A 4.38 4.26 -43.8 0 0 415.44 567.24
  L 555.46 542.32
  Q 554.81 542.67 555.54 545.03
  L 533.05 549.36
  Q 531.12 549.28 524.99 550.35
  Q 496.04 555.37 467.11 560.51
  Q 448.58 563.80 430.01 566.88
  Q 429.92 566.89 426.98 567.21
  Q 424.87 567.44 421.76 568.29
  Q 413.82 570.44 405.13 567.97
  Q 403.91 567.62 402.85 567.51
  C 400.86 567.30 399.02 567.13 397.06 566.63
  Q 387.07 564.09 383.49 563.58
  Q 371.39 561.85 362.91 559.99
  Q 355.73 558.41 350.49 557.53
  Q 344.82 556.58 338.02 555.16
  Q 331.25 553.75 321.46 552.32
  Q 320.81 552.22 318.88 551.58
  Q 317.85 551.24 316.24 550.93
  Q 307.56 549.23 302.63 548.47
  Q 302.45 548.45 295.99 547.11
  Q 292.12 546.32 288.09 546.75
  Q 285.99 546.53 283.50 545.80
  Q 279.11 544.51 280.25 541.33
  Z"
/>
<path fill="#bfbdb8" d="
  M 533.05 549.36
  Q 523.97 551.92 514.67 553.27
  Q 511.37 553.75 506.48 555.01
  Q 502.70 555.98 498.24 556.62
  Q 488.27 558.05 476.22 560.88
  C 473.93 561.42 470.58 561.18 467.85 561.95
  Q 465.26 562.68 464.57 562.81
  Q 455.13 564.53 445.62 565.80
  Q 445.13 565.87 444.69 566.11
  Q 444.15 566.41 443.00 566.60
  C 434.99 567.94 427.08 568.93 418.99 570.35
  Q 413.03 571.39 407.50 570.35
  Q 376.08 564.41 344.63 558.59
  Q 335.54 556.91 328.93 555.86
  Q 323.14 554.95 316.24 553.30
  Q 309.94 551.79 303.53 550.75
  Q 299.13 550.03 288.09 546.75
  Q 292.12 546.32 295.99 547.11
  Q 302.45 548.45 302.63 548.47
  Q 307.56 549.23 316.24 550.93
  Q 317.85 551.24 318.88 551.58
  Q 320.81 552.22 321.46 552.32
  Q 331.25 553.75 338.02 555.16
  Q 344.82 556.58 350.49 557.53
  Q 355.73 558.41 362.91 559.99
  Q 371.39 561.85 383.49 563.58
  Q 387.07 564.09 397.06 566.63
  C 399.02 567.13 400.86 567.30 402.85 567.51
  Q 403.91 567.62 405.13 567.97
  Q 413.82 570.44 421.76 568.29
  Q 424.87 567.44 426.98 567.21
  Q 429.92 566.89 430.01 566.88
  Q 448.58 563.80 467.11 560.51
  Q 496.04 555.37 524.99 550.35
  Q 531.12 549.28 533.05 549.36
  Z"
/>
<path fill="#000000" d="
  M 509.71 603.29
  Q 503.69 600.92 502.67 593.71
  Q 502.12 589.81 505.00 586.39
  Q 508.49 585.65 510.99 585.74
  C 517.97 585.96 518.77 592.56 516.51 597.69
  Q 514.53 602.21 509.71 603.29
  Z"
/>
<path fill="#7b7b7b" d="
  M 505.00 586.39
  Q 502.12 589.81 502.67 593.71
  Q 503.69 600.92 509.71 603.29
  C 499.87 612.05 490.09 585.60 505.00 586.39
  Z"
/>
<path fill="#000000" d="
  M 484.71 660.06
  L 472.71 659.98
  Q 472.22 659.98 472.25 659.48
  Q 472.85 650.91 471.02 641.27
  C 469.00 630.66 461.07 619.26 449.14 619.84
  Q 448.59 619.87 448.33 620.36
  Q 447.38 622.18 447.29 624.13
  Q 442.74 642.57 450.07 659.36
  Q 450.31 659.91 449.71 659.92
  L 442.70 660.00
  L 436.87 659.96
  Q 436.36 659.96 436.45 659.45
  C 436.94 656.60 437.34 653.88 437.27 650.84
  C 436.70 626.05 443.47 604.42 462.08 587.06
  L 476.30 586.84
  Q 476.70 586.83 476.52 587.19
  Q 474.67 591.01 475.32 596.49
  Q 477.33 613.28 481.72 637.25
  Q 484.00 649.74 487.95 659.54
  Q 488.12 659.97 487.65 659.98
  L 484.71 660.06
  Z
  M 459.76 599.80
  Q 454.01 606.62 450.74 614.27
  Q 450.51 614.80 451.08 614.70
  Q 457.33 613.62 463.02 616.33
  L 466.61 619.20
  Q 467.06 619.55 466.95 618.99
  L 462.73 597.20
  Q 462.57 596.38 462.04 597.02
  L 459.76 599.80
  Z"
/>
<path fill="#7b7b7b" d="
  M 462.08 587.06
  C 443.47 604.42 436.70 626.05 437.27 650.84
  C 437.34 653.88 436.94 656.60 436.45 659.45
  Q 436.36 659.96 436.87 659.96
  L 442.70 660.00
  L 445.86 668.43
  Q 446.07 669.00 445.47 669.00
  L 431.05 669.00
  Q 430.60 669.00 430.66 668.55
  Q 431.55 662.26 431.49 651.75
  Q 431.44 642.54 434.49 629.25
  C 438.36 612.38 446.82 600.13 458.71 588.11
  Q 459.07 587.76 459.56 587.64
  L 462.08 587.06
  Z"
/>
<path fill="#7b7b7b" d="
  M 463.02 616.33
  L 459.76 599.80
  L 462.04 597.02
  Q 462.57 596.38 462.73 597.20
  L 466.95 618.99
  Q 467.06 619.55 466.61 619.20
  L 463.02 616.33
  Z"
/>
<path fill="#ffffff" d="
  M 459.76 599.80
  L 463.02 616.33
  Q 457.33 613.62 451.08 614.70
  Q 450.51 614.80 450.74 614.27
  Q 454.01 606.62 459.76 599.80
  Z"
/>
<path fill="#000000" d="
  M 511.42 661.09
  L 503.29 660.95
  Q 502.76 660.94 502.85 660.41
  Q 505.70 643.31 504.30 625.26
  Q 503.86 619.51 501.69 615.24
  L 499.91 612.73
  Q 499.48 612.12 500.23 612.12
  L 515.96 612.13
  Q 516.44 612.13 516.37 612.61
  Q 512.49 636.49 516.38 660.36
  Q 516.48 660.95 515.88 660.96
  L 511.42 661.09
  Z"
/>
<path fill="#000000" d="
  M 344.94 650.67
  L 345.55 652.32
  Q 345.79 653.00 346.03 652.32
  Q 349.71 641.92 353.49 627.49
  Q 355.23 620.86 352.00 615.40
  A 0.48 0.47 65.2 0 1 352.25 614.71
  Q 352.66 614.56 353.28 614.64
  L 368.33 614.64
  Q 368.88 614.64 368.59 615.10
  Q 356.89 634.16 352.07 654.12
  Q 351.06 658.33 352.77 663.30
  Q 352.97 663.90 352.34 663.92
  L 349.42 664.02
  L 336.26 663.95
  Q 335.64 663.94 335.87 663.37
  Q 337.71 658.85 337.02 655.76
  Q 332.47 635.35 320.37 614.72
  L 337.22 614.66
  Q 337.75 614.66 337.64 615.18
  Q 336.50 620.72 338.06 626.49
  Q 342.05 641.24 344.94 650.67
  Z"
/>
<path fill="#7b7b7b" d="
  M 353.28 614.64
  Q 352.66 614.56 352.25 614.71
  A 0.48 0.47 65.2 0 0 352.00 615.40
  Q 355.23 620.86 353.49 627.49
  Q 349.71 641.92 346.03 652.32
  Q 345.79 653.00 345.55 652.32
  L 344.94 650.67
  Q 350.11 636.38 352.01 626.50
  Q 353.06 621.07 349.58 616.02
  Q 349.31 615.63 349.73 615.41
  Q 351.55 614.46 353.28 614.64
  Z"
/>
<path fill="#000000" d="
  M 401.28 648.37
  L 402.34 652.22
  Q 402.65 653.35 403.04 652.24
  Q 407.76 638.78 411.02 625.27
  Q 412.33 619.86 408.39 614.73
  L 425.46 614.68
  Q 426.14 614.68 425.75 615.24
  C 418.47 625.52 413.87 638.16 409.96 650.50
  Q 407.87 657.11 409.65 663.36
  Q 409.81 663.92 409.23 663.93
  L 404.89 663.96
  L 393.29 663.93
  Q 392.70 663.93 392.92 663.38
  Q 394.85 658.52 393.71 653.99
  C 390.55 641.44 384.17 625.31 377.26 614.77
  L 394.28 614.67
  Q 394.85 614.67 394.72 615.21
  Q 393.60 619.88 394.40 623.51
  Q 396.54 633.26 401.28 648.37
  Z"
/>
<path fill="#7b7b7b" d="
  M 320.37 614.72
  Q 332.47 635.35 337.02 655.76
  Q 337.71 658.85 335.87 663.37
  Q 335.64 663.94 336.26 663.95
  L 349.42 664.02
  L 350.68 668.44
  Q 350.84 669.00 350.26 669.00
  L 332.51 669.00
  Q 331.94 669.00 332.15 668.47
  Q 334.31 663.08 333.58 660.22
  Q 327.65 636.66 315.55 615.65
  Q 315.23 615.10 315.86 615.19
  Q 318.24 615.52 320.37 614.72
  Z"
/>
<path fill="#7b7b7b" d="
  M 377.26 614.77
  C 384.17 625.31 390.55 641.44 393.71 653.99
  Q 394.85 658.52 392.92 663.38
  Q 392.70 663.93 393.29 663.93
  L 404.89 663.96
  L 405.97 668.42
  Q 406.11 669.00 405.52 669.00
  L 387.95 669.00
  Q 387.46 669.00 387.63 668.54
  Q 389.90 662.44 387.56 654.94
  Q 380.56 632.46 371.02 615.60
  Q 370.80 615.21 371.24 615.18
  L 377.26 614.77
  Z"
/>
<path fill="#7b7b7b" d="
  M 408.39 614.73
  Q 412.33 619.86 411.02 625.27
  Q 407.76 638.78 403.04 652.24
  Q 402.65 653.35 402.34 652.22
  L 401.28 648.37
  Q 406.59 632.01 407.51 626.01
  Q 408.29 621.00 404.93 615.90
  Q 404.50 615.24 405.29 615.27
  Q 406.90 615.32 408.39 614.73
  Z"
/>
<path fill="#7b7b7b" d="
  M 501.69 615.24
  Q 503.86 619.51 504.30 625.26
  Q 505.70 643.31 502.85 660.41
  Q 502.76 660.94 503.29 660.95
  L 511.42 661.09
  L 512.86 668.52
  Q 512.95 669.00 512.47 669.00
  L 498.04 669.00
  Q 497.61 669.00 497.68 668.57
  Q 500.25 653.50 499.77 638.30
  C 499.47 628.62 499.45 622.75 494.56 615.78
  Q 494.21 615.29 494.81 615.28
  L 501.69 615.24
  Z"
/>
<path fill="#7b7b7b" d="
  M 484.71 660.06
  L 488.09 668.47
  Q 488.31 669.00 487.73 669.00
  L 470.76 669.00
  Q 470.23 669.00 470.27 668.48
  C 471.60 651.55 467.64 627.61 447.29 624.13
  Q 447.38 622.18 448.33 620.36
  Q 448.59 619.87 449.14 619.84
  C 461.07 619.26 469.00 630.66 471.02 641.27
  Q 472.85 650.91 472.25 659.48
  Q 472.22 659.98 472.71 659.98
  L 484.71 660.06
  Z"
/>
</svg>
